<svg xmlns="http://www.w3.org/2000/svg" width="17.907" height="16.116" viewBox="0 0 17.907 16.116">
  <path id="Icon_material-business-center" data-name="Icon material-business-center" d="M10.163,16.139v-.9H3.9L3.9,18.826a1.785,1.785,0,0,0,1.791,1.791H18.221a1.784,1.784,0,0,0,1.791-1.791V15.244H13.744v.9Zm8.953-8.058h-3.59V6.291L13.735,4.5H10.154L8.363,6.291V8.081H4.791A1.8,1.8,0,0,0,3,9.872v2.686a1.785,1.785,0,0,0,1.791,1.791h5.372V12.558h3.581v1.791h5.372a1.8,1.8,0,0,0,1.791-1.791V9.872A1.8,1.8,0,0,0,19.116,8.081Zm-5.372,0H10.163V6.291h3.581Z" transform="translate(-3 -4.5)" fill="#056fed"/>
</svg>
