<svg xmlns="http://www.w3.org/2000/svg" width="18" height="16" viewBox="0 0 18 16">
  <path id="Icon_metro-images" data-name="Icon metro-images" d="M19.571,7.143h-1v-1a1,1,0,0,0-1-1h-14a1,1,0,0,0-1,1v12a1,1,0,0,0,1,1h1v1a1,1,0,0,0,1,1h14a1,1,0,0,0,1-1v-12a1,1,0,0,0-1-1Zm-15,1v10h-1l0,0v-12l0,0h14l0,0v1h-12A1,1,0,0,0,4.571,8.143Zm15,12,0,0h-14l0,0v-12l0,0h14l0,0Zm-2-9.5a1.5,1.5,0,1,1-1.5-1.5A1.5,1.5,0,0,1,17.571,10.643Zm1,8.5h-12v-2l3.5-6,4,5h1l3.5-3Z" transform="translate(-2.571 -5.143)" fill="#056fed"/>
</svg>
