<svg xmlns="http://www.w3.org/2000/svg" width="13.129" height="23.345" viewBox="0 0 13.129 23.345">
  <path id="Icon_awesome-dollar-sign" data-name="Icon awesome-dollar-sign" d="M9.54,10.642,4.615,9.2a1.345,1.345,0,0,1,.378-2.635H8.017a2.783,2.783,0,0,1,1.559.479.711.711,0,0,0,.889-.091L12.052,5.4a.739.739,0,0,0-.082-1.117A6.447,6.447,0,0,0,8.026,2.918V.73A.732.732,0,0,0,7.3,0H5.837a.732.732,0,0,0-.73.73V2.918H4.994A5,5,0,0,0,.024,8.371a5.22,5.22,0,0,0,3.821,4.4l4.674,1.368a1.345,1.345,0,0,1-.378,2.635H5.117A2.783,2.783,0,0,1,3.557,16.3a.711.711,0,0,0-.889.091l-1.587,1.55a.739.739,0,0,0,.082,1.117,6.447,6.447,0,0,0,3.944,1.368v2.189a.732.732,0,0,0,.73.73H7.3a.732.732,0,0,0,.73-.73v-2.2A5.15,5.15,0,0,0,12.845,17.1,5.007,5.007,0,0,0,9.54,10.642Z" transform="translate(-0.003)" fill="#056fed"/>
</svg>
