<svg id="Group_343" data-name="Group 343" xmlns="http://www.w3.org/2000/svg" xmlns:xlink="http://www.w3.org/1999/xlink" width="36.983" height="37" viewBox="0 0 36.983 37">
  <defs>
    <style>
      .cls-1 {
        fill: none;
      }

      .cls-2 {
        clip-path: url(#clip-path);
      }

      .cls-3 {
        fill: #fff;
      }
    </style>
    <clipPath id="clip-path">
      <rect id="Rectangle_2451" data-name="Rectangle 2451" class="cls-1" width="36.983" height="37"/>
    </clipPath>
  </defs>
  <g id="Group_342" data-name="Group 342" class="cls-2">
    <path id="Path_544" data-name="Path 544" class="cls-3" d="M5.124,37q-.779,0-1.557,0a.71.71,0,0,1-.809-.782c0-.079,0-.157,0-.233,0-.032,0-.063,0-.094V32.957c0-4.437,0-9.025.007-13.537a.491.491,0,0,0-.348-.551A3.938,3.938,0,0,1,.072,15.917c-.013-.062-.03-.123-.046-.185L0,15.634v-.75l.008-.018c.008-.018.018-.036.027-.054a.313.313,0,0,0,.035-.08q.077-.427.156-.853c.146-.794.3-1.616.423-2.426a2.944,2.944,0,0,1,.709-1.537c.736-.853,1.468-1.733,2.177-2.584C4.007,6.764,4.5,6.177,4.98,5.6a1.033,1.033,0,0,0,.277-.741c-.01-.722-.009-1.457-.008-2.167,0-.6,0-1.211,0-1.816a.858.858,0,0,1,.487-.87L5.75,0h25.5l.019.009a.859.859,0,0,1,.487.872c-.006.718-.006,1.449-.006,2.155,0,.637,0,1.3,0,1.943a.743.743,0,0,0,.192.521q.977,1.163,1.95,2.329,1.008,1.207,2.019,2.412a1.523,1.523,0,0,1,.356.74c.076.433.161.872.242,1.3.17.883.346,1.8.455,2.7a3.653,3.653,0,0,1-1.26,3.164,3.188,3.188,0,0,1-1.174.753c-.225.077-.29.175-.289.435.008,4.215.008,8.5.007,12.645v2.743q0,.213,0,.427c0,.32,0,.651,0,.976-.007.635-.242.872-.868.872H24.1L8.96,37a.764.764,0,0,1-.781-.383.654.654,0,0,1,.464-.936,1.463,1.463,0,0,1,.278-.021H21.026a.758.758,0,0,0,.335-.032.823.823,0,0,0,.032-.349V22.841c0-.952.146-1.1,1.113-1.1h7.478c.811,0,1,.185,1,.99v2.332c0,3.36,0,6.835-.008,10.252,0,.168.018.259.062.3a.273.273,0,0,0,.193.051l.077,0c.187-.014.389-.02.62-.02s.464.006.689.013l.12,0a.189.189,0,0,0,.129-.03.216.216,0,0,0,.029-.146c-.008-.3-.006-.6,0-.887,0-.124,0-.249,0-.373V31.358c0-3.855,0-7.841.008-11.762,0-.3-.03-.37-.353-.372a3.911,3.911,0,0,1-3.26-1.69c-.026-.035-.05-.068-.075-.1a4.21,4.21,0,0,1-3.567,1.818,4.275,4.275,0,0,1-3.583-1.811,4.191,4.191,0,0,1-3.545,1.8,4.141,4.141,0,0,1-3.578-1.816,4.136,4.136,0,0,1-3.562,1.816A4.137,4.137,0,0,1,7.8,17.426a4.451,4.451,0,0,1-1.141,1.131,4.085,4.085,0,0,1-2.141.677c-.2.006-.338.01-.375.05s-.038.18-.038.391v9.507q0,3.048,0,6.1v.106a.926.926,0,0,0,.016.268.267.267,0,0,0,.111.011h.09l.153,0h.027l.667,0h1.6c.5,0,.809.258.808.667S7.267,37,6.767,37L5.124,37m21.065-1.341c1.1,0,2.183,0,3.21.009h0c.11,0,.174-.014.2-.043s.042-.1.041-.213c-.009-1.121-.008-2.26-.007-3.362q0-.566,0-1.131t0-1.123c0-1.1,0-2.247.006-3.37,0-.105-.011-.167-.038-.194a.277.277,0,0,0-.183-.039c-1.039,0-2.093.007-3.226.007q-1.606,0-3.213-.006h0c-.121,0-.179.011-.206.039a.268.268,0,0,0-.039.178c.009,2.815.009,5.766,0,9.022a.294.294,0,0,0,.04.195.275.275,0,0,0,.183.04c1.138-.005,2.193-.007,3.229-.007m-.063-10.811q1.673,0,3.346,0a.211.211,0,0,0,.141-.031.228.228,0,0,0,.028-.151c-.009-.375-.017-.869,0-1.37a.158.158,0,0,0-.2-.209h-.011c-.438,0-.9.006-1.5.006h-1.7l-.883,0-.883,0c-.576,0-1.042,0-1.467-.01H22.98a.294.294,0,0,0-.205.049.317.317,0,0,0-.039.222c.022.459.012.924,0,1.335a.19.19,0,0,0,.026.128.2.2,0,0,0,.133.03q1.615,0,3.228,0m3.543-13.315c-.109,0-.179.017-.207.049s-.037.12-.016.269c.138.984.269,2.009.4,3.133q.011.094.021.188a3.537,3.537,0,0,0,.254,1.146,2.805,2.805,0,0,0,2.633,1.595,2.98,2.98,0,0,0,1.805-.563,2.473,2.473,0,0,0,1.024-2.523q-.1-.581-.211-1.161c-.115-.625-.233-1.272-.34-1.91-.03-.18-.07-.217-.237-.217h-.014c-.341.005-.715.008-1.177.008H32.194c-.238,0-.476,0-.714,0s-.477,0-.716,0c-.409,0-.742-.005-1.05-.016h-.046m-13.661,0c-.175,0-.22.027-.227.228-.014.42-.039.846-.063,1.258-.021.352-.042.716-.057,1.075-.005.133-.014.267-.023.4a4.162,4.162,0,0,0,.046,1.292,2.757,2.757,0,0,0,2.766,2.118,3.52,3.52,0,0,0,.372-.02,2.644,2.644,0,0,0,2.538-2.524,19.631,19.631,0,0,0-.074-2.31c-.033-.463-.067-.942-.08-1.414,0-.1-.03-.1-.088-.1l-.06,0-.069,0-1.251,0h-2.6c-.436,0-.789,0-1.111-.008Zm-6.828,0c-.207,0-.261.055-.287.295-.122,1.085-.258,2.166-.39,3.211a2.021,2.021,0,0,0,.068.815,2.745,2.745,0,0,0,2.743,2.054,3.589,3.589,0,0,0,.446-.028,2.678,2.678,0,0,0,2.465-2.339c.059-.748.1-1.51.14-2.247.028-.509.056-1.036.09-1.554a.245.245,0,0,0-.025-.165c-.021-.023-.075-.034-.165-.034h-.017c-.336,0-.7.007-1.159.007H11.694l-.7,0-.706,0c-.419,0-.76,0-1.073-.014H9.18m-6.954,0c-.177,0-.232.03-.262.225-.06.394-.135.792-.207,1.177-.067.354-.135.721-.193,1.082-.023.146-.056.293-.089.434a2.778,2.778,0,0,0-.106.954,2.668,2.668,0,0,0,2.594,2.481c.1.009.2.013.3.013a2.717,2.717,0,0,0,2.812-2.259c.117-.783.209-1.584.3-2.358.059-.51.12-1.037.187-1.555.015-.117,0-.155-.01-.166s-.068-.029-.154-.029H7.379c-.34,0-.712.007-1.173.007H3.4c-.453,0-.82,0-1.155-.007Zm20.5,0c-.087,0-.14.011-.161.034a.252.252,0,0,0-.025.169c.033.508.062,1.024.089,1.524.041.747.083,1.52.143,2.278a2.434,2.434,0,0,0,.864,1.65,2.775,2.775,0,0,0,1.935.711,4.626,4.626,0,0,0,.786-.073,2.667,2.667,0,0,0,2.149-2.657c-.065-.7-.158-1.4-.247-2.088-.057-.437-.116-.888-.168-1.334-.022-.189-.076-.217-.253-.217h-.022c-.33.006-.691.009-1.138.009H23.9c-.454,0-.821,0-1.156-.007Zm-.949-5.464q.073.474.146.943c.158,1.019.308,1.981.448,2.965.027.193.068.229.258.229h.01c.572,0,1.18-.007,1.974-.007l2.05,0h.9l-.621-1.271q-.675-1.379-1.346-2.76c-.045-.093-.1-.1-.218-.1h-3.6ZM5.086,10.205c.919,0,1.821,0,2.724,0,.112,0,.138-.046.192-.161L8.023,10q.47-.954.939-1.908l.992-2.019H8.9c-.8,0-1.619,0-2.429-.006-.133,0-.195.063-.282.168q-.46.553-.921,1.1l-.62.742L3.372,9.618l-.489.587Zm5.786-.008q1.795,0,3.589.012h0c.11,0,.129-.02.149-.154.154-1.036.316-2.087.472-3.1l.133-.867-1.106,0c-.832,0-1.693,0-2.54-.011l0-.09v.09c-.111,0-.138.047-.192.163l-.019.039L9.79,9.46l-.359.734Zm17.068-2.3q.54,1.1,1.08,2.2a.156.156,0,0,0,.165.109c1,0,1.991,0,2.992,0h1.938a.527.527,0,0,0-.1-.128c-.019-.02-.038-.04-.055-.06q-.452-.544-.908-1.085c-.663-.789-1.348-1.605-2-2.422a1.021,1.021,0,0,0-.88-.449H30.1c-.39.014-.813.021-1.332.021-.3,0-.606,0-.91,0-.271,0-.542,0-.813,0l.891,1.82M16.764,6.07c-.154,0-.2.018-.22.186-.183,1.284-.38,2.575-.584,3.835-.014.087,0,.107,0,.107s.015.009.075.009h4.925c.06,0,.074-.006.077-.009s.015-.02,0-.107c-.2-1.266-.4-2.556-.584-3.835-.024-.167-.066-.186-.22-.186h-.009c-.573,0-1.154.007-1.726.007s-1.154,0-1.726-.007ZM6.848,1.331c-.123,0-.192.015-.225.047A.317.317,0,0,0,6.58,1.6c.017.878.017,1.8,0,2.915A.28.28,0,0,0,6.62,4.7c.028.028.089.041.193.041q5.854,0,11.706,0,5.832,0,11.664,0c.106,0,.169-.013.2-.041a.281.281,0,0,0,.038-.188c-.012-.847-.022-1.852,0-2.879a.365.365,0,0,0-.048-.249c-.036-.037-.114-.054-.253-.054-2.418.007-4.8.008-6.816.008H13.934c-2.1,0-4.592,0-7.083-.006l0-.09Z"/>
    <path id="Path_545" data-name="Path 545" class="cls-3" d="M32.137,1a.773.773,0,0,1,.436.79c-.012,1.366,0,2.732-.01,4.1a.83.83,0,0,0,.213.58c1.326,1.578,2.642,3.164,3.969,4.741a1.439,1.439,0,0,1,.336.7c.234,1.332.535,2.656.7,4a3.589,3.589,0,0,1-1.233,3.088,3.128,3.128,0,0,1-1.141.733.456.456,0,0,0-.35.521q.015,7.694.007,15.388c0,.467,0,.935,0,1.4-.006.584-.2.783-.778.783q-12.206,0-24.412,0a.679.679,0,0,1-.7-.333.563.563,0,0,1,.4-.807,2.291,2.291,0,0,1,.43-.018H21.936c.456,0,.457,0,.457-.471q0-6.22,0-12.44c0-.9.11-1.006,1.023-1.006h7.478c.758,0,.908.148.908.9q0,6.292-.007,12.583c0,.338.069.467.429.441.465-.034.934-.017,1.4,0,.206.006.274-.066.269-.268-.011-.419,0-.839,0-1.258q0-7.316.007-14.633c0-.346-.064-.459-.443-.462a3.824,3.824,0,0,1-3.188-1.653c-.035-.048-.071-.1-.11-.141a.227.227,0,0,0-.061-.036,4.329,4.329,0,0,1-7.125-.021,4.092,4.092,0,0,1-3.548,1.871,4.08,4.08,0,0,1-3.578-1.882,4.086,4.086,0,0,1-3.562,1.882,4.08,4.08,0,0,1-3.57-1.881,4.572,4.572,0,0,1-1.191,1.21,3.975,3.975,0,0,1-2.094.662c-.5.015-.5.015-.5.53v7.334q0,4.135,0,8.269c0,.551-.038.469.487.472.755,0,1.51,0,2.265,0,.453,0,.72.221.718.577s-.272.577-.722.578q-1.6.005-3.2,0c-.489,0-.695-.208-.719-.7-.005-.108,0-.216,0-.324q0-8.233.007-16.466a.576.576,0,0,0-.4-.633A3.848,3.848,0,0,1,1.07,16.809c-.02-.093-.047-.184-.07-.276v-.719a.719.719,0,0,0,.069-.156c.2-1.093.41-2.184.579-3.282a2.853,2.853,0,0,1,.688-1.492C3.562,9.463,4.747,8.005,5.959,6.572a1.128,1.128,0,0,0,.3-.8c-.018-1.327,0-2.655-.013-3.983A.772.772,0,0,1,6.681,1Zm-1.5,30.829c0-1.5-.005-3,.005-4.492,0-.247-.061-.325-.317-.324q-3.217.015-6.433,0c-.232,0-.337.036-.336.306q.014,4.51,0,9.021c0,.246.063.327.319.325q3.216-.014,6.433,0c.279,0,.336-.086.334-.346-.012-1.5-.006-2.995-.006-4.492M19.446,2.157q-5.842,0-11.684-.006c-.279,0-.367.067-.362.356.018.97.015,1.941,0,2.912,0,.253.072.322.323.322q11.684-.009,23.369,0c.249,0,.328-.066.324-.32-.014-.959-.02-1.918,0-2.876.008-.32-.082-.4-.4-.395-3.859.011-7.718.007-11.576.007M33.1,12.363c-.826,0-1.652.02-2.477-.009-.357-.013-.4.109-.361.42q.22,1.563.4,3.131a4.3,4.3,0,0,0,.283,1.361,3.109,3.109,0,0,0,4.576,1.064,2.58,2.58,0,0,0,1.056-2.609c-.182-1.024-.379-2.045-.551-3.07-.038-.224-.114-.3-.342-.292-.861.013-1.723.005-2.585.005m-27.4,0c-.85,0-1.7.007-2.549,0-.231,0-.331.051-.37.3-.116.756-.28,1.5-.4,2.259a5.127,5.127,0,0,0-.195,1.413,2.767,2.767,0,0,0,2.676,2.56,2.845,2.845,0,0,0,3.21-2.323c.194-1.3.317-2.611.486-3.915.032-.25-.04-.3-.274-.3-.861.012-1.723,0-2.585,0m6.9,0c-.827,0-1.654.017-2.48-.009-.305-.01-.381.105-.411.374-.12,1.071-.255,2.14-.39,3.209a2.128,2.128,0,0,0,.071.851,2.877,2.877,0,0,0,3.287,2.09,2.754,2.754,0,0,0,2.544-2.422c.1-1.266.147-2.536.231-3.8.016-.248-.071-.3-.3-.3-.851.012-1.7,0-2.552,0m13.606,0c-.851,0-1.7.008-2.553-.005-.233,0-.31.057-.294.3.083,1.267.132,2.537.232,3.8a2.536,2.536,0,0,0,.894,1.71,3.145,3.145,0,0,0,2.8.66,2.76,2.76,0,0,0,2.224-2.754c-.107-1.144-.283-2.281-.416-3.423-.029-.247-.132-.3-.366-.3-.839.015-1.678.006-2.517.006m-6.792,0c-.827,0-1.653.009-2.48-.005-.243,0-.329.06-.337.315-.025.778-.089,1.554-.12,2.332a6.018,6.018,0,0,0,.025,1.717,2.87,2.87,0,0,0,3.235,2.165,2.725,2.725,0,0,0,2.619-2.609c.059-1.244-.119-2.486-.154-3.731-.007-.237-.176-.182-.309-.182-.827,0-1.653,0-2.48,0m-.027-1.157H21.8c.149,0,.277.024.237-.22q-.31-1.914-.583-3.834c-.031-.219-.117-.265-.319-.263q-1.725.013-3.451,0c-.2,0-.288.045-.319.263q-.274,1.919-.583,3.834c-.039.244.089.22.238.22h2.372m-9.173-.058c.037.032.044.045.052.045,1.7,0,3.4.007,5.1.015.174,0,.215-.075.238-.231.2-1.348.41-2.7.616-4.038-.037-.017-.059-.035-.08-.035-1.221,0-2.443,0-3.664-.013-.2,0-.234.126-.3.252L10.619,10.33l-.4.818M22.586,6.894c.21,1.363.421,2.685.61,4.011.035.245.119.309.358.307,1.341-.011,2.682-.005,4.024-.005h1c0-.053.008-.08,0-.1C27.912,9.754,27.247,8.4,26.59,7.046c-.075-.154-.189-.153-.323-.152-.587,0-1.174,0-1.76,0H22.586m12.559,4.311a.6.6,0,0,0-.206-.336c-.972-1.168-1.96-2.322-2.912-3.506a1.118,1.118,0,0,0-1.018-.481c-1.047.038-2.1.012-3.148.012,0,.055-.008.081,0,.1q.992,2.028,1.986,4.056a.244.244,0,0,0,.247.159c1.674,0,3.347,0,5.05,0m-31.545,0c1.774,0,3.447,0,5.12,0,.2,0,.233-.131.294-.255q.6-1.222,1.2-2.444l.777-1.58a.688.688,0,0,0-.129-.033c-1.16,0-2.321,0-3.481-.007a.422.422,0,0,0-.352.2q-.769.924-1.54,1.846L3.6,11.206M27.142,23.915c-1.077,0-2.155.01-3.232-.007-.291,0-.368.089-.355.365.021.442.013.886,0,1.328,0,.188.066.25.25.249q3.286-.006,6.572,0c.21,0,.264-.079.259-.275-.011-.455-.015-.91,0-1.364.009-.236-.07-.305-.3-.3-1.065.011-2.131,0-3.2,0" transform="translate(-0.91 -0.91)"/>
    <path id="Path_546" data-name="Path 546" class="cls-3" d="M70.272,250.126c-.76,0-.968-.2-.968-.949q0-3.4,0-6.795c0-.736.208-.949.928-.949h11.5c.723,0,.933.212.933.945q0,3.415,0,6.831c0,.693-.226.916-.929.916H70.272Zm8.193-1.347c1.047,0,1.846,0,2.591.006h.012c.128,0,.194-.013.225-.044a.309.309,0,0,0,.045-.21c-.014-1.632-.015-3.38,0-5.5,0-.116-.012-.181-.042-.21a.3.3,0,0,0-.2-.043c-1.7,0-3.42.007-5.114.007s-3.409,0-5.1-.007h0c-.111,0-.174.014-.2.043s-.042.095-.042.211c.013,2.132.012,3.88,0,5.5a.309.309,0,0,0,.046.209.346.346,0,0,0,.225.044h.013c.734,0,1.522-.006,2.555-.006h4.991Z" transform="translate(-63.062 -219.688)"/>
    <path id="Path_547" data-name="Path 547" class="cls-3" d="M76.9,250.946H71.183c-.708,0-.878-.166-.878-.859q0-3.4,0-6.795c0-.689.164-.859.838-.859q5.752,0,11.5,0c.676,0,.843.171.843.855q0,3.415,0,6.831c0,.646-.182.826-.839.826q-2.876,0-5.752,0m-.037-1.166c1.7,0,3.4,0,5.1,0,.259,0,.376-.036.373-.345-.016-1.833-.013-3.666,0-5.5,0-.264-.062-.344-.336-.344q-5.1.014-10.208,0c-.274,0-.337.081-.336.344.011,1.833.014,3.666,0,5.5,0,.31.116.345.374.344,1.677-.009,3.355,0,5.032,0" transform="translate(-63.972 -220.598)"/>
    <path id="Path_548" data-name="Path 548" class="cls-3" d="M87.016,27.621a1.146,1.146,0,0,1-.249-.022.631.631,0,0,1-.54-.679.624.624,0,0,1,.559-.623,1.22,1.22,0,0,1,.225-.017h20.066a1.075,1.075,0,0,1,.229.02.626.626,0,0,1,.54.638.619.619,0,0,1-.519.655,1.229,1.229,0,0,1-.283.026l-.166,0H87.18l-.164,0" transform="translate(-78.46 -23.914)"/>
    <path id="Path_549" data-name="Path 549" class="cls-3" d="M97.939,28.44H88.091a1.834,1.834,0,0,1-.394-.018.57.57,0,0,1,.016-1.125,1.96,1.96,0,0,1,.358-.014h19.768a1.7,1.7,0,0,1,.358.016.57.57,0,0,1,.018,1.118,1.876,1.876,0,0,1-.429.022H97.939" transform="translate(-79.371 -24.824)"/>
  </g>
</svg>
