<svg id="Group_335" data-name="Group 335" xmlns="http://www.w3.org/2000/svg" xmlns:xlink="http://www.w3.org/1999/xlink" width="48.768" height="37" viewBox="0 0 48.768 37">
  <defs>
    <style>
      .cls-1 {
        fill: none;
      }

      .cls-2 {
        clip-path: url(#clip-path);
      }

      .cls-3 {
        fill: #fff;
      }
    </style>
    <clipPath id="clip-path">
      <rect id="Rectangle_2447" data-name="Rectangle 2447" class="cls-1" width="48.768" height="37"/>
    </clipPath>
  </defs>
  <g id="Group_334" data-name="Group 334" class="cls-2">
    <path id="Path_538" data-name="Path 538" class="cls-3" d="M0,24.971a2.189,2.189,0,0,1,2.471-1.539c.918.05,1.842-.015,2.761.02.461.018.626-.079.61-.585-.041-1.332-.015-2.666-.014-4,0-1.091.259-1.355,1.337-1.355,5.238,0,10.477-.007,15.715.011.47,0,.584-.129.568-.581-.035-1-.022-2,0-3,.005-.3-.074-.41-.394-.4-1.111.019-2.222.013-3.333.006a1.927,1.927,0,0,1-2.1-2.1q-.011-4.667,0-9.334a1.916,1.916,0,0,1,2.1-2.1q4.667-.012,9.334,0A1.916,1.916,0,0,1,31.152,2.1q.011,4.619,0,9.238a1.934,1.934,0,0,1-2.14,2.113c-1.1.006-2.191.011-3.286-.005-.306,0-.41.076-.4.4.019,1.063.027,2.128,0,3.19-.012.414.132.49.512.489q7.834-.018,15.667-.007c.206,0,.413,0,.618.022a.79.79,0,0,1,.769.711,3.561,3.561,0,0,1,.05.566c0,1.4.015,2.794-.006,4.191-.005.363.1.453.455.446,1.079-.023,2.159-.013,3.238-.007a1.989,1.989,0,0,1,2.142,2.138q.008,4.643,0,9.286a1.926,1.926,0,0,1-2.093,2.115q-4.691.013-9.381,0a1.89,1.89,0,0,1-2.067-2.033q-.023-4.738,0-9.477A1.9,1.9,0,0,1,37.3,23.444c1.127-.009,2.254-.012,3.381,0,.3,0,.377-.088.373-.378-.016-1.095-.021-2.191,0-3.286.007-.356-.131-.412-.443-.411-2.508.01-5.016.006-7.524.006-2.429,0-4.857.007-7.286-.008-.363,0-.494.08-.484.469.028,1.063.024,2.127,0,3.19-.007.343.1.423.431.418,1.095-.019,2.191-.012,3.286-.006a1.926,1.926,0,0,1,2.114,2.09q.012,4.691,0,9.381a1.907,1.907,0,0,1-2.084,2.067q-4.691.013-9.381,0A1.907,1.907,0,0,1,17.614,34.9q-.011-4.691,0-9.381A1.92,1.92,0,0,1,19.7,23.444c1.1-.008,2.191-.013,3.286.005.331.006.476-.048.466-.431-.028-1.079-.021-2.159,0-3.238.005-.312-.087-.406-.4-.405q-7.476.013-14.953,0c-.288,0-.383.083-.379.377.015,1.111.017,2.222,0,3.333-.005.311.113.365.388.362,1.111-.013,2.222-.01,3.334,0a1.919,1.919,0,0,1,2.113,2.09q.018,4.691,0,9.381a1.9,1.9,0,0,1-2.083,2.067c-3,.009-6-.026-9,.017A2.221,2.221,0,0,1,0,35.448Zm1.892,5.223c0,1.476.014,2.952-.009,4.427-.006.4.12.5.508.5q4.379-.024,8.759,0c.411,0,.541-.1.538-.527q-.028-4.332,0-8.664c0-.382-.083-.518-.492-.519q-4.427-.017-8.854-.084c-.349,0-.462.078-.457.443.021,1.475.009,2.951.009,4.427m40.114-4.866c-1.492,0-2.983.007-4.475-.005-.309,0-.452.057-.45.412q.019,4.427,0,8.855c0,.338.111.429.439.425q4.451-.056,8.9-.081c.337,0,.462-.076.46-.447q-.025-4.356,0-8.712c0-.352-.088-.46-.448-.455-1.476.02-2.952.008-4.428.008M24.377,35.108c1.475,0,2.951-.012,4.426.009.379.005.479-.111.477-.482q-.021-4.378,0-8.757c0-.393-.135-.466-.489-.468q-4.426-.025-8.852-.086c-.354-.005-.457.089-.456.448q.021,4.45,0,8.9c0,.371.126.448.466.444,1.475-.016,2.951-.007,4.426-.007m4.9-28.329c0-1.476-.012-2.951.008-4.427.005-.375-.1-.482-.48-.48q-4.4.022-8.806,0c-.387,0-.513.092-.511.5q.026,4.308,0,8.616c0,.395.11.507.5.512q4.426.061,8.852.165c.373.009.448-.115.444-.457-.017-1.476-.007-2.951-.007-4.427" transform="translate(0 0)"/>
  </g>
</svg>
