<svg id="Group_341" data-name="Group 341" xmlns="http://www.w3.org/2000/svg" xmlns:xlink="http://www.w3.org/1999/xlink" width="32.117" height="37" viewBox="0 0 32.117 37">
  <defs>
    <style>
      .cls-1 {
        fill: none;
      }

      .cls-2 {
        clip-path: url(#clip-path);
      }

      .cls-3 {
        fill: #fff;
      }
    </style>
    <clipPath id="clip-path">
      <rect id="Rectangle_2450" data-name="Rectangle 2450" class="cls-1" width="32.117" height="37"/>
    </clipPath>
  </defs>
  <g id="Group_340" data-name="Group 340" class="cls-2">
    <path id="Path_543" data-name="Path 543" class="cls-3" d="M12.973,37c-3.74,0-6.857,0-9.809-.006a2.855,2.855,0,0,1-2.949-3.07q0-4.99,0-9.98V19.926q0-.194,0-.389c0-.295,0-.6,0-.9a.625.625,0,0,1,.628-.679,2.723,2.723,0,0,1,.283-.011l19.709.084-3-.942-.851-.315q-.553-.2-1.106-.407L.633,10.819c-.641-.233-.753-.471-.523-1.108l.313-.869c.344-.957.7-1.946,1.059-2.915A2.849,2.849,0,0,1,4.2,3.884a3.577,3.577,0,0,1,1.2.218c.648.23,1.306.47,1.943.7l1.01.367c.078.028.157.054.248.085l.143.048.737.248-.132-.766a3.837,3.837,0,0,1,.141-1.99A3.966,3.966,0,0,1,12.622.066h.008A.733.733,0,0,0,12.876,0h.9l.119.032a5.469,5.469,0,0,1,1.492.551A4.228,4.228,0,0,1,17.379,3.9c.08.659.181,1.305.287,1.989.048.31.1.625.145.949l.125.843.64-.564.4-.357c.274-.244.533-.475.795-.7.222-.186.434-.383.64-.573a7.434,7.434,0,0,1,1.431-1.125,4.138,4.138,0,0,1,1.989-.547,4.006,4.006,0,0,1,2.117.645A3.834,3.834,0,0,1,27.83,8.151,3.848,3.848,0,0,1,26.6,10.788l-.024.021a2.491,2.491,0,0,1-.468.341l-.646.3,2.121.726,2.488.907a2.905,2.905,0,0,1,1.836,3.847c-.5,1.38-.963,2.662-1.427,3.922-.178.482-.424.544-.618.544a1.276,1.276,0,0,1-.414-.082c-.31-.109-.893-.347-1.068-.4-.365-.118-.189-.35-.245.727-.008.158-.016.356-.016.634v3.284q0,4.191,0,8.382a2.871,2.871,0,0,1-1.638,2.772A2.818,2.818,0,0,1,25.16,37h-3.2l-8.99,0m1.173-1.308c.232,0,.459.006.675.018.037,0,.071,0,.1,0a.824.824,0,0,0,.6-.215.913.913,0,0,0,.222-.672c-.012-1.86-.011-3.751-.009-5.58q0-.892,0-1.783V25.754c0-1.854,0-3.771.006-5.656a.883.883,0,0,0-.217-.657.776.776,0,0,0-.573-.21l-.088,0c-.247.014-.471.022-.686.022s-.426-.008-.62-.022c-.048,0-.093-.005-.134-.005a.834.834,0,0,0-.607.22.969.969,0,0,0-.232.717c.012,2.715.01,5.477.009,8.147v2.364q0,.55,0,1.1c0,1.022,0,2.078-.007,3.116a.843.843,0,0,0,.205.616.765.765,0,0,0,.558.2l.074,0c.248-.012.49-.018.719-.018m3.716-16.46a.849.849,0,0,0-.626.217.866.866,0,0,0-.215.646c.009,1.881.008,3.793.007,5.643v3.323q0,2.9,0,5.8v.017a.817.817,0,0,0,.2.625.8.8,0,0,0,.576.206c1.349-.008,2.708-.009,3.877-.009h1.312q1.111,0,2.222,0a1.539,1.539,0,0,0,1.616-1.629q0-2.774,0-5.548,0-3.779.005-7.558a.812.812,0,0,0-.6-.83c-.736-.256-1.484-.533-2.145-.778a1.981,1.981,0,0,0-.7-.122H22.6l-2.041,0c-1.036,0-1.889,0-2.683-.009ZM6.72,35.7c1.106,0,2.415,0,3.743.009h.012a.753.753,0,0,0,.837-.861c-.009-1.88-.008-3.792-.007-5.642V25.826c0-1.881,0-3.825,0-5.738a.859.859,0,0,0-.209-.644.838.838,0,0,0-.6-.213c-1.314.007-2.687.01-4.088.01-1.316,0-2.656,0-4.1-.009h0a.815.815,0,0,0-.6.208.84.84,0,0,0-.207.616c0,3.058.005,6.168.005,9.175q0,2.37,0,4.741A1.581,1.581,0,0,0,3.249,35.7H6.72ZM20.358,10.964a.662.662,0,0,0-.637.51c-.389,1.1-.822,2.292-1.323,3.637a.764.764,0,0,0-.01.595.752.752,0,0,0,.458.376c3.209,1.161,6.535,2.372,9.888,3.6a.964.964,0,0,0,.33.068.658.658,0,0,0,.638-.518c.218-.624.45-1.256.675-1.868q.166-.452.331-.9a1.5,1.5,0,0,0,.117-.625,1.564,1.564,0,0,0-1.146-1.525l-3.82-1.392q-2.584-.941-5.166-1.884a.966.966,0,0,0-.335-.07M16.186,9.442a.65.65,0,0,0-.628.5c-.47,1.3-.9,2.478-1.338,3.674a.746.746,0,0,0,0,.583.734.734,0,0,0,.449.361c.6.2,1.09.381,1.537.56a.914.914,0,0,0,.344.075.684.684,0,0,0,.657-.542c.318-.9.651-1.815.973-2.7l.331-.909c.013-.037.028-.074.039-.1l.033-.087.007-.048a.607.607,0,0,0-.471-.705l-.015,0c-.21-.078-.425-.156-.641-.234-.322-.117-.655-.237-.977-.362a.807.807,0,0,0-.3-.06M4.328,5.155A1.627,1.627,0,0,0,2.735,6.268c-.137.369-.272.739-.406,1.109-.2.546-.4,1.11-.614,1.66a.768.768,0,0,0-.011.6.791.791,0,0,0,.49.393c3.53,1.278,6.743,2.447,9.823,3.574a1.028,1.028,0,0,0,.355.074h0a.688.688,0,0,0,.663-.546c.449-1.284.909-2.523,1.3-3.565a.783.783,0,0,0,.016-.622.809.809,0,0,0-.488-.394C11.778,7.8,9.659,7.027,7.61,6.282L4.905,5.3a3.74,3.74,0,0,0-.375-.109l-.068-.017L4.4,5.155Zm19.448-.024a2.54,2.54,0,0,0-1.635.593c-.7.582-1.375,1.179-2.086,1.811-.308.274-.621.552-.942.834l-.593.52.742.266c.4.142.789.285,1.176.426.9.328,1.747.637,2.622.922a2.579,2.579,0,0,0,.8.127,2.741,2.741,0,0,0,1.792-4.777,2.923,2.923,0,0,0-1.877-.723M13.164,1.3a2.755,2.755,0,0,0-.7,5.369c.81.3,1.637.6,2.436.888l.588.211c.025.009.049.02.074.031a1.2,1.2,0,0,0,.5.122h0a1.013,1.013,0,0,0,.135-.009l.469-.063-.073-.467c-.063-.4-.121-.806-.179-1.209-.134-.927-.273-1.885-.461-2.822A2.669,2.669,0,0,0,13.23,1.3h-.066" transform="translate(0)"/>
  </g>
</svg>
