<svg id="Group_329" data-name="Group 329" xmlns="http://www.w3.org/2000/svg" xmlns:xlink="http://www.w3.org/1999/xlink" width="38.458" height="37" viewBox="0 0 38.458 37">
  <defs>
    <style>
      .cls-1 {
        fill: none;
      }

      .cls-2 {
        clip-path: url(#clip-path);
      }

      .cls-3 {
        fill: #fff;
      }
    </style>
    <clipPath id="clip-path">
      <rect id="Rectangle_2444" data-name="Rectangle 2444" class="cls-1" width="38.458" height="37"/>
    </clipPath>
  </defs>
  <g id="Group_328" data-name="Group 328" class="cls-2">
    <path id="Path_506" data-name="Path 506" class="cls-3" d="M96.156,37a.5.5,0,0,1-.387-.132.537.537,0,0,1-.11-.377v-.027c0-.882.091-.973.972-.973h6.356a1.507,1.507,0,0,0,1.671-1.669q0-7.75,0-15.5V13.155a2.411,2.411,0,0,0-.009-.277,2.328,2.328,0,0,0-.268-.008H78.551c-.642,0-.731-.088-.731-.723,0-.022,0-.045,0-.068a.461.461,0,0,0,0-.084.546.546,0,0,1,.082-.467.636.636,0,0,1,.512-.17c3.961.006,7.863.007,11.49.007H99.944c1.246,0,2.887,0,4.531.008h0c.142,0,.17-.021.171-.022s.021-.032.02-.175c-.009-1.282-.009-2.586-.008-3.847q0-.976,0-1.953a1.49,1.49,0,0,0-1.617-1.616h-1.8q-.623,0-1.245-.006h0a.458.458,0,0,0-.1.008.3.3,0,0,0,0,.063.645.645,0,0,1,0,.161.964.964,0,0,0,.583,1.19,2.3,2.3,0,0,1,1.01,2.853,2.469,2.469,0,0,1-2.372,1.682c-.077,0-.155,0-.232-.01A2.475,2.475,0,0,1,96.7,7.685a2.438,2.438,0,0,1,1.418-2.709c.269-.113.306-.2.28-.419a1.778,1.778,0,0,1,.013-.4c.016-.153.035-.326-.021-.383-.024-.024-.072-.056-.211-.056a2.417,2.417,0,0,0-.267.022,2.7,2.7,0,0,1-.306.024c-.782,0-1.558-.006-2.334-.006q-1.214,0-2.428.008h0a.548.548,0,0,1-.41-.125.534.534,0,0,1-.122-.395V3.208c.008-.865.1-.954.981-.954l2.472,0c1,0,1.76,0,2.473.008h0a.4.4,0,0,0,.155-.016.5.5,0,0,0,.007-.127c-.014-.334-.012-.672-.009-1,0-.214,0-.428,0-.642A.4.4,0,0,1,98.82.014h.023C99,.006,99.121,0,99.224,0c.225,0,.474.02.593.26a1.878,1.878,0,0,1,.08.774c0,.109,0,.216,0,.324,0,.251.009.511-.011.769a.293.293,0,0,0,.007.124h0a.627.627,0,0,0,.13.01h.023c.393-.006.821-.009,1.347-.009l.88,0,.676,0a2.988,2.988,0,0,1,3.151,2.422l.011.015c.008.013.016.027.024.041l.023.043V34.449l-.009.029c-.02.062-.039.125-.058.188-.042.138-.085.28-.139.42a2.935,2.935,0,0,1-2.734,1.9Q101.593,37,99.962,37h-.924q-1.439,0-2.877,0ZM99.125,6.247a1,1,0,0,0-.972.972.961.961,0,0,0,.284.689.977.977,0,0,0,1.4,0,.966.966,0,0,0,.286-.69,1,1,0,0,0-.982-.974Z" transform="translate(-67.706)"/>
    <path id="Path_507" data-name="Path 507" class="cls-3" d="M107.272,35.724c-.064.2-.118.4-.193.6a2.749,2.749,0,0,1-2.553,1.779c-2.354.012-4.708,0-7.062.011-.249,0-.307-.078-.307-.315,0-.806-.009-.806.778-.806q3.178,0,6.356,0a1.692,1.692,0,0,0,1.866-1.864q0-10.333,0-20.665c0-.479,0-.48-.471-.48H79.855c-.536,0-.536,0-.536-.528a1.078,1.078,0,0,0,0-.186c-.059-.333.083-.409.405-.408q8.864.014,17.729.007c2.775,0,5.55-.005,8.325.007.313,0,.389-.086.387-.393-.014-1.933-.005-3.865-.008-5.8a1.685,1.685,0,0,0-1.811-1.811c-1.016,0-2.032.005-3.048-.006-.227,0-.323.065-.292.293a.444.444,0,0,1,0,.111,1.148,1.148,0,0,0,.69,1.388,2.118,2.118,0,0,1,.912,2.615,2.286,2.286,0,0,1-4.414-.316,2.232,2.232,0,0,1,1.3-2.5c.324-.136.437-.294.4-.622-.037-.3.128-.7-.063-.9-.207-.208-.61-.067-.927-.069q-2.379-.011-4.757,0c-.251,0-.34-.053-.337-.323.008-.8,0-.8.787-.8,1.648,0,3.3-.006,4.943.006.271,0,.37-.059.358-.346-.023-.544,0-1.09-.009-1.635,0-.181.041-.257.245-.266.874-.04.874-.047.874.827,0,.359.02.72-.006,1.077-.022.292.092.347.359.343.966-.015,1.933-.007,2.9-.006a2.792,2.792,0,0,1,2.963,2.278.5.5,0,0,0,.052.1ZM100.441,9.7a1.173,1.173,0,1,0-.015-2.347,1.173,1.173,0,0,0,.015,2.347" transform="translate(-69.009 -1.306)"/>
    <path id="Path_508" data-name="Path 508" class="cls-3" d="M3.222,37.043A3,3,0,0,1,0,33.809Q0,19.664,0,5.519A3.012,3.012,0,0,1,3.208,2.3H4.684q.676,0,1.352.007h0A.44.44,0,0,0,6.13,2.3a.381.381,0,0,0,.005-.086c-.007-.3-.006-.6,0-.9,0-.259,0-.517,0-.776a.415.415,0,0,1,.46-.479h.025c.114,0,.212-.005.3-.005.727,0,.727.3.727,1.014,0,.118,0,.234,0,.351,0,.276,0,.562,0,.844a.416.416,0,0,0,0,.042h.018c.043,0,.086-.006.129-.006l.1,0,.089,0h5.889c2.8,0,6.1,0,9.389-.009a.68.68,0,0,1,.518.152.648.648,0,0,1,.129.49l0,.07c-.034.719-.123.8-.868.8H17.164c-2.772,0-6.045,0-9.306-.009-.187,0-.218.035-.219.036s-.025.031,0,.174a.656.656,0,0,1,0,.16c-.049.508.014.774.514,1.006a2.321,2.321,0,0,1,1.1,2.852,2.467,2.467,0,0,1-2.4,1.73q-.085,0-.172-.005A2.472,2.472,0,0,1,4.442,7.71,2.408,2.408,0,0,1,5.856,5.032c.253-.1.288-.2.282-.477V4.52a1.6,1.6,0,0,0-.07-.652,1.648,1.648,0,0,0-.664-.06H3.965q-.462,0-.925,0a1.474,1.474,0,0,0-1.533,1.55q0,1.149,0,2.3c0,1.184,0,2.409-.008,3.614a.3.3,0,0,0,.016.135h0a.637.637,0,0,0,.143.011c1.078,0,2.15,0,3.223,0,1.285,0,2.614,0,3.921-.007h0a.614.614,0,0,1,.462.141.6.6,0,0,1,.129.447v.046c-.022.8-.109.877-.94.877H5.216q-1.748,0-3.5-.007h0c-.167,0-.195.018-.2.022s-.026.03-.025.18c.009,5.356.009,10.8.009,16.067V33.9a1.49,1.49,0,0,0,1.66,1.643H11.5c4.429,0,9.685,0,15.087-.01a.69.69,0,0,1,.525.158.672.672,0,0,1,.131.513l0,.066c-.033.7-.122.778-.857.778H3.222ZM6.885,6.3a.978.978,0,0,0-.692.293.968.968,0,0,0-.293.688.983.983,0,0,0,1.692.674.958.958,0,0,0,.279-.69A1,1,0,0,0,6.893,6.3L6.885,6.1Z" transform="translate(-0.001 -0.049)"/>
    <path id="Path_509" data-name="Path 509" class="cls-3" d="M16.088,38.154H4.526A2.8,2.8,0,0,1,1.5,35.114q0-14.145,0-28.29A2.809,2.809,0,0,1,4.513,3.8c.942,0,1.884-.007,2.825,0,.226,0,.3-.064.3-.292-.013-.557,0-1.115-.007-1.673,0-.2.053-.276.27-.281.849-.021.849-.03.849.815,0,.4.005.793,0,1.189,0,.171.05.257.233.238.1-.01.2,0,.3,0q7.639,0,15.279-.008c.348,0,.469.066.451.438-.033.684-.009.685-.677.685q-7.584,0-15.167-.009c-.353,0-.466.107-.416.435a.457.457,0,0,1,0,.111.994.994,0,0,0,.625,1.2,2.134,2.134,0,0,1,1,2.616,2.287,2.287,0,0,1-4.433-.295,2.214,2.214,0,0,1,1.3-2.462.57.57,0,0,0,.4-.661c-.018-.937-.006-.938-.953-.937-.781,0-1.561-.007-2.342,0A1.671,1.671,0,0,0,2.617,6.666c-.005,1.97.005,3.94-.009,5.911,0,.3.1.343.361.342,2.379-.008,4.758,0,7.138-.012.3,0,.4.073.4.388-.02.734,0,.734-.746.734-2.243,0-4.486.005-6.729-.006-.3,0-.421.047-.42.4q.018,10.39.01,20.781a1.687,1.687,0,0,0,1.855,1.837q11.71,0,23.42-.009c.379,0,.48.094.461.466-.032.658-.009.659-.666.659h-11.6M8.2,9.753A1.173,1.173,0,1,0,7.01,8.582,1.187,1.187,0,0,0,8.2,9.753" transform="translate(-1.305 -1.354)"/>
    <path id="Path_510" data-name="Path 510" class="cls-3" d="M154.017,125.028a3.517,3.517,0,0,1-3.5-3.387c-.015-.542-.011-1.092-.007-1.624,0-.241,0-.482,0-.723s0-.49,0-.736c0-.528-.008-1.074.008-1.612a3.5,3.5,0,0,1,7.005.031c.025,1.565.025,3.131,0,4.653a3.5,3.5,0,0,1-3.5,3.4Zm0-9.948a2.009,2.009,0,0,0-2,2.076c0,.479,0,.966,0,1.438q0,.339,0,.677,0,.145,0,.291c0,.208,0,.423,0,.633s0,.4-.007.593a4.859,4.859,0,0,0,.053,1.15,2.009,2.009,0,0,0,1.924,1.587h0a1.747,1.747,0,0,0,.181-.009,1.989,1.989,0,0,0,1.857-1.981c.014-1.479.008-2.953,0-4.379a2,2,0,0,0-2.007-2.074v0Z" transform="translate(-130.971 -98.832)"/>
    <path id="Path_511" data-name="Path 511" class="cls-3" d="M152.016,120.6c0-.781-.019-1.562,0-2.342a3.31,3.31,0,0,1,6.616.029q.038,2.323,0,4.647a3.31,3.31,0,0,1-6.616.008c-.022-.78,0-1.561,0-2.342m1.11-.023c0,.309-.006.619,0,.928a9.838,9.838,0,0,0,.05,1.778,2.2,2.2,0,0,0,4.347-.441c.014-1.461.009-2.921,0-4.382a2.2,2.2,0,1,0-4.4,0c-.007.706,0,1.411,0,2.117" transform="translate(-132.276 -100.137)"/>
    <path id="Path_512" data-name="Path 512" class="cls-3" d="M94.913,124.557a3.273,3.273,0,0,1-3.256-2.9.553.553,0,0,1,.091-.44.392.392,0,0,1,.307-.122.818.818,0,0,1,.125.011.437.437,0,0,0,.065.005.318.318,0,0,0,.057,0,1.385,1.385,0,0,1,.238-.023c.5,0,.636.377.7.7a1.677,1.677,0,0,0,1.686,1.27,1.912,1.912,0,0,0,.25-.016,1.793,1.793,0,0,0,1.5-1.713,1.736,1.736,0,0,0-1.471-1.757.6.6,0,0,1-.421-.2.545.545,0,0,1-.076-.417.482.482,0,0,0,0-.131c-.052-.388-.011-.762.643-.87a1.7,1.7,0,0,0,1.325-1.727,1.8,1.8,0,0,0-1.447-1.7,1.745,1.745,0,0,0-1.926,1.036c-.087.231-.221.466-.551.466a1.1,1.1,0,0,1-.249-.033l-.036-.008c-.417-.1-.626-.146-.716-.338s.015-.405.208-.784a3.14,3.14,0,0,1,2.921-1.856q.082,0,.165,0a3.065,3.065,0,0,1,2.887,2.043,3.128,3.128,0,0,1-.7,3.5l-.022.023a2.022,2.022,0,0,0-.182.208,2.208,2.208,0,0,0,.211.231,3.259,3.259,0,0,1-2.323,5.546Z" transform="translate(-79.751 -98.335)"/>
    <path id="Path_513" data-name="Path 513" class="cls-3" d="M96.225,125.667a3.1,3.1,0,0,1-3.069-2.729c-.029-.252.022-.38.3-.337a.583.583,0,0,0,.185,0c.427-.075.618.049.716.529a1.894,1.894,0,0,0,2.152,1.407,1.977,1.977,0,0,0,1.673-1.9,1.939,1.939,0,0,0-1.639-1.956c-.278-.038-.369-.138-.331-.4a.668.668,0,0,0,0-.186c-.05-.375.014-.575.482-.652a1.9,1.9,0,0,0,1.487-1.925,1.984,1.984,0,0,0-1.606-1.885,1.927,1.927,0,0,0-2.144,1.158c-.123.325-.252.387-.573.312-.743-.173-.764-.166-.414-.852a2.941,2.941,0,0,1,2.905-1.747,2.883,2.883,0,0,1,2.714,1.921,2.928,2.928,0,0,1-.665,3.291c-.347.369-.355.361.011.732a3.065,3.065,0,0,1-2.184,5.215" transform="translate(-81.057 -99.64)"/>
    <path id="Path_514" data-name="Path 514" class="cls-3" d="M59.474,218.013a.452.452,0,0,1-.338-.117.513.513,0,0,1-.118-.385c.006-.68.005-1.371,0-2.04v-.55l-.011-.195q0-.377,0-.755c0-.665,0-1.353-.006-2.029a.5.5,0,0,1,.115-.373.467.467,0,0,1,.344-.117H59.5c.182.005.38.008.623.008l.428,0,.431,0h.035a2.693,2.693,0,0,1,2.847,2.25,3.965,3.965,0,0,1-.236,2.667,2.614,2.614,0,0,1-2.413,1.618c-.292.01-.588.01-.874.011s-.558,0-.835.009Zm1.051-1.509a1.861,1.861,0,0,0,.435.054,1.442,1.442,0,0,0,1.414-1.114,2.677,2.677,0,0,0,.062-1.2,1.3,1.3,0,0,0-1.474-1.284h-.122l-.129,0c-.057,0-.114,0-.171-.006h-.025a.376.376,0,0,0,0,.038c.005.822.006,1.645.007,2.467v.994c0,.014,0,.031,0,.044h0" transform="translate(-51.345 -184.004)"/>
    <path id="Path_515" data-name="Path 515" class="cls-3" d="M60.511,216.032c0-.929.007-1.858-.005-2.786,0-.231.067-.3.294-.292.507.015,1.015,0,1.523,0a2.5,2.5,0,0,1,2.658,2.1,3.762,3.762,0,0,1-.223,2.539,2.432,2.432,0,0,1-2.244,1.506c-.569.02-1.14,0-1.709.02-.24.008-.29-.09-.288-.305.009-.929,0-1.858,0-2.786Zm1.758-1.958c-.136,0-.272.008-.407,0-.175-.013-.237.055-.236.233.008,1.149.006,2.3.009,3.446,0,.111-.007.209.15.247a1.655,1.655,0,0,0,2.082-1.194,2.878,2.878,0,0,0,.068-1.282,1.48,1.48,0,0,0-1.666-1.448" transform="translate(-52.651 -185.309)"/>
    <path id="Path_516" data-name="Path 516" class="cls-3" d="M106.957,217.385a.317.317,0,0,1-.108-.02l-.035-.013a5.533,5.533,0,0,1-.846-.362.321.321,0,0,1-.162-.2.447.447,0,0,1,.087-.345.46.46,0,0,0,.032-.056c.565-1.377,1.145-2.774,1.707-4.125l.306-.737a.994.994,0,0,1,.947-.709,1.576,1.576,0,0,1,.4.056.453.453,0,0,1,.318.32l.013.034.649,1.577q.753,1.832,1.511,3.663a.408.408,0,0,1-.235.614l-.021.009a2,2,0,0,1-.7.229c-.342,0-.455-.3-.642-.789-.082-.214-.157-.249-.3-.249l-.067,0c-.117.009-.241.014-.393.014-.1,0-.2,0-.3,0s-.193,0-.29,0l-.074,0-.092,0a.726.726,0,0,1-.128-.01,2.251,2.251,0,0,0-.385-.037c-.515,0-.788.248-.884.8-.051.3-.233.33-.309.33m1.9-2.6c.2,0,.4,0,.595,0-.053-.127-.1-.255-.156-.384-.093-.23-.189-.468-.291-.7-.034-.076-.063-.155-.093-.235-.024-.065-.048-.129-.074-.191l-.622,1.5h.641" transform="translate(-92.063 -183.452)"/>
    <path id="Path_517" data-name="Path 517" class="cls-3" d="M110.133,217.4a1.517,1.517,0,0,1-.259,0c-.775-.136-1.343.051-1.494.924-.013.077-.046.2-.159.161a5.592,5.592,0,0,1-.851-.361c-.166-.094,0-.249.042-.357q1-2.434,2.013-4.861a.829.829,0,0,1,1.118-.539c.137.036.16.141.2.24.72,1.747,1.435,3.5,2.16,5.241.077.184.071.272-.133.361-.786.342-.8.356-1.1-.441a.484.484,0,0,0-.569-.371c-.32.026-.643.006-.965.006m-.9-1.116c.567,0,1.084-.005,1.6,0,.209,0,.182-.09.125-.225-.157-.376-.3-.758-.468-1.131a2.926,2.926,0,0,0-.375-.78l-.883,2.134" transform="translate(-93.368 -184.757)"/>
    <path id="Path_518" data-name="Path 518" class="cls-3" d="M204.439,219.346a3.146,3.146,0,0,1-1.861-.764.459.459,0,0,1-.2-.361.435.435,0,0,1,.214-.32.41.41,0,0,0,.044-.04c.015-.015.03-.03.046-.044.044-.039.086-.083.128-.128a1.131,1.131,0,0,1,.413-.313.379.379,0,0,1,.128-.023.562.562,0,0,1,.378.2.6.6,0,0,0,.127.1,1.851,1.851,0,0,0,.753.2,1.076,1.076,0,0,0,.447-.1.468.468,0,0,0,.324-.39c.009-.145-.084-.263-.276-.35-.3-.135-.607-.262-.906-.385-.187-.077-.373-.153-.559-.232a1.717,1.717,0,0,1-1.192-1.754,1.906,1.906,0,0,1,1.529-1.682,2.742,2.742,0,0,1,.6-.067,3.109,3.109,0,0,1,1.673.528.434.434,0,0,1,.226.3.386.386,0,0,1-.148.319.475.475,0,0,0-.046.054l-.035.042c-.041.048-.079.1-.117.153a1.163,1.163,0,0,1-.386.384.39.39,0,0,1-.178.043.683.683,0,0,1-.37-.147.72.72,0,0,0-.157-.087,1.672,1.672,0,0,0-.484-.083.962.962,0,0,0-.366.07.3.3,0,0,0-.23.3c0,.068.015.141.207.213.241.092.483.191.717.287l.319.13.095.037.114.045a1.989,1.989,0,0,1,1.452,2.192,2.223,2.223,0,0,1-2.386,1.674Z" transform="translate(-176.106 -185.254)"/>
    <path id="Path_519" data-name="Path 519" class="cls-3" d="M205.746,220.456a2.933,2.933,0,0,1-1.738-.718c-.161-.135-.186-.244,0-.37a1.168,1.168,0,0,0,.11-.1c.157-.14.294-.337.478-.4s.311.19.488.269a1.591,1.591,0,0,0,1.36.1.659.659,0,0,0,.439-.555.563.563,0,0,0-.389-.54c-.484-.219-.98-.41-1.468-.619a1.527,1.527,0,0,1-1.075-1.556,1.7,1.7,0,0,1,1.378-1.511,2.752,2.752,0,0,1,2.123.436c.149.093.19.184.049.315a1.322,1.322,0,0,0-.1.112c-.145.169-.26.4-.444.49s-.364-.144-.561-.2a1.426,1.426,0,0,0-.979-.008.5.5,0,0,0-.351.478c0,.213.141.324.332.4.347.132.688.277,1.032.416.069.028.139.053.207.081a1.8,1.8,0,0,1,1.335,1.973,2.051,2.051,0,0,1-2.228,1.518" transform="translate(-177.412 -186.559)"/>
    <path id="Path_520" data-name="Path 520" class="cls-3" d="M157.337,218.618a.777.777,0,0,1-.572-.15c-.159-.16-.159-.4-.157-.868,0-.164,0-.729,0-.729l.005-.022a2.628,2.628,0,0,0-.785-2.429,8.052,8.052,0,0,1-.519-.7c-.1-.14-.2-.285-.3-.422a.479.479,0,0,1-.129-.356.472.472,0,0,1,.21-.3l.026-.02c.336-.249.522-.386.724-.386.264,0,.416.212.72.635l.249.344c.182.25.37.509.549.77.186-.27.38-.538.568-.8s.368-.51.546-.767a.441.441,0,0,1,.356-.23.513.513,0,0,1,.292.109l.018.012c.388.264.583.4.622.622s-.1.425-.385.818c-.06.083-.116.168-.172.253a3.932,3.932,0,0,1-.412.549,2.53,2.53,0,0,0-.686,2.148,6.941,6.941,0,0,1,.015.906c0,.172-.009.349-.006.521a.415.415,0,0,1-.463.479h-.025c-.11,0-.207,0-.29,0" transform="translate(-134.773 -184.65)"/>
    <path id="Path_521" data-name="Path 521" class="cls-3" d="M158.107,218.2a2.834,2.834,0,0,0-.827-2.6c-.3-.346-.535-.743-.81-1.109-.114-.152-.148-.24.041-.379.694-.513.687-.522,1.2.188.267.372.541.739.8,1.117.117.171.187.18.31,0,.365-.53.753-1.044,1.119-1.573.116-.167.2-.191.378-.071.708.482.712.476.206,1.179a7.207,7.207,0,0,1-.567.78,2.739,2.739,0,0,0-.738,2.3c.048.465,0,.94.008,1.411,0,.2-.057.275-.273.281-.847.02-.847.028-.844-.818,0-.235,0-.471,0-.706" transform="translate(-136.078 -185.955)"/>
    <path id="Path_522" data-name="Path 522" class="cls-3" d="M125.545,50.468c-.293,0-.47,0-.6-.128s-.132-.326-.128-.705c0-.065,0-.122,0-.17,0-.184,0-.306.093-.4a.474.474,0,0,1,.356-.1h.463a.6.6,0,0,1,.46.123c.136.137.134.342.13.75,0,.057,0,.106,0,.149,0,.167,0,.288-.09.383a.517.517,0,0,1-.392.1h-.3Z" transform="translate(-108.616 -42.605)"/>
    <path id="Path_523" data-name="Path 523" class="cls-3" d="M126.851,51.577c-.532,0-.537,0-.53-.637.006-.565-.088-.472.618-.478.5,0,.5,0,.5.676,0,.505.082.431-.583.439" transform="translate(-109.921 -43.91)"/>
    <path id="Path_524" data-name="Path 524" class="cls-3" d="M142.7,50.461c-.275,0-.441,0-.565-.125s-.13-.326-.126-.707c0-.069,0-.128,0-.179,0-.174,0-.3.092-.4a.458.458,0,0,1,.352-.1l.134,0c.066,0,.144,0,.235,0l.259,0a.449.449,0,0,1,.337.1c.1.1.1.226.1.434,0,.062,0,.136,0,.224,0,.659-.094.75-.775.75Z" transform="translate(-123.572 -42.598)"/>
    <path id="Path_525" data-name="Path 525" class="cls-3" d="M144.622,51.018c0,.553,0,.553-.619.553-.5,0-.5,0-.5-.635.007-.57-.1-.477.652-.48.544,0,.453-.06.462.561" transform="translate(-124.878 -43.903)"/>
    <path id="Path_526" data-name="Path 526" class="cls-3" d="M159.894,50.472c-.276,0-.443,0-.567-.125s-.133-.337-.13-.736c0-.055,0-.1,0-.145,0-.183,0-.3.093-.4a.479.479,0,0,1,.365-.1h.307c.312,0,.5,0,.625.147s.115.316.115.679c0,.621-.136.679-.767.679Z" transform="translate(-138.53 -42.61)"/>
    <path id="Path_527" data-name="Path 527" class="cls-3" d="M161.268,50.467c.542,0,.542,0,.542.632,0,.485,0,.485-.612.485-.5,0-.508,0-.5-.666,0-.525-.072-.442.572-.451" transform="translate(-139.835 -43.915)"/>
  </g>
</svg>
