<svg id="Group_325" data-name="Group 325" xmlns="http://www.w3.org/2000/svg" xmlns:xlink="http://www.w3.org/1999/xlink" width="39.376" height="37" viewBox="0 0 39.376 37">
  <defs>
    <style>
      .cls-1 {
        fill: #fff;
      }

      .cls-2 {
        clip-path: url(#clip-path);
      }
    </style>
    <clipPath id="clip-path">
      <rect id="Rectangle_2442" data-name="Rectangle 2442" class="cls-1" width="39.376" height="37"/>
    </clipPath>
  </defs>
  <g id="Group_324" data-name="Group 324" class="cls-2">
    <path id="Path_489" data-name="Path 489" class="cls-1" d="M18.783,36.988q-7.421,0-14.842,0A3.714,3.714,0,0,1,.2,34.449,4.141,4.141,0,0,1,0,33.129Q0,22.669,0,12.208A3.7,3.7,0,0,1,3.858,8.352a12.805,12.805,0,0,1,1.3.009c.412.04.571-.136.712-.5C6.644,5.876,7.446,3.9,8.243,1.917A2.731,2.731,0,0,1,12.114.287q9.5,3.956,19.008,7.916a2.035,2.035,0,0,0,.769.153,20.713,20.713,0,0,1,2.554.053,3.6,3.6,0,0,1,3.107,3.432c.038,1.411.017,2.823.013,4.234,0,.225.038.343.3.4a1.782,1.782,0,0,1,1.5,1.808q.027,4.381,0,8.763a1.788,1.788,0,0,1-1.449,1.812c-.329.063-.353.21-.351.475.009,1.23-.042,2.462.014,3.689a3.781,3.781,0,0,1-4,3.979c-4.933-.04-9.867-.012-14.8-.012m-.011-1.8h14.84a1.924,1.924,0,0,0,2.175-2.157c0-1.216-.018-2.432.011-3.647.009-.387-.117-.454-.469-.452-2.487.014-4.975.024-7.462,0a6.265,6.265,0,1,1-.119-12.529q3.836-.019,7.671,0c.29,0,.379-.074.375-.37-.016-1.229-.007-2.459-.007-3.689A1.937,1.937,0,0,0,33.6,10.154H19.352q-7.734,0-15.469,0a1.876,1.876,0,0,0-2.074,1.956q-.01,10.564,0,21.128A1.866,1.866,0,0,0,3.224,35.13a3.021,3.021,0,0,0,.791.055H18.772M32.289,18.26v-.044c-1.592,0-3.184-.015-4.776.005a4.136,4.136,0,0,0-2.737,1.1,4.453,4.453,0,0,0-1.232,4.889,4.385,4.385,0,0,0,4.066,2.909c3.2.029,6.4.008,9.595.02.3,0,.37-.1.369-.384q-.014-4.043,0-8.086c0-.339-.106-.421-.428-.418-1.62.014-3.24.006-4.86.006M26.6,8.349l.014-.077c-.073-.034-.144-.07-.218-.1L16.281,3.96c-1.648-.686-3.293-1.377-4.943-2.059A.911.911,0,0,0,10,2.354C9.224,4.264,8.467,6.184,7.694,8.1c-.087.215-.024.261.185.257.475-.009.95-.016,1.425,0a.4.4,0,0,0,.458-.312c.292-.8.608-1.589.915-2.382.333-.857.68-1.021,1.546-.733q4.959,1.652,9.918,3.3a1.5,1.5,0,0,0,.444.11c1.34.009,2.68,0,4.02,0M16.558,8.333l.012-.071q-2.114-.7-4.228-1.4a.174.174,0,0,0-.256.12c-.163.441-.327.881-.5,1.355Z" transform="translate(0 0.001)"/>
    <path id="Path_490" data-name="Path 490" class="cls-1" d="M52.483,154.486c1.131,0,2.263,0,3.394,0,.639,0,1.045.35,1.046.887s-.4.889-1.043.889q-3.436.005-6.872,0a.9.9,0,1,1,0-1.776c1.159,0,2.319,0,3.478,0" transform="translate(-42.606 -137.178)"/>
    <path id="Path_491" data-name="Path 491" class="cls-1" d="M50.692,122.451c.545,0,1.09-.006,1.635,0a.9.9,0,0,1,1.011.881.883.883,0,0,1-.976.913q-1.7.022-3.4,0a.91.91,0,0,1-.98-.921.922.922,0,0,1,.987-.874h1.719" transform="translate(-42.61 -108.731)"/>
    <path id="Path_492" data-name="Path 492" class="cls-1" d="M226.338,178.451a2.682,2.682,0,1,1-2.7,2.676,2.68,2.68,0,0,1,2.7-2.676m-.016,1.781a.917.917,0,0,0-.893.919.9.9,0,0,0,1.791-.047.919.919,0,0,0-.9-.872" transform="translate(-198.588 -158.46)"/>
  </g>
</svg>
