<svg id="Group_331" data-name="Group 331" xmlns="http://www.w3.org/2000/svg" xmlns:xlink="http://www.w3.org/1999/xlink" width="36.943" height="36.93" viewBox="0 0 36.943 36.93">
  <defs>
    <style>
      .cls-1 {
        fill: none;
      }

      .cls-2 {
        clip-path: url(#clip-path);
      }

      .cls-3 {
        fill: #fff;
      }
    </style>
    <clipPath id="clip-path">
      <rect id="Rectangle_2445" data-name="Rectangle 2445" class="cls-1" width="36.943" height="36.93"/>
    </clipPath>
  </defs>
  <g id="Group_330" data-name="Group 330" class="cls-2">
    <path id="Path_528" data-name="Path 528" class="cls-3" d="M6.293,36.931A1.775,1.775,0,0,1,5.1,35.967c-.073-.17-.22-.115-.342-.115-1.466,0-2.932-.011-4.4.005-.29,0-.339-.086-.357-.359a2.623,2.623,0,0,1,.429-1.626c.534-.855,1-1.749,1.516-2.617a.474.474,0,0,0,0-.552C1.338,29.656.74,28.6.14,27.547-.1,27.12.049,26.654.034,26.207c-.005-.156.173-.089.265-.09.685-.007,1.371-.02,2.055,0,.307.011.376-.087.375-.382q-.013-7.283-.006-14.565c0-1.6.008-3.2-.007-4.795,0-.321.071-.439.414-.426.675.025.675.005.675.7,0,.4.01.794,0,1.19-.008.224.079.308.295.285a2.074,2.074,0,0,1,.216,0H32.65c.558,0,.505.054.506-.5q0-1.8,0-3.605c0-.607-.163-.765-.77-.766-.553,0-1.106.011-1.658-.006-.227-.007-.285.067-.279.285.015.54,0,1.082.009,1.622,0,.2-.052.269-.261.266q-1.37-.016-2.74,0c-.217,0-.256-.082-.253-.274.01-.541-.008-1.082.009-1.622.007-.231-.073-.277-.287-.277q-8.436.008-16.873,0c-.23,0-.312.054-.3.3.018.528,0,1.057.01,1.586,0,.209-.037.3-.273.291q-1.352-.021-2.7,0c-.229,0-.283-.071-.278-.287.014-.54,0-1.082.009-1.622,0-.2-.055-.269-.262-.265-.613.013-1.226,0-1.839.007a.541.541,0,0,0-.6.567c-.008.108,0,.216,0,.324,0,.758-.159.879-.918.735-.15-.029-.165-.111-.163-.226,0-.336-.012-.674.017-1.009A1.591,1.591,0,0,1,4.325,2.173c.637-.012,1.274-.013,1.911,0,.229.006.284-.069.278-.286-.014-.54,0-1.082-.009-1.622C6.5.065,6.56,0,6.767,0q1.37.015,2.74,0c.219,0,.255.085.252.275-.01.529,0,1.058-.008,1.586-.005.217.031.314.287.313q8.436-.012,16.873,0c.232,0,.311-.057.3-.3-.018-.528,0-1.058-.01-1.586C27.2.081,27.242,0,27.477,0q1.352.021,2.7,0c.231,0,.282.074.277.288-.014.54,0,1.082-.009,1.622,0,.2.058.268.263.264.613-.012,1.226-.008,1.839,0a1.613,1.613,0,0,1,1.684,1.6c.008.156,0,.312,0,.469q0,10.69,0,21.379c0,.585-.051.484.5.489.733.006,1.466,0,2.2,0v1.3a.334.334,0,0,0-.076.068c-.638,1.112-1.271,2.228-1.917,3.336-.094.161-.031.265.041.39.423.738.838,1.482,1.269,2.215a7.553,7.553,0,0,0,.683,1.13v1.3q-2.374,0-4.749,0c-.122,0-.266-.051-.339.119a1.764,1.764,0,0,1-1.186.961h-10.6a1.871,1.871,0,0,0,.028-.715c-.025-.308.087-.375.382-.374,3.221.011,6.441.007,9.662.007.614,0,.78-.157.78-.757q0-4.11,0-8.22c0-.6-.165-.759-.777-.759H6.818c-.612,0-.775.157-.776.76q0,4.11,0,8.22c0,.6.165.756.781.756h6.057c1.226,0,2.452.006,3.677-.005.234,0,.315.062.308.3a2.536,2.536,0,0,0,.03.787ZM18.48,9.206H4.277c-.47,0-.471,0-.471.461q0,7.733,0,15.466c0,1.02,0,1.02,1.024.98a.225.225,0,0,1,.036,0,.223.223,0,0,0,.254-.144A1.691,1.691,0,0,1,6.8,25.028q11.68.01,23.361,0c.108,0,.217,0,.324.006a1.37,1.37,0,0,1,1.176.662.746.746,0,0,0,.868.414.685.685,0,0,1,.18,0c.362.066.456-.076.455-.442q-.019-8-.009-16.006c0-.459,0-.46-.472-.46H18.48M1.184,34.767c1.231,0,2.393,0,3.555,0,.219,0,.22-.119.22-.274q0-3.511,0-7.023c0-.219-.067-.287-.287-.284-.876.011-1.753,0-2.629,0H1.2c.093.175.152.29.216.4C2,28.629,2.586,29.662,3.186,30.687a.5.5,0,0,1,0,.581c-.665,1.137-1.313,2.285-2.007,3.5m34.538,0a.867.867,0,0,0-.182-.417c-.586-1.033-1.172-2.065-1.771-3.09a.469.469,0,0,1-.006-.549c.614-1.044,1.21-2.1,1.806-3.153.059-.105.178-.2.131-.362-1.118,0-2.234.011-3.35-.008-.3-.005-.352.1-.351.368.009,2.065,0,4.13.006,6.195,0,.323-.107.751.056.942.191.223.632.067.964.071.9.011,1.792,0,2.7,0M7.591,2.679v.864c0,.811,0,.8.805.8.222,0,.286-.061.281-.283-.014-.72-.005-1.439-.005-2.159,0-.864,0-.859-.86-.814-.17.009-.229.055-.225.227.009.456,0,.912,0,1.368m20.7.015v.864c0,.79,0,.781.784.782.231,0,.308-.057.3-.3-.016-.72-.006-1.439-.006-2.159,0-.831,0-.825-.839-.8-.183.006-.253.049-.247.242.013.456,0,.912,0,1.368" transform="translate(0 -0.001)"/>
    <path id="Path_529" data-name="Path 529" class="cls-3" d="M185.829,372.948a3.567,3.567,0,0,0,.033-.852c0-.16.045-.224.222-.234.85-.05.848-.057.865.806a2.648,2.648,0,0,0,.034.28Z" transform="translate(-167.925 -336.018)"/>
    <path id="Path_530" data-name="Path 530" class="cls-3" d="M175.505,46.055c-.535,0-.535,0-.535-.565,0-.517,0-.517.619-.517.464,0,.464,0,.463.6,0,.481,0,.481-.548.481" transform="translate(-158.112 -40.64)"/>
    <path id="Path_531" data-name="Path 531" class="cls-3" d="M198.509,45.5c0,.541,0,.541-.6.541-.488,0-.488,0-.487-.577,0-.505,0-.51.631-.5.508.005.444-.1.451.539" transform="translate(-178.405 -40.626)"/>
    <path id="Path_532" data-name="Path 532" class="cls-3" d="M252.219,295.508c0,.417-.01.833,0,1.25.008.219-.064.284-.285.287-.8.012-.8.02-.8-.778,0-1.368.007-2.736,0-4.1,0-.265.064-.359.34-.345.443.023.888,0,1.331.008a1.656,1.656,0,0,1,1.616,1.238,1.571,1.571,0,0,1-.871,1.8c-.239.121-.192.193-.054.349.311.35.6.718.911,1.068.124.141.111.22-.027.347-.619.567-.615.572-1.15-.058q-.464-.546-.926-1.093l-.085.035m0-2.073c.036.23-.149.592.37.552.5-.038.781-.205.782-.55s-.276-.5-.78-.541-.356.275-.372.538" transform="translate(-226.937 -263.702)"/>
    <path id="Path_533" data-name="Path 533" class="cls-3" d="M194.137,291.686c.379-.115.509.091.623.4q.773,2.111,1.587,4.207c.092.239.086.344-.181.439-.72.256-.742.278-.979-.46a.563.563,0,0,0-.692-.466,6.3,6.3,0,0,1-.972,0,.316.316,0,0,0-.369.251c-.069.217-.158.427-.239.64-.021.056-.029.14-.07.162-.342.19-.577-.144-.873-.192-.176-.028-.149-.143-.1-.272.578-1.512,1.157-3.024,1.725-4.539.117-.312.366-.125.539-.175m0,1.847c-.087.2-.144.328-.193.455-.322.836-.321.837.631.71l-.437-1.165" transform="translate(-173.353 -263.554)"/>
    <path id="Path_534" data-name="Path 534" class="cls-3" d="M150.548,294.452c0-.781.006-1.562,0-2.343,0-.2.055-.27.262-.267.769.011,1.538.009,2.307,0,.182,0,.244.05.252.242.033.843.04.843-.806.843h-.4c-.534,0-.512,0-.541.528-.018.337.06.479.424.438.309-.034.624,0,.936-.01.191-.008.239.068.247.25.037.835.042.835-.774.835h-.144c-.705,0-.7,0-.687.709,0,.228.078.287.292.279.4-.014.793,0,1.19-.006.173,0,.251.035.26.235.039.849.047.849-.8.849-.553,0-1.106-.014-1.658.006-.275.01-.375-.058-.366-.353.022-.744.008-1.49.008-2.235" transform="translate(-136.037 -263.724)"/>
    <path id="Path_535" data-name="Path 535" class="cls-3" d="M98.508,292.45c.358-.55.691-1.049,1.009-1.557.107-.171.192-.188.365-.08.7.436.7.429.248,1.129a7.172,7.172,0,0,0-1.02,1.643,7.074,7.074,0,0,0-.061,1.933c0,.587,0,.59-.6.586-.555,0-.484.057-.487-.473,0-.577-.005-1.154.005-1.73a.885.885,0,0,0-.157-.537c-.408-.608-.8-1.229-1.21-1.834-.133-.195-.152-.3.076-.44.661-.419.653-.43,1.086.232.236.361.473.721.74,1.127" transform="translate(-87.21 -262.733)"/>
    <path id="Path_536" data-name="Path 536" class="cls-3" d="M168.022,119.229c0,1.946-.009,3.891.008,5.837,0,.342-.105.42-.425.411q-1.206-.031-2.414,0c-.321.008-.426-.071-.424-.412.014-2.774.009-5.549.007-8.323,0-.553.034-.462-.454-.466-.627-.005-.627,0-.627-.619,0-.769.009-1.537-.005-2.306,0-.243.055-.33.316-.327q1.855.02,3.711,0c.269,0,.311.1.31.333-.008,1.958,0,3.915,0,5.873m-1.083.025c0-1.6-.007-3.2.007-4.794,0-.289-.086-.367-.365-.355a13.88,13.88,0,0,1-1.441,0c-.316-.018-.376.1-.37.388.016.7,0,.718.7.694.315-.011.4.072.4.393-.013,2.7-.008,5.407-.008,8.111,0,.706,0,.691.7.706.3.006.387-.08.385-.382-.014-1.586-.007-3.172-.007-4.758" transform="translate(-147.918 -102.134)"/>
  </g>
</svg>
