<svg xmlns="http://www.w3.org/2000/svg" xmlns:xlink="http://www.w3.org/1999/xlink" width="58.243" height="37" viewBox="0 0 58.243 37">
  <defs>
    <style>
      .cls-1 {
        fill: none;
      }

      .cls-2 {
        clip-path: url(#clip-path);
      }

      .cls-3 {
        fill: #fff;
      }
    </style>
    <clipPath id="clip-path">
      <rect id="Rectangle_2446" data-name="Rectangle 2446" class="cls-1" width="58.243" height="37"/>
    </clipPath>
  </defs>
  <g id="Group_332" data-name="Group 332" class="cls-2">
    <path id="Path_537" data-name="Path 537" class="cls-3" d="M58.243,28.155c-1.136-.01-2.272-.027-3.408-.028-3.393,0-6.786.01-10.179-.013-.525,0-.678.115-.6.656a9.652,9.652,0,0,1,.02,2.834,6.013,6.013,0,0,1-6.131,5.359q-8.87.072-17.741,0a6.072,6.072,0,0,1-6.2-6.376,17.371,17.371,0,0,1,.1-1.928c.048-.437-.082-.541-.51-.54-4.284.015-8.568.009-12.851.009-.747,0-.747,0-.743-.717A11.647,11.647,0,0,1,7.489,16.425c.087-.035.171-.079.327-.152a6.65,6.65,0,0,1-2.756-6.02A6.379,6.379,0,0,1,7.371,5.778a6.644,6.644,0,0,1,9.069.433,6.442,6.442,0,0,1,1.846,5.242,6.68,6.68,0,0,1-2.776,4.826A12.312,12.312,0,0,1,19.193,18.4a.241.241,0,0,0,.352.011A15.353,15.353,0,0,1,24.7,15.649a8.422,8.422,0,0,1-4.042-7.3,8.088,8.088,0,0,1,2.7-6.108A8.428,8.428,0,1,1,33.548,15.576c.045.22.258.195.4.242A14.138,14.138,0,0,1,38.4,18.266a.524.524,0,0,0,.815-.008,11.38,11.38,0,0,1,3.5-1.986,6.646,6.646,0,0,1-2.773-6.062,6.418,6.418,0,0,1,2.287-4.429,6.661,6.661,0,1,1,8.2,10.481,19.937,19.937,0,0,1,1.929.92,11.594,11.594,0,0,1,5.776,8.723,1.882,1.882,0,0,0,.1.315Zm-29.2,6.968c.379,0,.758,0,1.137,0,2.747-.011,5.5.03,8.242-.05a4.138,4.138,0,0,0,3.789-3.689A13.22,13.22,0,0,0,24.43,17.7a12.972,12.972,0,0,0-8.467,10.659,8.773,8.773,0,0,0,.013,3.5,4.255,4.255,0,0,0,4.367,3.259c2.9.015,5.8,0,8.7,0m-.015-20.145a6.563,6.563,0,1,0-6.564-6.535,6.553,6.553,0,0,0,6.564,6.535M50,26.25c1.952,0,3.9,0,5.855,0,.3,0,.506.006.429-.419a9.849,9.849,0,0,0-15.7-6.334c-.336.244-.421.414-.1.775a14.464,14.464,0,0,1,3.039,5.589c.111.382.325.39.624.389q2.927-.007,5.855,0m-41.806,0q2.9,0,5.8,0c.278,0,.491,0,.591-.359A14.626,14.626,0,0,1,17.7,20.165c.24-.276.232-.421-.072-.648A9.8,9.8,0,0,0,10.2,17.575a9.947,9.947,0,0,0-8.259,8.058c-.08.514.05.637.563.629C4.4,26.232,6.3,26.25,8.19,26.25M51.354,10.817a4.8,4.8,0,1,0-4.814,4.81,4.841,4.841,0,0,0,4.814-4.81m-34.941-.238A4.784,4.784,0,1,0,11.8,15.6a4.758,4.758,0,0,0,4.609-5.021" transform="translate(0 -0.001)"/>
  </g>
</svg>
