<svg id="Group_327" data-name="Group 327" xmlns="http://www.w3.org/2000/svg" xmlns:xlink="http://www.w3.org/1999/xlink" width="38.47" height="37" viewBox="0 0 38.47 37">
  <defs>
    <style>
      .cls-1, .cls-3, .cls-4 {
        fill: #fff;
      }

      .cls-1 {
        stroke: #fff;
        stroke-width: 0.2px;
      }

      .cls-2 {
        clip-path: url(#clip-path);
      }

      .cls-3 {
        stroke-miterlimit: 10;
      }

      .cls-5, .cls-6 {
        stroke: none;
      }

      .cls-6 {
        fill: #fff;
      }
    </style>
    <clipPath id="clip-path">
      <rect id="Rectangle_2443" data-name="Rectangle 2443" class="cls-1" width="38.47" height="37"/>
    </clipPath>
  </defs>
  <g id="Group_326" data-name="Group 326" class="cls-2">
    <path id="Path_493" data-name="Path 493" class="cls-1" d="M2.5,7.117c.065-.2.12-.4.2-.6a2.763,2.763,0,0,1,2.552-1.77c1.013-.016,2.027-.013,3.04,0,.261,0,.34-.075.331-.333-.017-.543,0-1.087-.008-1.631,0-.205.06-.272.273-.277.844-.021.844-.028.844.815,0,.358.017.718-.005,1.075-.017.275.069.354.35.352,1.8-.013,5.788,0,7.592-.016.357,0,.461.082.445.443-.031.677-.008.678-.68.678-1.718,0-5.615.007-7.332-.006-.287,0-.417.07-.368.366a.136.136,0,0,1,0,.037,1.142,1.142,0,0,0,.692,1.383,2.116,2.116,0,0,1,.914,2.607,2.281,2.281,0,0,1-4.4-.309A2.191,2.191,0,0,1,8.162,7.485a.677.677,0,0,0,.461-.773c-.026-.852-.008-.853-.848-.853-.791,0-1.582,0-2.373,0A1.676,1.676,0,0,0,3.613,7.645c0,1.928.007,3.856-.009,5.783,0,.324.075.413.4.411,2.867-.014,5.734-.008,8.6-.008H38.857c.5,0,.5,0,.5-.489q0-2.818,0-5.635a1.69,1.69,0,0,0-1.838-1.848c-1,0-2,.005-3-.005-.22,0-.325.053-.3.287a1.334,1.334,0,0,1,0,.333.906.906,0,0,0,.6,1.1,2.159,2.159,0,0,1,1.033,2.6,2.284,2.284,0,0,1-4.43-.239A2.233,2.233,0,0,1,32.741,7.43a.477.477,0,0,0,.366-.565c-.031-.317.13-.731-.063-.931-.211-.218-.631-.071-.959-.072q-7.3-.008-14.607,0c-.347,0-.468-.067-.45-.438.033-.682.009-.683.679-.683q7.489,0,14.977.008c.34,0,.446-.086.427-.427-.029-.517,0-1.038-.01-1.557,0-.188.054-.251.25-.259.866-.035.865-.042.865.831,0,.358.015.718,0,1.075-.014.254.06.34.326.336.988-.015,1.977-.008,2.966-.006a2.8,2.8,0,0,1,2.962,2.98c0,3.744-.005,7.489.009,11.233,0,.354-.108.428-.433.417-.688-.021-.689-.006-.689-.708,0-1.137-.006-2.274,0-3.411,0-.234-.055-.351-.306-.315a1.614,1.614,0,0,1-.222,0H4.13c-.614,0-.516-.055-.516.5q0,6.766.005,13.531c0,.3-.058.427-.379.39a6.61,6.61,0,0,0-.74-.008V7.117M9.163,10.68A1.17,1.17,0,1,0,8,9.493,1.185,1.185,0,0,0,9.163,10.68m24.484,0a1.17,1.17,0,1,0,0-2.34,1.17,1.17,0,0,0,0,2.34" transform="translate(-2.252 -2.252)"/>
    <g id="Path_494" data-name="Path 494" class="cls-3" transform="translate(-2.252 -2.252)">
      <path class="cls-5" d="M 3.339328765869141 29.47664070129395 C 3.305428743362427 29.47664070129395 3.269258737564087 29.47434043884277 3.228778600692749 29.46960067749023 C 3.145688772201538 29.45987892150879 3.054628610610962 29.45534896850586 2.942188739776611 29.45534896850586 C 2.87199854850769 29.45534896850586 2.801618576049805 29.45705032348633 2.731248617172241 29.458740234375 C 2.659278631210327 29.4604606628418 2.587308645248413 29.46217918395996 2.515548706054688 29.46217918395996 L 2.499638557434082 29.46215057373047 L 2.399998664855957 29.46179008483887 L 2.399998664855957 29.36215019226074 L 2.399998664855957 7.11653995513916 L 2.399998664855957 7.100639820098877 L 2.404928684234619 7.085529804229736 C 2.425098657608032 7.023699760437012 2.444368600845337 6.961529731750488 2.463648557662964 6.899359703063965 C 2.505948543548584 6.762919902801514 2.5496985912323 6.62183952331543 2.602858543395996 6.485219955444336 C 3.029398679733276 5.389649868011475 4.067218780517578 4.669819831848145 5.246828556060791 4.651329517364502 C 5.702208518981934 4.644209861755371 6.182368755340576 4.640589714050293 6.673978805541992 4.640589714050293 C 7.186608791351318 4.640589714050293 7.715038776397705 4.64432954788208 8.289468765258789 4.652029514312744 L 8.304618835449219 4.652129650115967 C 8.399768829345703 4.652129650115967 8.458648681640625 4.639099597930908 8.484618186950684 4.612269878387451 C 8.511358261108398 4.584659576416016 8.522778511047363 4.522589683532715 8.519548416137695 4.422499656677246 C 8.509828567504883 4.119819641113281 8.511478424072266 3.812689781188965 8.513068199157715 3.515679836273193 C 8.514348983764648 3.277679681777954 8.515668869018555 3.031579732894897 8.511098861694336 2.790289640426636 C 8.506138801574707 2.527349710464478 8.613358497619629 2.417449712753296 8.881168365478516 2.41094970703125 L 8.904448509216309 2.410379648208618 C 9.01524829864502 2.407679796218872 9.110939025878906 2.405349731445312 9.194618225097656 2.405349731445312 C 9.827598571777344 2.405349731445312 9.827618598937988 2.600239753723145 9.82770824432373 3.32535982131958 C 9.82770824432373 3.433799743652344 9.829208374023438 3.541279792785645 9.83069896697998 3.648749828338623 C 9.834148406982422 3.897159814834595 9.837708473205566 4.154019832611084 9.822168350219727 4.407359600067139 C 9.815718650817871 4.512809753417969 9.826138496398926 4.578489780426025 9.854028701782227 4.608139514923096 C 9.882518768310547 4.638429641723633 9.950418472290039 4.653149604797363 10.06160831451416 4.653149604797363 L 10.07150840759277 4.653109550476074 C 10.74472904205322 4.648119926452637 11.73934841156006 4.647429943084717 12.71390819549561 4.647429943084717 L 13.44699859619141 4.647519588470459 L 14.19881820678711 4.647609710693359 C 15.71041870117188 4.647609710693359 16.87800788879395 4.645829677581787 17.66301918029785 4.63716983795166 L 17.68692779541016 4.637029647827148 C 17.75045776367188 4.637029647827148 17.80416870117188 4.640055179595947 17.85082626342773 4.64626932144165 L 20.5533390045166 4.64601993560791 L 23.39896774291992 4.645769596099854 C 26.16936874389648 4.645769596099854 29.43910789489746 4.646759986877441 32.68491744995117 4.654099941253662 C 32.84115982055664 4.654099941253662 32.92691802978516 4.63530969619751 32.96677017211914 4.593169689178467 C 33.005126953125 4.552599906921387 33.0194091796875 4.469719886779785 33.0117073059082 4.332339763641357 C 32.99392700195312 4.015339851379395 32.99725723266602 3.69357967376709 33.00048828125 3.38241982460022 C 33.00256729125977 3.182039737701416 33.00471878051758 2.97482967376709 33.00115966796875 2.771929740905762 C 32.99675750732422 2.526079654693604 33.09706878662109 2.421619653701782 33.34739685058594 2.411399841308594 L 33.36795043945312 2.41055965423584 C 33.50753021240234 2.404849767684937 33.62806701660156 2.399919748306274 33.72786712646484 2.399919748306274 C 33.94540786743164 2.399919748306274 34.14864730834961 2.415579795837402 34.24488830566406 2.604699850082397 C 34.31688690185547 2.746189832687378 34.31688690185547 2.957399845123291 34.31688690185547 3.340819835662842 C 34.31688690185547 3.449309825897217 34.31821823120117 3.556619644165039 34.31954956054688 3.663919687271118 C 34.3226203918457 3.912249803543091 34.32579040527344 4.169029712677002 34.3118782043457 4.422369956970215 C 34.30634689331055 4.522779941558838 34.31634902954102 4.58497953414917 34.34243011474609 4.612539768218994 C 34.36754989624023 4.639089584350586 34.42728805541992 4.652549743652344 34.51996994018555 4.652549743652344 L 34.53602981567383 4.652419567108154 C 34.95311737060547 4.645939826965332 35.4030876159668 4.642929553985596 35.95207977294922 4.642929553985596 C 36.29213714599609 4.642929553985596 36.63219833374023 4.644049644470215 36.97225952148438 4.645169734954834 L 37.5035285949707 4.646769523620605 C 38.41025924682617 4.648979663848877 39.17921829223633 4.941519737243652 39.72726821899414 5.492759704589844 C 40.27531814575195 6.044009685516357 40.56517028808594 6.816499710083008 40.56546783447266 7.726739883422852 C 40.5658073425293 8.733249664306641 40.56559753417969 9.73975944519043 40.56538772583008 10.7462797164917 C 40.5648078918457 13.43820953369141 40.5642204284668 16.22179985046387 40.57486724853516 18.95939064025879 C 40.57566833496094 19.16383934020996 40.54108810424805 19.28612899780273 40.4592399597168 19.36829948425293 C 40.36294937133789 19.46497917175293 40.22145843505859 19.47801971435547 40.09574890136719 19.47801971435547 C 40.07756042480469 19.47801971435547 40.05868911743164 19.47769927978516 40.03902053833008 19.47707939147949 L 39.99423980712891 19.47570037841797 C 39.29502868652344 19.45421981811523 39.25349044799805 19.40898895263672 39.25349044799805 18.66902923583984 C 39.25349044799805 18.37059020996094 39.25308990478516 18.0721492767334 39.2526969909668 17.7736988067627 C 39.2515983581543 16.9490795135498 39.25046920776367 16.09638023376465 39.25814056396484 15.25749969482422 C 39.25911712646484 15.15301990509033 39.24639892578125 15.08671951293945 39.2203483581543 15.06042957305908 C 39.20483779907227 15.04475975036621 39.17548751831055 15.03681945800781 39.13311767578125 15.03681945800781 C 39.11346817016602 15.03681945800781 39.09101867675781 15.03856945037842 39.06641006469727 15.04201984405518 C 39.03791046142578 15.04601955413818 39.00798034667969 15.04788017272949 38.97224807739258 15.04788017272949 C 38.94741821289062 15.04788017272949 38.92244720458984 15.04695987701416 38.89748001098633 15.04601001739502 C 38.87505722045898 15.04515933990479 38.85263824462891 15.04428005218506 38.83033752441406 15.04428005218506 L 33.3223991394043 15.04426002502441 L 27.81444931030273 15.04424953460693 C 19.9195384979248 15.04424953460693 12.02517890930176 15.04438972473145 4.130288600921631 15.04526996612549 C 4.072808742523193 15.04526996612549 4.02289867401123 15.04481983184814 3.978238582611084 15.04441928863525 C 3.942648649215698 15.04409980773926 3.910458564758301 15.04379940032959 3.88131856918335 15.04379940032959 C 3.846300840377808 15.04379940032959 3.742054224014282 15.04380130767822 3.715405225753784 15.05624771118164 C 3.705794095993042 15.08031177520752 3.708178758621216 15.16428470611572 3.710498571395874 15.2455997467041 C 3.712108612060547 15.30243968963623 3.714018583297729 15.36964988708496 3.713958740234375 15.44906997680664 C 3.711068630218506 19.99839973449707 3.709278583526611 24.45655059814453 3.719108581542969 28.98024940490723 C 3.719468593597412 29.13289070129395 3.70659875869751 29.28738021850586 3.61081862449646 29.38339042663574 C 3.548218727111816 29.44612884521484 3.459418773651123 29.47664070129395 3.339328765869141 29.47664070129395 Z M 6.338398456573486 5.957239627838135 C 6.026238441467285 5.957239627838135 5.714178562164307 5.957799911499023 5.40203857421875 5.959639549255371 C 4.36215877532959 5.965689659118652 3.715058565139771 6.611639976501465 3.713268756866455 7.64540958404541 C 3.712158679962158 8.30210018157959 3.71263861656189 8.958779335021973 3.713118553161621 9.615449905395508 C 3.714048624038696 10.86541938781738 3.714998722076416 12.15794944763184 3.704348564147949 13.42935943603516 C 3.703128576278687 13.57150936126709 3.71872878074646 13.65117931365967 3.75493860244751 13.68768978118896 C 3.790218591690063 13.72327995300293 3.86828875541687 13.73985004425049 4.000628471374512 13.73985004425049 L 4.008638858795166 13.73983001708984 C 5.700178623199463 13.73182010650635 7.386238574981689 13.73079013824463 8.66614818572998 13.73079013824463 C 9.323488235473633 13.73079013824463 9.980788230895996 13.73108959197998 10.6380786895752 13.73139953613281 C 11.29534912109375 13.73169994354248 11.95261859893799 13.73199939727783 12.609938621521 13.73199939727783 L 38.85737991333008 13.73199939727783 C 39.04226684570312 13.73199939727783 39.18829727172852 13.73199939727783 39.22119903564453 13.69954013824463 C 39.25349044799805 13.66766929626465 39.25349044799805 13.52423000335693 39.25349044799805 13.34262943267822 L 39.25367736816406 11.67061996459961 C 39.25391006469727 10.34959983825684 39.25412750244141 9.028609275817871 39.25308990478516 7.707629680633545 C 39.25214767456055 6.599459648132324 38.61845779418945 5.962159633636475 37.51450729370117 5.959139823913574 C 37.35289001464844 5.958709716796875 37.19122695922852 5.958549976348877 37.02960968017578 5.958549976348877 C 36.82344055175781 5.958549976348877 36.61723709106445 5.958809852600098 36.41104888916016 5.959059715270996 C 36.20480728149414 5.959309577941895 35.99856948852539 5.959559917449951 35.7923583984375 5.959559917449951 C 35.27417755126953 5.959559917449951 34.87894821166992 5.957869529724121 34.51086807250977 5.954079627990723 L 34.49971008300781 5.954029560089111 C 34.40851974487305 5.954029560089111 34.35155868530273 5.966099739074707 34.33041000366211 5.989899635314941 C 34.31151962280273 6.011159896850586 34.3059196472168 6.059399604797363 34.3142204284668 6.12939977645874 C 34.32912826538086 6.255519866943359 34.32898712158203 6.376089572906494 34.31379699707031 6.487799644470215 C 34.25276947021484 6.938539981842041 34.32057952880859 7.230859756469727 34.85276794433594 7.484219551086426 C 35.80384826660156 7.93710994720459 36.27048873901367 9.106900215148926 35.93821716308594 10.20524978637695 C 35.63295745849609 11.21470928192139 34.70256042480469 11.89297962188721 33.62303924560547 11.89299964904785 C 33.56612777709961 11.89299964904785 33.5082893371582 11.89109992980957 33.45109939575195 11.88733005523682 C 32.41557693481445 11.81916999816895 31.49688911437988 10.98825931549072 31.31414794921875 9.954559326171875 C 31.1153392791748 8.829609870910645 31.68666839599609 7.753569602966309 32.70349884033203 7.337809562683105 C 32.96407699584961 7.231279850006104 33.03225708007812 7.127409934997559 33.00746917724609 6.874679565429688 C 32.99540710449219 6.752099514007568 33.00923919677734 6.621079921722412 33.02261734008789 6.494359970092773 C 33.04409790039062 6.290889739990234 33.06438827514648 6.098699569702148 32.97209930419922 6.003249645233154 C 32.91338729858398 5.94249963760376 32.82173919677734 5.914209842681885 32.68363952636719 5.914209842681885 C 32.59325790405273 5.914209842681885 32.49181747436523 5.926159858703613 32.39373016357422 5.937709808349609 C 32.29141998291016 5.949749946594238 32.18563842773438 5.962209701538086 32.08639907836914 5.962209701538086 C 29.35194778442383 5.959259986877441 27.24504852294922 5.957949638366699 25.25349807739258 5.957949638366699 C 22.40482902526855 5.957949638366699 19.86166954040527 5.960799694061279 17.47871780395508 5.96666955947876 L 17.47183799743652 5.966679573059082 C 17.40393257141113 5.966679573059082 17.34973335266113 5.964093208312988 17.302001953125 5.958560943603516 C 16.9431037902832 5.958622932434082 16.50340843200684 5.958911418914795 16.01633834838867 5.959239959716797 C 15.31856822967529 5.959699630737305 14.52366828918457 5.960239887237549 13.73008823394775 5.960239887237549 C 12.00233840942383 5.960239887237549 10.81331825256348 5.957579612731934 10.09506893157959 5.952109813690186 L 10.08353900909424 5.952059745788574 C 9.95352840423584 5.952059745788574 9.875138282775879 5.969949722290039 9.843868255615234 6.006739616394043 C 9.816298484802246 6.039199829101562 9.810348510742188 6.104759693145752 9.826198577880859 6.201599597930908 C 9.829428672790527 6.22206974029541 9.829588890075684 6.243859767913818 9.82676887512207 6.266929626464844 C 9.753628730773926 6.859969615936279 9.833418846130371 7.239779949188232 10.46336841583252 7.548409938812256 C 11.38818836212158 8.001489639282227 11.802978515625 9.174799919128418 11.42819881439209 10.27761936187744 C 11.09471893310547 11.25879001617432 10.19759845733643 11.89278984069824 9.142678260803223 11.89282989501953 C 9.085208892822266 11.89282989501953 9.026708602905273 11.89091014862061 8.968818664550781 11.88713932037354 C 7.938308715820312 11.81989002227783 7.040128707885742 11.00780010223389 6.83314847946167 9.956170082092285 C 6.619848728179932 8.872209548950195 7.149748802185059 7.818289756774902 8.121758460998535 7.393239974975586 C 8.477808952331543 7.237509727478027 8.533178329467773 7.058009624481201 8.522618293762207 6.714549541473389 L 8.521008491516113 6.661869525909424 C 8.510078430175781 6.301629543304443 8.504058837890625 6.10319995880127 8.428188323974609 6.031459808349609 C 8.351099014282227 5.958549976348877 8.133908271789551 5.958549976348877 7.774098873138428 5.958549976348877 C 7.534778594970703 5.958549976348877 7.295438766479492 5.958219528198242 7.056098461151123 5.957899570465088 C 6.816848754882812 5.957569599151611 6.577608585357666 5.957239627838135 6.338398456573486 5.957239627838135 Z M 9.172968864440918 8.439629554748535 L 9.164198875427246 8.439669609069824 C 8.594878196716309 8.444620132446289 8.105368614196777 8.927829742431641 8.095278739929199 9.494839668273926 C 8.090328216552734 9.775489807128906 8.19920825958252 10.04436016082764 8.401858329772949 10.25189971923828 C 8.606818199157715 10.46179962158203 8.877228736877441 10.57835960388184 9.163278579711914 10.58012008666992 L 9.170028686523438 10.58014011383057 C 9.755038261413574 10.58016014099121 10.24956893920898 10.09092998504639 10.24991893768311 9.511819839477539 C 10.25009822845459 9.231749534606934 10.13638877868652 8.964240074157715 9.92974853515625 8.758569717407227 C 9.723098754882812 8.552899360656738 9.454339027404785 8.439629554748535 9.172968864440918 8.439629554748535 Z M 33.65398025512695 8.439620018005371 L 33.64441680908203 8.439669609069824 C 33.07559967041016 8.444809913635254 32.5866584777832 8.928959846496582 32.57674026489258 9.496890068054199 C 32.57180023193359 9.776179313659668 32.68074035644531 10.04416942596436 32.88350677490234 10.25152015686035 C 33.08644866943359 10.45905017852783 33.36481857299805 10.57881927490234 33.64723968505859 10.58012008666992 C 33.64727401733398 10.58012008666992 33.64735794067383 10.58012008666992 33.64739227294922 10.58012008666992 C 33.93908309936523 10.58012008666992 34.20974349975586 10.46715450286865 34.41460037231445 10.26200008392334 C 34.61732864379883 10.05897998809814 34.72873687744141 9.791969299316406 34.72830963134766 9.510149955749512 C 34.72732925415039 8.929869651794434 34.2353401184082 8.439620018005371 33.65398025512695 8.439620018005371 Z"/>
      <path class="cls-6" d="M 33.72786331176758 2.499917984008789 C 33.62539672851562 2.499919891357422 33.50138092041016 2.505195617675781 33.35147857666016 2.511320114135742 C 33.15493774414062 2.519340515136719 33.0977783203125 2.582250595092773 33.10113906860352 2.770170211791992 C 33.11026000976562 3.289060592651367 33.08251953125 3.80933952331543 33.11154937744141 4.326740264892578 C 33.13066864013672 4.667909622192383 33.02467727661133 4.755252838134766 32.68468856811523 4.754098892211914 C 27.73773193359375 4.742912292480469 22.7910270690918 4.746208190917969 17.84396743774414 4.746269226074219 C 18.05704498291016 4.776651382446289 18.1222095489502 4.88874626159668 18.10870933532715 5.18035888671875 C 18.0773983001709 5.857559204101562 18.10028839111328 5.858549118041992 17.42824935913086 5.858549118041992 C 17.38924980163574 5.858549118041992 17.34908866882324 5.858552932739258 17.30789375305176 5.858560562133789 C 17.3573169708252 5.864629745483398 17.41406631469727 5.866880416870117 17.47846794128418 5.866670608520508 C 22.3473014831543 5.854681015014648 27.21623229980469 5.856960296630859 32.08506011962891 5.862209320068359 C 32.27332305908203 5.862577438354492 32.49165344238281 5.814210891723633 32.68364334106445 5.814210891723633 C 32.82624816894531 5.814210891723633 32.95421981811523 5.840847015380859 33.04397964477539 5.93372917175293 C 33.23725891113281 6.133640289306641 33.07579040527344 6.5477294921875 33.10698699951172 6.86492919921875 C 33.13601684570312 7.160820007324219 33.04110717773438 7.307828903198242 32.74134826660156 7.430370330810547 C 31.74725723266602 7.836830139160156 31.22360992431641 8.867670059204102 31.41261863708496 9.937149047851562 C 31.5877685546875 10.92787933349609 32.46575927734375 11.72225952148438 33.45766830444336 11.78754043579102 C 34.55974578857422 11.86003875732422 35.53193664550781 11.20326995849609 35.84249877929688 10.17629051208496 C 36.14751815795898 9.16802978515625 35.76235961914062 8.028120040893555 34.80977630615234 7.57451057434082 C 34.25690841674805 7.311300277709961 34.14506912231445 6.988649368286133 34.21470642089844 6.474319458007812 C 34.22956848144531 6.365058898925781 34.22787857055664 6.250839233398438 34.21490859985352 6.141170501708984 C 34.18716812133789 5.907089233398438 34.29164505004883 5.851902008056641 34.51189804077148 5.854089736938477 C 35.35111999511719 5.862726211547852 36.19036483764648 5.858554840087891 37.02960586547852 5.858552932739258 C 37.19131851196289 5.858552932739258 37.35306930541992 5.858709335327148 37.51477813720703 5.859140396118164 C 38.67282867431641 5.862310409545898 39.35210037231445 6.545450210571289 39.35308837890625 7.707550048828125 C 39.35456848144531 9.585880279541016 39.35348892211914 11.46419906616211 39.35348892211914 13.34263038635254 C 39.35348892211914 13.83169937133789 39.35338973999023 13.83199882507324 38.85737991333008 13.83199882507324 L 12.60993957519531 13.83199882507324 C 9.742969512939453 13.83199882507324 6.875991821289062 13.82625389099121 4.009117126464844 13.83981895446777 C 3.679901123046875 13.84158897399902 3.601581573486328 13.75216102600098 3.604347229003906 13.42852020263672 C 3.620498657226562 11.5008602142334 3.609996795654297 9.573099136352539 3.613269805908203 7.645238876342773 C 3.615150451660156 6.559709548950195 4.3111572265625 5.86598014831543 5.401447296142578 5.859640121459961 C 6.192276000976562 5.854978561401367 6.983180999755859 5.858549118041992 7.774089813232422 5.858549118041992 C 8.614349365234375 5.858549118041992 8.596309661865234 5.859140396118164 8.622570037841797 6.711479187011719 C 8.634349822998047 7.094850540161133 8.555698394775391 7.312589645385742 8.161827087402344 7.484859466552734 C 7.217166900634766 7.89794921875 6.733348846435547 8.931070327758789 6.931266784667969 9.936859130859375 C 7.130680084228516 10.95006942749023 7.9840087890625 11.72266006469727 8.975330352783203 11.78734970092773 C 10.05505752563477 11.85778999328613 10.99423027038574 11.24368667602539 11.33351898193359 10.24543952941895 C 11.66834831237793 9.260160446166992 11.34787940979004 8.093099594116211 10.41936874389648 7.638210296630859 C 9.736728668212891 7.303770065307617 9.651828765869141 6.868389129638672 9.727508544921875 6.254798889160156 C 9.729000091552734 6.242609024047852 9.729389190673828 6.229730606079102 9.727508544921875 6.217750549316406 C 9.679172515869141 5.922338485717773 9.8092041015625 5.849924087524414 10.09582901000977 5.852109909057617 C 11.77446937561035 5.86488151550293 15.53471946716309 5.858840942382812 17.30789375305176 5.858560562133789 C 17.09095573425293 5.831920623779297 17.01352500915527 5.730838775634766 17.02812957763672 5.429010391235352 C 17.06121826171875 4.747459411621094 17.03694915771484 4.746269226074219 17.7074089050293 4.746269226074219 C 17.75281143188477 4.746269226074219 17.79856491088867 4.746269226074219 17.84396743774414 4.746269226074219 C 17.7928524017334 4.738979339599609 17.73322105407715 4.736391067504883 17.66411781311035 4.737159729003906 C 16.5200309753418 4.749786376953125 14.49947929382324 4.747432708740234 12.71390342712402 4.747430801391602 C 11.68407249450684 4.747430801391602 10.73217010498047 4.748214721679688 10.07225036621094 4.753108978271484 C 9.791000366210938 4.755111694335938 9.705520629882812 4.676233291625977 9.722358703613281 4.401239395141602 C 9.744258880615234 4.044210433959961 9.727706909179688 3.684810638427734 9.727706909179688 3.326410293579102 C 9.727607727050781 2.482490539550781 9.727802276611328 2.490419387817383 8.883598327636719 2.510919570922852 C 8.670909881591797 2.516069412231445 8.607208251953125 2.583040237426758 8.611080169677734 2.788400650024414 C 8.621379852294922 3.331859588623047 8.602058410644531 3.876100540161133 8.619499206542969 4.419269561767578 C 8.627819061279297 4.677028656005859 8.548862457275391 4.755592346191406 8.288127899169922 4.752019882202148 C 7.275016784667969 4.738441467285156 6.26141357421875 4.735469818115234 5.248390197753906 4.751319885253906 C 4.0977783203125 4.769350051879883 3.106960296630859 5.466060638427734 2.696048736572266 6.521469116210938 C 2.620460510253906 6.715740203857422 2.564788818359375 6.917919158935547 2.5 7.116539001464844 L 2.5 29.36215019226074 C 2.646968841552734 29.36267852783203 2.794986724853516 29.35534858703613 2.942131042480469 29.35534858703613 C 3.042121887207031 29.35534858703613 3.141757965087891 29.35873603820801 3.240398406982422 29.37027931213379 C 3.561267852783203 29.40781784057617 3.619808197021484 29.27933120727539 3.619110107421875 28.98045921325684 C 3.609298706054688 24.47003936767578 3.611087799072266 19.95951843261719 3.613960266113281 15.44899940490723 C 3.614356994628906 14.89056968688965 3.515953063964844 14.94527435302734 4.128608703613281 14.94527053833008 C 4.129131317138672 14.94527053833008 4.129753112792969 14.94527053833008 4.130279541015625 14.94527053833008 C 15.69692993164062 14.94397926330566 27.26368141174316 14.94428062438965 38.83032989501953 14.94428062438965 C 38.90442657470703 14.94428062438965 38.97982025146484 14.95318984985352 39.05252838134766 14.94298934936523 C 39.30345916748047 14.90782928466797 39.36031723022461 15.02442169189453 39.35813903808594 15.25839996337891 C 39.34774017333984 16.39524841308594 39.35348892211914 17.53218841552734 39.35348892211914 18.66902923583984 C 39.35348892211914 19.37158012390137 39.35397720336914 19.35562896728516 40.04216766357422 19.37712860107422 C 40.36660003662109 19.3873405456543 40.47625732421875 19.31393051147461 40.47486877441406 18.95977973937988 C 40.46030807495117 15.21550941467285 40.46674728393555 11.47113990783691 40.46546936035156 7.726770401000977 C 40.46486663818359 5.926399230957031 39.29582977294922 4.751119613647461 37.50328826904297 4.746768951416016 C 36.5146484375 4.744392395019531 35.52589797973633 4.737062454223633 34.53755950927734 4.752408981323242 C 34.27158355712891 4.756498336791992 34.19806671142578 4.670589447021484 34.21202850341797 4.416889190673828 C 34.23164749145508 4.0595703125 34.21688842773438 3.700469970703125 34.21688842773438 3.342060089111328 C 34.21688842773438 2.620109558105469 34.21717071533203 2.499904632568359 33.72786331176758 2.499917984008789 M 33.6522102355957 10.68013191223145 C 33.65043258666992 10.68013191223145 33.64855575561523 10.68012809753418 33.64677810668945 10.68012046813965 C 33.00307846069336 10.67714881896973 32.46545791625977 10.13279914855957 32.47674942016602 9.495140075683594 C 32.48764801025391 8.871540069580078 33.01902008056641 8.345319747924805 33.64350891113281 8.339670181274414 C 34.28716659545898 8.333703994750977 34.82720947265625 8.867380142211914 34.82830810546875 9.509990692138672 C 34.82928466796875 10.15124320983887 34.29709625244141 10.68013191223145 33.6522102355957 10.68013191223145 M 9.170009613037109 10.68014335632324 C 9.167564392089844 10.68014335632324 9.165103912353516 10.68013572692871 9.16265869140625 10.68012046813965 C 8.518848419189453 10.6761589050293 7.9840087890625 10.13230895996094 7.99530029296875 9.493059158325195 C 8.006397247314453 8.868959426879883 8.536880493164062 8.345119476318359 9.163349151611328 8.339670181274414 C 9.804645538330078 8.334089279174805 10.35031509399414 8.873823165893555 10.34991836547852 9.511878967285156 C 10.34952926635742 10.1497974395752 9.813037872314453 10.68014335632324 9.170009613037109 10.68014335632324 M 33.72786712646484 2.299919128417969 C 33.95726013183594 2.299919128417969 34.21218872070312 2.31995964050293 34.33400726318359 2.55933952331543 C 34.41688919067383 2.722209930419922 34.41688919067383 2.941928863525391 34.41688919067383 3.3408203125 C 34.41688919067383 3.44890022277832 34.41822052001953 3.555789947509766 34.41954040527344 3.662679672241211 C 34.42263031005859 3.912660598754883 34.42581939697266 4.171150207519531 34.41172790527344 4.427860260009766 C 34.40793609619141 4.496831893920898 34.41334915161133 4.529199600219727 34.41677093505859 4.54210090637207 C 34.42885589599609 4.545991897583008 34.4583740234375 4.552549362182617 34.5200080871582 4.552549362182617 L 34.53453826904297 4.55242919921875 C 34.95204925537109 4.545949935913086 35.40250778198242 4.542930603027344 35.95207977294922 4.542930603027344 C 36.29177856445312 4.542930603027344 36.63150024414062 4.544050216674805 36.97120666503906 4.545169830322266 L 37.50376892089844 4.546770095825195 C 38.43761825561523 4.549039840698242 39.23101043701172 4.851770401000977 39.79818725585938 5.422248840332031 C 40.36525726318359 5.992620468139648 40.66515731811523 6.78948974609375 40.66547012329102 7.726699829101562 C 40.66580963134766 8.733230590820312 40.66559982299805 9.739768981933594 40.66539001464844 10.74629974365234 C 40.66481018066406 13.43812942504883 40.66421890258789 16.22161102294922 40.67486953735352 18.95899963378906 C 40.67547988891602 19.11413955688477 40.65956878662109 19.30889892578125 40.53009796142578 19.43888092041016 C 40.40725708007812 19.56221008300781 40.23342895507812 19.5780200958252 40.09570693969727 19.5780200958252 C 40.0765380859375 19.5780200958252 40.056640625 19.57767868041992 40.03591918945312 19.57703018188477 L 39.99116897583008 19.57564926147461 C 39.62539672851562 19.56441879272461 39.42391967773438 19.55822944641113 39.28633880615234 19.40732002258301 C 39.15348815917969 19.26158905029297 39.15348815917969 19.06356048583984 39.15348815917969 18.66902923583984 C 39.15348815917969 18.37063980102539 39.1530876159668 18.07223892211914 39.1526985168457 17.77383041381836 C 39.1515998840332 16.94894981384277 39.15046691894531 16.09597969055176 39.15814971923828 15.25656890869141 C 39.15878295898438 15.18857383728027 39.15313339233398 15.15384483337402 39.14886093139648 15.13744735717773 C 39.13509750366211 15.13623237609863 39.10891342163086 15.13703727722168 39.08028793334961 15.14105033874512 C 39.04705810546875 15.14570999145508 39.01272964477539 15.14788055419922 38.97224807739258 15.14788055419922 C 38.92510986328125 15.14788055419922 38.87747192382812 15.14427947998047 38.83032989501953 15.14427947998047 L 27.81444931030273 15.14424896240234 C 19.9195384979248 15.14424896240234 12.02517890930176 15.14439010620117 4.130298614501953 15.1452693939209 C 4.027099609375 15.1452693939209 3.946987152099609 15.143798828125 3.881317138671875 15.143798828125 C 3.850742340087891 15.143798828125 3.826927185058594 15.14421272277832 3.808391571044922 15.14487648010254 C 3.808502197265625 15.17425155639648 3.80950927734375 15.20964813232422 3.810447692871094 15.24275970458984 C 3.812099456787109 15.3004093170166 3.814018249511719 15.36857986450195 3.813957214355469 15.44914054870605 C 3.811058044433594 20.00043106079102 3.809280395507812 24.46002960205078 3.819107055664062 28.98003005981445 C 3.81951904296875 29.15419960021973 3.803138732910156 29.33219909667969 3.681598663330078 29.45401954650879 C 3.599288940429688 29.53652954101562 3.487327575683594 29.57663917541504 3.339328765869141 29.57663917541504 C 3.301479339599609 29.57663917541504 3.261520385742188 29.57411956787109 3.217147827148438 29.56892013549805 C 3.13800048828125 29.55965995788574 3.05059814453125 29.55534934997559 2.942127227783203 29.55534934997559 C 2.872730255126953 29.55534934997559 2.803127288818359 29.55703926086426 2.733528137207031 29.5587100982666 C 2.660747528076172 29.56044960021973 2.587959289550781 29.56217956542969 2.515388488769531 29.56217956542969 L 2.299999237060547 29.56136894226074 L 2.299999237060547 7.084739685058594 L 2.309860229492188 7.054519653320312 C 2.329879760742188 6.993148803710938 2.349010467529297 6.931428909301758 2.368137359619141 6.869720458984375 C 2.41094970703125 6.731639862060547 2.455226898193359 6.588850021362305 2.509658813476562 6.448949813842773 C 2.951026916503906 5.315309524536133 4.024806976318359 4.570468902587891 5.245258331298828 4.551340103149414 C 5.701629638671875 4.544210433959961 6.182407379150391 4.540590286254883 6.674259185791016 4.540590286254883 C 7.18731689453125 4.540590286254883 7.716098785400391 4.544330596923828 8.290809631347656 4.552040100097656 L 8.304618835449219 4.552129745483398 C 8.370021820068359 4.552129745483398 8.399955749511719 4.545101165771484 8.411468505859375 4.541236877441406 C 8.415206909179688 4.529155731201172 8.421905517578125 4.49700927734375 8.419597625732422 4.42572021484375 C 8.409820556640625 4.121149063110352 8.411479949951172 3.813070297241211 8.413078308105469 3.515140533447266 C 8.414348602294922 3.277740478515625 8.415668487548828 3.032258987426758 8.411117553710938 2.792190551757812 C 8.405158996582031 2.476139068603516 8.558128356933594 2.31873893737793 8.878757476806641 2.310979843139648 L 8.902156829833984 2.310409545898438 C 9.013557434082031 2.307689666748047 9.109760284423828 2.305349349975586 9.194618225097656 2.305349349975586 C 9.927577972412109 2.305339813232422 9.927619934082031 2.60392951965332 9.927707672119141 3.325319290161133 C 9.927707672119141 3.433330535888672 9.92919921875 3.540340423583984 9.930686950683594 3.647350311279297 C 9.934158325195312 3.897609710693359 9.937759399414062 4.156389236450195 9.921977996826172 4.413478851318359 C 9.917098999023438 4.493148803710938 9.924324035644531 4.527067184448242 9.928005218505859 4.53863525390625 C 9.939693450927734 4.543210983276367 9.975059509277344 4.553150177001953 10.06160736083984 4.553150177001953 L 10.07057952880859 4.553119659423828 C 10.74509048461914 4.548120498657227 11.7396183013916 4.547430038452148 12.71390914916992 4.547430038452148 L 14.19881820678711 4.547609329223633 C 15.71003913879395 4.547609329223633 16.87729835510254 4.545829772949219 17.66190910339355 4.53717041015625 L 17.68692779541016 4.537029266357422 C 17.75191307067871 4.537029266357422 17.80781936645508 4.540058135986328 17.85722351074219 4.546268463134766 L 23.39896774291992 4.545770645141602 C 26.16941833496094 4.545770645141602 29.43921852111816 4.546760559082031 32.68513870239258 4.554100036621094 C 32.86406707763672 4.554100036621094 32.89296722412109 4.525669097900391 32.89410781860352 4.524459838867188 C 32.89437866210938 4.524179458618164 32.92063903808594 4.494489669799805 32.91185760498047 4.337930679321289 C 32.89389038085938 4.017610549926758 32.89724731445312 3.694160461425781 32.90049743652344 3.381359100341797 C 32.90256881713867 3.181669235229492 32.90470886230469 2.975179672241211 32.90116882324219 2.773679733276367 C 32.89582824707031 2.47504997253418 33.04045867919922 2.32383918762207 33.34333038330078 2.311489105224609 L 33.36441040039062 2.310619354248047 C 33.50485992431641 2.304880142211914 33.62615966796875 2.299919128417969 33.72786712646484 2.299919128417969 Z M 17.82944107055664 4.946269989013672 L 17.7074089050293 4.946269989013672 C 17.51656341552734 4.946269989013672 17.31933975219727 4.946269989013672 17.27295112609863 4.971282958984375 C 17.24798965454102 5.01402473449707 17.23946380615234 5.194589614868164 17.23119926452637 5.369338989257812 L 17.2278881072998 5.438709259033203 C 17.21830749511719 5.636928558349609 17.23591613769531 5.647815704345703 17.32028007507324 5.658557891845703 L 17.42824935913086 5.658550262451172 C 17.62016868591309 5.658550262451172 17.81848907470703 5.658552169799805 17.86520195007324 5.633476257324219 C 17.88998985290527 5.590600967407227 17.89810752868652 5.410501480102539 17.90595817565918 5.236209869384766 L 17.9089183807373 5.171119689941406 C 17.91815567016602 4.971731185913086 17.89762115478516 4.956716537475586 17.82944107055664 4.946269989013672 Z M 33.6230583190918 11.99299049377441 C 33.56392669677734 11.99299049377441 33.50386810302734 11.99101066589355 33.44453811645508 11.98711013793945 C 32.36441040039062 11.91601943969727 31.40620803833008 11.0496997833252 31.21566772460938 9.971969604492188 C 31.00859832763672 8.800249099731445 31.60484886169434 7.678989410400391 32.66565704345703 7.245250701904297 C 32.89759826660156 7.150430679321289 32.92707061767578 7.07942008972168 32.9079475402832 6.88446044921875 C 32.89488983154297 6.751749038696289 32.90926742553711 6.615570068359375 32.92316818237305 6.483879089355469 C 32.94044876098633 6.320178985595703 32.96003723144531 6.134639739990234 32.90018844604492 6.072750091552734 C 32.87588882446289 6.047599792480469 32.8270378112793 6.014209747314453 32.68363952636719 6.014209747314453 C 32.59913635253906 6.014209747314453 32.50505828857422 6.025289535522461 32.40545654296875 6.037019729614258 C 32.30027770996094 6.049400329589844 32.1915283203125 6.062210083007812 32.08639907836914 6.062210083007812 C 29.39485931396484 6.059299468994141 27.22414779663086 6.057949066162109 25.25349807739258 6.057949066162109 C 22.40563774108887 6.057949066162109 19.86256790161133 6.060800552368164 17.47895812988281 6.066669464111328 L 17.47182846069336 6.066679000854492 C 17.4027099609375 6.066679000854492 17.34649848937988 6.064092636108398 17.29633522033691 6.058561325073242 C 16.4234447479248 6.058717727661133 15.07571220397949 6.06022834777832 13.73164939880371 6.060230255126953 C 12.00242805480957 6.060230255126953 10.81264877319336 6.05756950378418 10.09430694580078 6.052099227905273 L 10.08353805541992 6.052059173583984 C 9.972732543945312 6.052059173583984 9.932498931884766 6.066463470458984 9.921184539794922 6.07196044921875 C 9.918468475341797 6.082212448120117 9.913219451904297 6.114139556884766 9.924888610839844 6.185449600219727 C 9.929649353027344 6.215799331665039 9.929969787597656 6.246860504150391 9.926029205322266 6.279069900512695 C 9.856998443603516 6.838748931884766 9.927967071533203 7.174749374389648 10.50735855102539 7.458610534667969 C 11.47720909118652 7.933750152587891 11.91378784179688 9.159490585327148 11.52287864685059 10.30978965759277 C 11.17537879943848 11.33219909667969 10.2410888671875 11.99283027648926 9.142677307128906 11.99283027648926 C 9.083000183105469 11.99283027648926 9.022308349609375 11.9908390045166 8.962299346923828 11.98692893981934 C 7.887317657470703 11.91678047180176 6.950607299804688 11.07083892822266 6.735027313232422 9.975479125976562 C 6.512599945068359 8.84514045715332 7.066368103027344 7.745609283447266 8.081699371337891 7.301609039306641 C 8.384658813476562 7.169109344482422 8.432559967041016 7.039579391479492 8.422657012939453 6.717618942260742 L 8.421058654785156 6.66486930847168 C 8.412979125976562 6.398799896240234 8.405349731445312 6.147489547729492 8.359477996826172 6.104108810424805 C 8.311286926269531 6.058549880981445 8.050350189208984 6.058549880981445 7.774089813232422 6.058549880981445 C 7.295570373535156 6.058547973632812 6.816928863525391 6.05723762512207 6.338409423828125 6.057239532470703 C 6.02642822265625 6.057239532470703 5.714580535888672 6.05780029296875 5.402629852294922 6.059638977050781 C 4.4239501953125 6.065330505371094 3.814949035644531 6.673028945922852 3.813270568847656 7.645589828491211 C 3.812160491943359 8.302188873291016 3.812637329101562 8.958789825439453 3.813117980957031 9.615379333496094 C 3.814048767089844 10.86557006835938 3.814998626708984 12.15832901000977 3.804340362548828 13.43020057678223 C 3.803028106689453 13.58388900756836 3.823829650878906 13.61457061767578 3.826210021972656 13.61756896972656 C 3.826820373535156 13.61795043945312 3.855506896972656 13.63983917236328 4.000579833984375 13.63983917236328 L 4.008247375488281 13.63982009887695 C 5.700607299804688 13.63182067871094 7.385646820068359 13.63078880310059 8.664569854736328 13.63078880310059 C 9.979751586914062 13.63078880310059 11.29474830627441 13.63199996948242 12.60993957519531 13.63199996948242 L 38.85737991333008 13.63199996948242 C 38.97245407104492 13.63199996948242 39.09089279174805 13.63199996948242 39.1446533203125 13.62285995483398 C 39.15348815917969 13.57003021240234 39.15348815917969 13.45470428466797 39.15348815917969 13.34263038635254 L 39.15367889404297 11.67058944702148 C 39.15390777587891 10.349609375 39.15412902832031 9.028659820556641 39.1530876159668 7.707710266113281 C 39.15219879150391 6.662870407104492 38.55485916137695 6.061988830566406 37.51422882080078 6.059139251708984 C 37.14663696289062 6.058164596557617 36.77891540527344 6.058605194091797 36.41123962402344 6.059049606323242 C 36.20494079589844 6.059309005737305 35.99863815307617 6.059558868408203 35.7923583984375 6.059558868408203 C 35.27392959594727 6.059558868408203 34.87837982177734 6.057868957519531 34.50983810424805 6.054079055786133 L 34.49971008300781 6.05402946472168 C 34.45322036743164 6.05402946472168 34.42600250244141 6.057443618774414 34.41089248657227 6.060531616210938 C 34.41019058227539 6.072160720825195 34.41030502319336 6.090520858764648 34.41352081298828 6.117639541625977 C 34.42942810058594 6.252159118652344 34.42920684814453 6.381219863891602 34.41288757324219 6.501270294189453 C 34.35576629638672 6.923099517822266 34.41344833374023 7.16431999206543 34.89574813842773 7.393930435180664 C 35.89109039306641 7.867898941040039 36.38039016723633 9.088949203491211 36.03392791748047 10.23419952392578 C 35.7158203125 11.28618049621582 34.7469596862793 11.99299049377441 33.6230583190918 11.99299049377441 Z M 33.65220642089844 10.48012924194336 C 33.91224670410156 10.48012924194336 34.15789031982422 10.37755012512207 34.34387969970703 10.19126892089844 C 34.52768707275391 10.00717926025391 34.62870025634766 9.765338897705078 34.6283073425293 9.510299682617188 C 34.62741088867188 8.984159469604492 34.18122100830078 8.539628982543945 33.65397644042969 8.539619445800781 L 33.64521789550781 8.53965950012207 C 33.12928771972656 8.544330596923828 32.68571853637695 8.983489990234375 32.67671966552734 9.498640060424805 C 32.67224884033203 9.750999450683594 32.77108001708984 9.9935302734375 32.95500946044922 10.18160057067871 C 33.13937759399414 10.37014007568359 33.39186096191406 10.47893905639648 33.64769744873047 10.4801197052002 L 33.65220642089844 10.48012924194336 Z M 9.170009613037109 10.48014068603516 C 9.700859069824219 10.48014068603516 10.14959716796875 10.03668022155762 10.14991760253906 9.511758804321289 C 10.15007781982422 9.258510589599609 10.04683685302734 9.016210556030273 9.859207153320312 8.829469680786133 C 9.671428680419922 8.642589569091797 9.427707672119141 8.539649963378906 9.172946929931641 8.539628982543945 L 9.165199279785156 8.53965950012207 C 8.648540496826172 8.544158935546875 8.204410552978516 8.982389450073242 8.195270538330078 9.496620178222656 C 8.190788269042969 9.750329971313477 8.289569854736328 9.993759155273438 8.473407745361328 10.18202972412109 C 8.659557342529297 10.3726692199707 8.904769897460938 10.47852897644043 9.163887023925781 10.4801197052002 L 9.170009613037109 10.48014068603516 Z"/>
    </g>
    <g id="Path_495" data-name="Path 495" class="cls-4" transform="translate(-2.252 -165.649)">
      <path class="cls-5" d="M 19.10739707946777 202.5009613037109 L 12.50561714172363 202.5009460449219 L 5.903797626495361 202.5009307861328 C 3.822017669677734 202.5009307861328 3.102827548980713 201.9988861083984 2.405887603759766 200.0592041015625 L 2.399997711181641 200.0428161621094 L 2.399997711181641 200.025390625 L 2.399997711181641 193.8707275390625 L 2.399997711181641 193.7699890136719 L 2.500717639923096 193.7707214355469 C 2.58114767074585 193.7713165283203 2.661777496337891 193.7739715576172 2.742407560348511 193.7766418457031 C 2.830257654190063 193.7795715332031 2.921107530593872 193.7825775146484 3.009317636489868 193.7825775146484 C 3.106677532196045 193.7825775146484 3.191167593002319 193.7788391113281 3.267617702484131 193.7711181640625 C 3.299617528915405 193.7679138183594 3.329727649688721 193.7662963867188 3.357167482376099 193.7662963867188 C 3.473287582397461 193.7662963867188 3.558797597885132 193.7955474853516 3.618597507476807 193.8557281494141 C 3.702697515487671 193.9403686523438 3.719247579574585 194.0654907226562 3.718217611312866 194.227294921875 C 3.709057569503784 195.6174926757812 3.710427522659302 197.0311889648438 3.711737632751465 198.3983306884766 L 3.712567567825317 199.4156188964844 C 3.713237524032593 200.5752716064453 4.329987525939941 201.188232421875 5.496147632598877 201.188232421875 C 10.82725715637207 201.1884918212891 16.15835762023926 201.1886444091797 21.48946762084961 201.1886444091797 C 26.82057762145996 201.1886444091797 32.15167617797852 201.1884918212891 37.4827766418457 201.1881408691406 C 38.64096832275391 201.1881408691406 39.25318908691406 200.5704345703125 39.25328826904297 199.4017791748047 L 39.25368881225586 197.0968475341797 C 39.2545166015625 192.9081115722656 39.25537872314453 188.5767517089844 39.24555587768555 184.3167572021484 C 39.2451171875 184.1220092773438 39.26499938964844 183.9720764160156 39.36348724365234 183.8733673095703 C 39.43896865844727 183.7976989746094 39.55188751220703 183.7624816894531 39.71883773803711 183.7624816894531 C 39.74093627929688 183.7624816894531 39.76415634155273 183.7630615234375 39.78865814208984 183.7642211914062 L 39.85653686523438 183.7673950195312 C 40.52607727050781 183.7984161376953 40.56585693359375 183.8420715332031 40.56585693359375 184.5458679199219 L 40.56593704223633 189.1076507568359 C 40.56601715087891 192.5289916992188 40.56610870361328 195.9503326416016 40.56575775146484 199.3716888427734 C 40.56554794311523 201.3015899658203 39.36999893188477 202.5005187988281 37.44563674926758 202.5006103515625 C 31.33327674865723 202.5009002685547 25.21978759765625 202.5009613037109 19.10739707946777 202.5009613037109 Z"/>
      <path class="cls-6" d="M 19.10739707946777 202.4009552001953 C 25.21978378295898 202.4009552001953 31.33327293395996 202.4008941650391 37.44563674926758 202.4006042480469 C 39.31999588012695 202.4005126953125 40.46555709838867 201.2508850097656 40.46575927734375 199.3716735839844 C 40.46625900268555 194.4297332763672 40.46585845947266 189.48779296875 40.46585845947266 184.5458679199219 C 40.46585845947266 183.8725280761719 40.46476745605469 183.8964996337891 39.78391647338867 183.8641052246094 C 39.41277694702148 183.8465881347656 39.34476470947266 183.9696044921875 39.34555816650391 184.3165283203125 C 39.35714721679688 189.3449554443359 39.35387802124023 194.3733825683594 39.35328674316406 199.4017944335938 C 39.35318756103516 200.620849609375 38.69253921508789 201.2881469726562 37.4827880859375 201.2881469726562 C 26.82057952880859 201.288818359375 16.15835762023926 201.2887268066406 5.496147632598877 201.2882385253906 C 4.278177738189697 201.2882385253906 3.613267660140991 200.6262054443359 3.612567663192749 199.4156646728516 C 3.611677646636963 197.6860198974609 3.6068274974823 195.9562835693359 3.618217706680298 194.2266540527344 C 3.61990761756897 193.9618682861328 3.570966958999634 193.8412170410156 3.277637481689453 193.8706207275391 C 3.020967483520508 193.8965148925781 2.759447336196899 193.8726043701172 2.499997615814209 193.8707275390625 L 2.499997615814209 200.025390625 C 3.178977489471436 201.9151000976562 3.874987602233887 202.4009246826172 5.903797626495361 202.4009246826172 C 10.30538463592529 202.4009246826172 14.70583534240723 202.4009552001953 19.10739707946777 202.4009552001953 M 19.10739707946777 202.6009521484375 L 5.903797626495361 202.6009216308594 C 3.791297674179077 202.6009216308594 3.019187688827515 202.0618438720703 2.311777591705322 200.093017578125 L 2.299997568130493 200.0602416992188 L 2.299997568130493 193.6692657470703 L 2.501447677612305 193.6707305908203 C 2.582727670669556 193.6713256835938 2.664217710494995 193.6740112304688 2.745697498321533 193.6767120361328 C 2.836747646331787 193.6797180175781 2.922757625579834 193.6825714111328 3.009317636489868 193.6825714111328 C 3.103267669677734 193.6825714111328 3.184477567672729 193.6790008544922 3.257597684860229 193.671630859375 C 3.292927503585815 193.6680908203125 3.326397657394409 193.6662902832031 3.357167482376099 193.6662902832031 C 3.501277685165405 193.6662902832031 3.609997510910034 193.7052001953125 3.68952751159668 193.7852478027344 C 3.804367542266846 193.9008178710938 3.81923770904541 194.0662994384766 3.818217515945435 194.2279205322266 C 3.809057712554932 195.6177673339844 3.810427665710449 197.0312805175781 3.811737537384033 198.3982391357422 L 3.812567710876465 199.4155578613281 C 3.813197612762451 200.5098266601562 4.395377635955811 201.0882415771484 5.496147632598877 201.0882415771484 C 16.15838813781738 201.0887603759766 26.82057571411133 201.0888519287109 37.4827766418457 201.0881500244141 C 38.57554626464844 201.0881500244141 39.1531982421875 200.5050048828125 39.15328598022461 199.4017791748047 L 39.1536865234375 197.0968170166016 C 39.15451812744141 192.9081420898438 39.15537643432617 188.5768585205078 39.14555740356445 184.3169860839844 C 39.14505767822266 184.0973205566406 39.16988754272461 183.9258117675781 39.29269790649414 183.802734375 C 39.41812896728516 183.6770172119141 39.59597778320312 183.6624755859375 39.71883773803711 183.6624755859375 C 39.74242782592773 183.6624755859375 39.76720809936523 183.6631011962891 39.79336929321289 183.6643218994141 L 39.86116790771484 183.6674957275391 C 40.21132659912109 183.6837310791016 40.40420913696289 183.6926574707031 40.53693771362305 183.8391265869141 C 40.66585922241211 183.9813995361328 40.66585922241211 184.1700286865234 40.66585922241211 184.5458679199219 L 40.66593933105469 189.1076507568359 C 40.66601943969727 192.5289916992188 40.66610717773438 195.9503479003906 40.66575622558594 199.3716888427734 C 40.66554641723633 201.3632659912109 39.43166732788086 202.6005096435547 37.44564819335938 202.6006011962891 C 31.33327674865723 202.6008911132812 25.21978759765625 202.6009521484375 19.10739707946777 202.6009521484375 Z"/>
    </g>
    <g id="Path_496" data-name="Path 496" class="cls-3" transform="translate(-2.252 -165.649)">
      <path class="cls-5" d="M 19.10739707946777 202.5009613037109 L 12.50561714172363 202.5009460449219 L 5.903797626495361 202.5009307861328 C 3.822017669677734 202.5009307861328 3.102827548980713 201.9988861083984 2.405887603759766 200.0592041015625 L 2.399997711181641 200.0428161621094 L 2.399997711181641 200.025390625 L 2.399997711181641 193.8707275390625 L 2.399997711181641 193.7699890136719 L 2.500717639923096 193.7707214355469 C 2.58114767074585 193.7713165283203 2.661777496337891 193.7739715576172 2.742407560348511 193.7766418457031 C 2.830257654190063 193.7795715332031 2.921107530593872 193.7825775146484 3.009317636489868 193.7825775146484 C 3.106677532196045 193.7825775146484 3.191167593002319 193.7788391113281 3.267617702484131 193.7711181640625 C 3.299617528915405 193.7679138183594 3.329727649688721 193.7662963867188 3.357167482376099 193.7662963867188 C 3.473287582397461 193.7662963867188 3.558797597885132 193.7955474853516 3.618597507476807 193.8557281494141 C 3.702697515487671 193.9403686523438 3.719247579574585 194.0654907226562 3.718217611312866 194.227294921875 C 3.709057569503784 195.6174926757812 3.710427522659302 197.0311889648438 3.711737632751465 198.3983306884766 L 3.712567567825317 199.4156188964844 C 3.713237524032593 200.5752716064453 4.329987525939941 201.188232421875 5.496147632598877 201.188232421875 C 10.82725715637207 201.1884918212891 16.15835762023926 201.1886444091797 21.48946762084961 201.1886444091797 C 26.82057762145996 201.1886444091797 32.15167617797852 201.1884918212891 37.4827766418457 201.1881408691406 C 38.64096832275391 201.1881408691406 39.25318908691406 200.5704345703125 39.25328826904297 199.4017791748047 L 39.25368881225586 197.0968475341797 C 39.2545166015625 192.9081115722656 39.25537872314453 188.5767517089844 39.24555587768555 184.3167572021484 C 39.2451171875 184.1220092773438 39.26499938964844 183.9720764160156 39.36348724365234 183.8733673095703 C 39.43896865844727 183.7976989746094 39.55188751220703 183.7624816894531 39.71883773803711 183.7624816894531 C 39.74093627929688 183.7624816894531 39.76415634155273 183.7630615234375 39.78865814208984 183.7642211914062 L 39.85653686523438 183.7673950195312 C 40.52607727050781 183.7984161376953 40.56585693359375 183.8420715332031 40.56585693359375 184.5458679199219 L 40.56593704223633 189.1076507568359 C 40.56601715087891 192.5289916992188 40.56610870361328 195.9503326416016 40.56575775146484 199.3716888427734 C 40.56554794311523 201.3015899658203 39.36999893188477 202.5005187988281 37.44563674926758 202.5006103515625 C 31.33327674865723 202.5009002685547 25.21978759765625 202.5009613037109 19.10739707946777 202.5009613037109 Z"/>
      <path class="cls-6" d="M 19.10739707946777 202.4009552001953 C 25.21978378295898 202.4009552001953 31.33327293395996 202.4008941650391 37.44563674926758 202.4006042480469 C 39.31999588012695 202.4005126953125 40.46555709838867 201.2508850097656 40.46575927734375 199.3716735839844 C 40.46625900268555 194.4297332763672 40.46585845947266 189.48779296875 40.46585845947266 184.5458679199219 C 40.46585845947266 183.8725280761719 40.46476745605469 183.8964996337891 39.78391647338867 183.8641052246094 C 39.41277694702148 183.8465881347656 39.34476470947266 183.9696044921875 39.34555816650391 184.3165283203125 C 39.35714721679688 189.3449554443359 39.35387802124023 194.3733825683594 39.35328674316406 199.4017944335938 C 39.35318756103516 200.620849609375 38.69253921508789 201.2881469726562 37.4827880859375 201.2881469726562 C 26.82057952880859 201.288818359375 16.15835762023926 201.2887268066406 5.496147632598877 201.2882385253906 C 4.278177738189697 201.2882385253906 3.613267660140991 200.6262054443359 3.612567663192749 199.4156646728516 C 3.611677646636963 197.6860198974609 3.6068274974823 195.9562835693359 3.618217706680298 194.2266540527344 C 3.61990761756897 193.9618682861328 3.570966958999634 193.8412170410156 3.277637481689453 193.8706207275391 C 3.020967483520508 193.8965148925781 2.759447336196899 193.8726043701172 2.499997615814209 193.8707275390625 L 2.499997615814209 200.025390625 C 3.178977489471436 201.9151000976562 3.874987602233887 202.4009246826172 5.903797626495361 202.4009246826172 C 10.30538463592529 202.4009246826172 14.70583534240723 202.4009552001953 19.10739707946777 202.4009552001953 M 19.10739707946777 202.6009521484375 L 5.903797626495361 202.6009216308594 C 3.791297674179077 202.6009216308594 3.019187688827515 202.0618438720703 2.311777591705322 200.093017578125 L 2.299997568130493 200.0602416992188 L 2.299997568130493 193.6692657470703 L 2.501447677612305 193.6707305908203 C 2.582727670669556 193.6713256835938 2.664217710494995 193.6740112304688 2.745697498321533 193.6767120361328 C 2.836747646331787 193.6797180175781 2.922757625579834 193.6825714111328 3.009317636489868 193.6825714111328 C 3.103267669677734 193.6825714111328 3.184477567672729 193.6790008544922 3.257597684860229 193.671630859375 C 3.292927503585815 193.6680908203125 3.326397657394409 193.6662902832031 3.357167482376099 193.6662902832031 C 3.501277685165405 193.6662902832031 3.609997510910034 193.7052001953125 3.68952751159668 193.7852478027344 C 3.804367542266846 193.9008178710938 3.81923770904541 194.0662994384766 3.818217515945435 194.2279205322266 C 3.809057712554932 195.6177673339844 3.810427665710449 197.0312805175781 3.811737537384033 198.3982391357422 L 3.812567710876465 199.4155578613281 C 3.813197612762451 200.5098266601562 4.395377635955811 201.0882415771484 5.496147632598877 201.0882415771484 C 16.15838813781738 201.0887603759766 26.82057571411133 201.0888519287109 37.4827766418457 201.0881500244141 C 38.57554626464844 201.0881500244141 39.1531982421875 200.5050048828125 39.15328598022461 199.4017791748047 L 39.1536865234375 197.0968170166016 C 39.15451812744141 192.9081420898438 39.15537643432617 188.5768585205078 39.14555740356445 184.3169860839844 C 39.14505767822266 184.0973205566406 39.16988754272461 183.9258117675781 39.29269790649414 183.802734375 C 39.41812896728516 183.6770172119141 39.59597778320312 183.6624755859375 39.71883773803711 183.6624755859375 C 39.74242782592773 183.6624755859375 39.76720809936523 183.6631011962891 39.79336929321289 183.6643218994141 L 39.86116790771484 183.6674957275391 C 40.21132659912109 183.6837310791016 40.40420913696289 183.6926574707031 40.53693771362305 183.8391265869141 C 40.66585922241211 183.9813995361328 40.66585922241211 184.1700286865234 40.66585922241211 184.5458679199219 L 40.66593933105469 189.1076507568359 C 40.66601943969727 192.5289916992188 40.66610717773438 195.9503479003906 40.66575622558594 199.3716888427734 C 40.66554641723633 201.3632659912109 39.43166732788086 202.6005096435547 37.44564819335938 202.6006011962891 C 31.33327674865723 202.6008911132812 25.21978759765625 202.6009521484375 19.10739707946777 202.6009521484375 Z"/>
    </g>
    <path id="Path_497" data-name="Path 497" class="cls-1" d="M167.4,151.3c.976,0,1.952.007,2.927,0,.246,0,.307.079.318.317a3.04,3.04,0,0,1-.3,1.46q-2.077,4.5-4.11,9.022c-.119.263-.219.3-.479.178-.684-.33-.69-.316-.368-1.021q1.925-4.225,3.849-8.45c.176-.387.175-.388-.254-.388-1.494,0-2.989-.005-4.483,0-.25,0-.34-.058-.338-.326.005-.792-.007-.792.8-.792H167.4" transform="translate(-147.896 -136.305)"/>
    <g id="Path_498" data-name="Path 498" class="cls-3" transform="translate(-147.896 -136.305)">
      <path class="cls-5" d="M 165.9785766601562 162.4376373291016 C 165.9050598144531 162.4376525878906 165.8221282958984 162.4135131835938 165.7097015380859 162.3593902587891 L 165.6718902587891 162.3411865234375 C 164.9720611572266 162.0044860839844 164.954345703125 161.9515991210938 165.2925415039062 161.2093963623047 C 166.5771484375 158.3903350830078 167.8599090576172 155.5735168457031 169.1424713134766 152.7566528320312 C 169.1852874755859 152.6626281738281 169.2293243408203 152.5659027099609 169.2409057617188 152.5189208984375 C 169.1928253173828 152.5097808837891 169.0846710205078 152.5097198486328 168.9795379638672 152.5096740722656 C 168.6488342285156 152.5095367431641 168.3180694580078 152.5092010498047 167.9873046875 152.5088653564453 C 167.5673522949219 152.5084381103516 167.1473846435547 152.5080108642578 166.7274932861328 152.5080108642578 C 165.8353424072266 152.5080108642578 165.1473846435547 152.5099945068359 164.4968719482422 152.5144348144531 L 164.4861145019531 152.5144653320312 C 164.370361328125 152.5144653320312 164.240478515625 152.5028381347656 164.15478515625 152.4166259765625 C 164.0675506591797 152.3288269042969 164.05712890625 152.1950378417969 164.0578002929688 152.0882873535156 L 164.0580291748047 152.0535278320312 C 164.0632629394531 151.2371215820312 164.1050872802734 151.1970977783203 164.9530792236328 151.1970977783203 L 167.3985595703125 151.1972198486328 C 167.6594848632812 151.1972351074219 167.9204559326172 151.1977691650391 168.1814270019531 151.1982879638672 C 168.4483642578125 151.1988372802734 168.7153015136719 151.1993713378906 168.9821929931641 151.1993713378906 C 169.5097198486328 151.1993713378906 169.9362030029297 151.1971130371094 170.3243865966797 151.1922760009766 L 170.3386383056641 151.1921844482422 C 170.6587371826172 151.1921844482422 170.7321624755859 151.3570861816406 170.7439117431641 151.6046905517578 C 170.7684478759766 152.1193084716797 170.6696014404297 152.5980224609375 170.4328002929688 153.1112365722656 C 168.961181640625 156.2994079589844 167.5295562744141 159.4608459472656 166.3232116699219 162.1329193115234 C 166.251708984375 162.2911834716797 166.1604766845703 162.4376220703125 165.9785766601562 162.4376373291016 Z"/>
      <path class="cls-6" d="M 170.3386383056641 151.2921752929688 C 170.3343811035156 151.2921752929688 170.3300170898438 151.2922058105469 170.3256378173828 151.2922668457031 C 169.3500518798828 151.3044281005859 168.3742828369141 151.2972869873047 167.3985443115234 151.2972106933594 C 166.5833587646484 151.2971038818359 165.7682647705078 151.2971038818359 164.9530792236328 151.2971038818359 C 164.1509704589844 151.2971038818359 164.1630554199219 151.2972106933594 164.1577911376953 152.0889129638672 C 164.1561279296875 152.3564605712891 164.2452850341797 152.416015625 164.4962005615234 152.4144287109375 C 165.9905700683594 152.4042510986328 167.4851226806641 152.4090881347656 168.9795837402344 152.40966796875 C 169.4086151123047 152.4098815917969 169.4095001220703 152.4115600585938 169.2334747314453 152.798095703125 C 167.9509124755859 155.6149597167969 166.6681518554688 158.4317932128906 165.3846893310547 161.2483520507812 C 165.0633392333984 161.9535827636719 165.0686798095703 161.939697265625 165.7530975341797 162.269287109375 C 166.0131530761719 162.3944702148438 166.1132965087891 162.3546752929688 166.2320709228516 162.0917663574219 C 167.5919189453125 159.0796813964844 168.9570007324219 156.0698547363281 170.3419952392578 153.0693359375 C 170.5612030029297 152.59423828125 170.668701171875 152.1270446777344 170.6440277099609 151.6094360351562 C 170.6329345703125 151.3758544921875 170.5735168457031 151.2921752929688 170.3386383056641 151.2921752929688 M 170.338623046875 151.0921783447266 L 170.3386383056641 151.0921783447266 C 170.7650146484375 151.0921630859375 170.8325805664062 151.363525390625 170.8437957763672 151.5999450683594 C 170.869140625 152.1312255859375 170.7673797607422 152.624755859375 170.5235900878906 153.1531219482422 C 169.0521240234375 156.3409881591797 167.62060546875 159.5021820068359 166.4143524169922 162.1740570068359 C 166.3651885986328 162.2828979492188 166.2500915527344 162.5376434326172 165.9785614013672 162.5376434326172 C 165.8892517089844 162.5376434326172 165.7929382324219 162.5104522705078 165.6663208007812 162.4494781494141 L 165.6285400390625 162.4312896728516 C 165.2669067382812 162.2573089599609 165.0677032470703 162.1614685058594 164.9995422363281 161.9559478759766 C 164.9333801269531 161.7564392089844 165.0230102539062 161.5597686767578 165.2015533447266 161.1679229736328 C 166.4861602783203 158.348876953125 167.7689056396484 155.5320587158203 169.0514526367188 152.7152099609375 C 169.0672912597656 152.680419921875 169.0839538574219 152.6438598632812 169.0987243652344 152.6102447509766 C 169.0608062744141 152.6097106933594 169.0191040039062 152.6096954345703 168.9794921875 152.6096801757812 C 168.2289581298828 152.6093597412109 167.4780731201172 152.6080169677734 166.7274932861328 152.6080169677734 C 165.8349304199219 152.6080169677734 165.1472015380859 152.6099853515625 164.49755859375 152.6144256591797 L 164.4861145019531 152.6144561767578 C 164.3497924804688 152.6144561767578 164.1953735351562 152.5993347167969 164.0838470458984 152.4871063232422 C 163.9706115722656 152.3731536865234 163.9570007324219 152.2137756347656 163.9577941894531 152.087646484375 L 163.9580230712891 152.0528869628906 C 163.9608154296875 151.6183166503906 163.9622192382812 151.4001770019531 164.1231231689453 151.2469482421875 C 164.2804565429688 151.0971069335938 164.5052490234375 151.0971069335938 164.9530792236328 151.0971069335938 L 167.3985748291016 151.0972137451172 C 167.9264068603516 151.0972442626953 168.4543914794922 151.099365234375 168.9821929931641 151.099365234375 C 169.5092926025391 151.099365234375 169.9353790283203 151.0971221923828 170.3231353759766 151.09228515625 L 170.338623046875 151.0921783447266 Z"/>
    </g>
    <path id="Path_499" data-name="Path 499" class="cls-1" d="M79.621,282.873c0-.914.007-1.828,0-2.742,0-.237.058-.324.307-.315.506.018,1.013,0,1.519.006a2.492,2.492,0,0,1,2.632,2.072,3.752,3.752,0,0,1-.239,2.6,2.422,2.422,0,0,1-2.231,1.457c-.555.017-1.112,0-1.667.02-.25.009-.313-.081-.31-.318.011-.926,0-1.853,0-2.779Zm1.114-.015h.005c0,.567,0,1.133,0,1.7,0,.1-.048.268.107.273a2.054,2.054,0,0,0,1.644-.345,2.6,2.6,0,0,0,.4-2.635,1.492,1.492,0,0,0-1.739-.917.317.317,0,0,1-.074,0c-.265-.043-.371.045-.357.336.025.529.007,1.059.007,1.589" transform="translate(-71.729 -252.096)"/>
    <path id="Path_500" data-name="Path 500" class="cls-1" d="M143.862,284.386c-.358,0-.716.011-1.073,0-.2-.009-.331.05-.383.252a1.066,1.066,0,0,1-.056.137c-.315.756-.312.751-1.081.421-.183-.079-.241-.145-.154-.351q1.1-2.623,2.181-5.256a.317.317,0,0,1,.328-.226c.74-.027.74-.034,1.029.666.652,1.583,1.3,3.168,1.962,4.746.106.252.068.352-.192.452-.716.276-.728.295-.994-.414a.541.541,0,0,0-.643-.428,8.388,8.388,0,0,1-.925.007m.021-3.306-.907,2.193c.567,0,1.083,0,1.6,0,.152,0,.2-.039.133-.193-.266-.632-.523-1.266-.826-2" transform="translate(-127.1 -251.676)"/>
    <path id="Path_501" data-name="Path 501" class="cls-1" d="M268.849,287.76a2.923,2.923,0,0,1-1.733-.716c-.16-.134-.189-.243,0-.369a1.136,1.136,0,0,0,.11-.1c.157-.14.293-.336.476-.4s.311.188.487.267a1.588,1.588,0,0,0,1.356.1.658.658,0,0,0,.439-.553.56.56,0,0,0-.388-.539c-.482-.219-.977-.409-1.465-.617a1.524,1.524,0,0,1-1.073-1.551,1.706,1.706,0,0,1,1.409-1.516,2.765,2.765,0,0,1,2.082.443c.147.092.192.182.05.314a1.612,1.612,0,0,0-.122.139c-.136.159-.243.379-.416.463-.19.092-.363-.144-.56-.2a1.391,1.391,0,0,0-1.01.008.489.489,0,0,0-.318.46c0,.212.14.324.33.4.346.131.686.276,1.029.415.069.028.138.052.207.081a1.794,1.794,0,0,1,1.333,1.966,2.045,2.045,0,0,1-2.222,1.515" transform="translate(-240.537 -253.804)"/>
    <path id="Path_502" data-name="Path 502" class="cls-1" d="M207.208,282.763c.438-.609.855-1.172,1.25-1.75.137-.2.234-.212.431-.07.657.474.662.465.188,1.125a3.966,3.966,0,0,0-1.312,4.03c-.006.757,0,.741-.759.757-.306.007-.368-.1-.361-.38.019-.728,0-1.457.017-2.185a1.082,1.082,0,0,0-.235-.712c-.478-.644-.937-1.3-1.412-1.949-.116-.158-.131-.243.05-.377.69-.507.683-.515,1.172.165.315.438.632.875.971,1.346" transform="translate(-184.627 -253.026)"/>
    <path id="Path_503" data-name="Path 503" class="cls-1" d="M165.621,71.928c0-.551,0-.551.581-.551.532,0,.538,0,.53.639-.007.554.109.471-.656.472-.537,0-.445.079-.455-.56" transform="translate(-149.214 -64.306)"/>
    <path id="Path_504" data-name="Path 504" class="cls-1" d="M188.634,72.491c-.547,0-.547,0-.546-.619,0-.494,0-.494.639-.494.475,0,.479,0,.473.659,0,.52.085.446-.565.454" transform="translate(-169.455 -64.307)"/>
    <path id="Path_505" data-name="Path 505" class="cls-1" d="M211.664,71.942c0,.552,0,.552-.617.551-.5,0-.5,0-.5-.633,0-.481,0-.484.652-.479.543,0,.452-.061.461.561" transform="translate(-189.693 -64.309)"/>
  </g>
</svg>
