<svg id="Capa_1" enable-background="new 0 0 512.022 512.022" height="512" viewBox="0 0 512.022 512.022" width="512" xmlns="http://www.w3.org/2000/svg"><g><path d="m316.971 231.462c-22.703 0-42.001-18.571-41.882-41.274.12-22.974 19.018-41.132 41.519-40.839 3.571.047 6.907-1.663 8.874-4.643 10.115-15.323 27.477-25.438 47.212-25.438 21.639 0 40.427 12.16 49.932 30.014 1.787 3.356 5.368 5.378 9.169 5.262 21.065-.639 39.202 16.127 39.554 37.811.35 21.506-17.856 39.107-39.365 39.107z" fill="#efedff"/><path d="m316.971 231.462h54.922c-15.92-31.643-32.873-60.817-50.242-83.302-1.528.796-3.256 1.213-5.044 1.19-22.5-.293-41.399 17.865-41.519 40.839-.118 22.702 19.18 41.273 41.883 41.273z" fill="#d4d4ff"/><path d="m413.016 432.207c-29.531-77.767-110.086-295.948-173.59-295.948s-144.06 218.181-173.59 295.948z" fill="#4dc176"/><path d="m239.426 492.572c-22.117-50.006-82.447-190.301-130.008-190.301-31.545 0-68.707 61.716-96.611 117.871-16.559 33.323 7.769 72.43 44.98 72.43z" fill="#79ce6f"/><path d="m104.887 492.572h134.539c-13.325-30.129-40.525-93.026-70.444-138.275-21.717 42.621-42.051 88.245-64.095 138.275z" fill="#4dc176"/><path d="m115.497 180.642c13.811 0 25.551-11.298 25.478-25.109-.073-13.976-11.569-25.022-25.257-24.844-2.172.028-4.202-1.011-5.398-2.824-6.153-9.322-16.716-15.475-28.721-15.475-13.164 0-24.593 7.397-30.376 18.259-1.087 2.042-3.266 3.271-5.578 3.201-12.815-.389-23.848 9.811-24.063 23.002-.213 13.083 10.862 23.79 23.947 23.79z" fill="#d4d4ff"/><path d="m454.281 492.572c36.765 0 61.029-38.216 45.425-71.505-42.033-89.669-106.143-208.984-159.392-208.984-70.102 0-159.024 206.784-191.622 280.489z" fill="#79ce6f"/><path d="m315.721 79.811-76.295 21.805v-76.233l76.295 21.805c16.404 4.687 16.404 27.935 0 32.623z" fill="#ebca5f"/><g><g fill="#fff"><ellipse cx="260.757" cy="408.83" rx="29.355" ry="23.377"/><ellipse cx="419.871" cy="408.83" rx="29.355" ry="23.377"/></g></g><path d="m45.53 188.141h69.968c17.812 0 33.073-14.528 32.978-32.647-.092-17.918-14.626-32.222-32.262-32.307-7.829-11.47-20.719-18.297-34.614-18.297-15.221 0-29.149 8.195-36.567 21.449-17.004 0-30.674 13.585-30.948 30.391-.284 17.397 14.296 31.411 31.445 31.411zm-.113-46.795c5.115.153 10.023-2.659 12.426-7.173 9.581-17.996 34.938-19.263 46.218-2.175 2.52 3.815 6.801 6.23 11.755 6.191 9.619-.111 17.609 7.64 17.659 17.383.051 9.763-8.444 17.569-17.978 17.569h-69.967c-8.801 0-16.595-7.194-16.448-16.168.145-8.987 7.668-15.887 16.335-15.627zm461.08 276.538c-40.12-85.589-75.645-144.943-107.235-178.922h32.721c25.52 0 47.284-20.858 46.864-46.729-.422-25.999-22.125-45.937-47.282-45.186-.968.048-1.886-.476-2.319-1.29-1.774-3.332-3.86-6.531-6.201-9.508-2.56-3.256-7.275-3.819-10.531-1.26-3.256 2.56-3.82 7.275-1.26 10.532 1.794 2.282 3.393 4.733 4.751 7.285 3.094 5.812 9.346 9.439 16.017 9.235 16.743-.536 31.541 12.807 31.828 30.437.286 17.537-14.789 31.485-31.866 31.485h-48.341c-15.403-12.948-29.818-19.379-43.329-19.379-5.817 0-11.784 1.185-17.906 3.528-9.907-17.02-19.419-31.26-28.582-42.754 6.216-5.568 14.236-8.618 22.684-8.508 6.159.085 11.867-2.915 15.23-8.011 11.862-17.968 33.644-25.849 53.85-20.358 4.002 1.089 8.119-1.273 9.205-5.27 1.087-3.997-1.272-8.118-5.27-9.205-26.312-7.152-54.78 3.054-70.304 26.57-.568.86-1.543 1.305-2.516 1.274-12.176-.139-23.698 4.212-32.658 12.157-13.032-13.917-25.358-22.031-37.121-24.459v-22.275l70.855-20.25c23.66-6.761 23.675-40.28 0-47.046l-70.855-20.25v-.276c0-4.142-3.357-7.5-7.5-7.5s-7.5 3.358-7.5 7.5v110.092c-18.765 3.838-38.796 21.993-60.971 55.2-17.84 26.716-37.344 63.79-58.005 110.249-23.493-2.601-45.138 21.775-59.218 40.678-14.599 19.599-30.628 46.897-47.643 81.137-16.082 32.365 1.326 69.488 33.055 80.232 3.9 1.321 8.174-.754 9.509-4.699 1.329-3.923-.774-8.181-4.698-9.509-23.186-7.85-36.439-35.183-24.432-59.349 21.102-42.466 60.841-113.708 89.895-113.708 24.635 0 57.074 52.199 75.373 85.741-15.288 31.491-27.736 59.536-40.986 89.56h-66.098c-4.143 0-7.5 3.358-7.5 7.5s3.357 7.5 7.5 7.5h376.574c42.272-.003 70.14-43.954 52.216-82.191zm-259.571-382.558 66.734 19.072c9.172 2.621 9.154 15.585 0 18.201l-66.734 19.072zm-119.605 264.267c16.769-37.588 70.965-155.834 112.105-155.834 12.928 0 35.364 12.562 69.6 71.178-45.567 28.901-91.662 115.198-116.173 164.209-24.364-43.095-46.008-69.4-65.532-79.553zm326.96 185.479h-294.08c25.251-57.212 115.774-265.49 180.112-265.49 55.12 0 129.515 155.417 152.602 204.667 13.304 28.38-7.438 60.823-38.634 60.823zm-51.518-118.245c-4.143 0-7.5 3.358-7.5 7.5v12c0 4.142 3.357 7.5 7.5 7.5 4.142 0 7.5-3.358 7.5-7.5v-12c0-4.142-3.358-7.5-7.5-7.5zm-124.898 0c-4.143 0-7.5 3.358-7.5 7.5v12c0 4.142 3.357 7.5 7.5 7.5s7.5-3.358 7.5-7.5v-12c0-4.142-3.357-7.5-7.5-7.5zm83.841 13.489c-3.122-2.722-7.86-2.397-10.581.726-2.73 3.132-6.671 4.929-10.812 4.929s-8.08-1.796-10.81-4.928c-2.723-3.122-7.46-3.447-10.582-.727-3.122 2.722-3.448 7.459-.727 10.582 5.579 6.401 13.641 10.073 22.118 10.073s16.539-3.671 22.118-10.072c2.724-3.123 2.399-7.861-.724-10.583z"/></g></svg>