<svg xmlns="http://www.w3.org/2000/svg" version="1.1" xmlns:xlink="http://www.w3.org/1999/xlink" xmlns:svgjs="http://svgjs.com/svgjs" width="512" height="512" x="0" y="0" viewBox="0 0 512.539 512.539" style="enable-background:new 0 0 512 512" xml:space="preserve" class=""><g><path d="M140.225 425.073c-10.633-29.902-5.375-64.024 13.563-89.45 17.232-23.136 44.34-37.967 72.908-41.128 19.012-2.104 38.54.86 56.065 8.526-11.717-30.623-7.203-65.305 10.403-92.754 8.034-12.525 18.702-21.037 30.479-29.711 12.668-9.331 29.242-14.761 44.678-16.899 30.292-4.196 61.947 3.727 86.382 22.166 24.796 18.711 40.213 47.525 43.264 78.338 3.069 30.983-6.015 61.328-22.149 87.636a190.191 190.191 0 0 1-6.36 9.689s-26.272 30.741-36.398 39.583C337.625 484.4 204.125 512.9 78.125 502.9c-5-1-9-2-13-5-3-3-6-8-8-12-1-2-2-4-4-7-18-27-26-55-32-86-4-16-5-32-6-48-1-19 0-37 2-56 3-19 6.204-36.708 10-55 5.5-26.5 16.804-54.646 16.804-54.646C51.125 156.9 63.125 135.9 70.125 113.9c-1-15-1-31 5-46 2-5 3-10 6-15l3-3c13-23 37-36 62-40 17-2 33-3 49-2 9 1 17 6 23 13 11 15 14 32 19 49 1 4 1 8-1 11-1 2-2 5-3 7-9 13-25 16-38 23-11 5-23-2-27-13l-3-3-3.378.161s-4.771 16.305-39.738 30.264l.732 5.615c51.075 109.576 27.555 211.135 27.555 211.135" style="" fill="#ffc83d" data-original="#f9cfbf" class=""></path><path d="M140.125 420.899s3-66 11-83c11-59 3.753-138.014-28.384-206.96l-.732-5.615c.116-.425-24.884 2.575-36 0l.732 5.615c44.384 82.96 52.319 291.389 53.384 289.96zM226.696 294.495c-2.001.221-3.993.506-5.976.841 8.951 1.481 17.723 4.047 26.041 7.685a97.417 97.417 0 0 1-2.96-9.055c-5.703-.266-11.427-.1-17.105.529zM182.125 20.899c11 15 14 32 19 49 1 4 1 8-1 11-1 2-2 5-3 7-6.118 8.837-15.47 13.053-24.916 17.045 5.56 6.597 14.527 9.768 22.916 5.955 13-7 29-10 38-23 1-2 2-5 3-7 2-3 2-7 1-11-5-17-8-34-19-49-6-7-14-12-23-13-10.959-.685-21.926-.416-33.206.454 7.859 1.627 14.835 6.28 20.206 12.546zM497.967 264.161c-3.052-30.813-18.469-59.627-43.264-78.338-24.435-18.44-56.09-26.362-86.382-22.166-.637.088-1.279.191-1.919.29 18.86 2.904 36.997 10.327 52.301 21.876 24.796 18.711 40.213 47.525 43.264 78.338 3.069 30.983-6.015 61.328-22.149 87.636a190.191 190.191 0 0 1-6.36 9.689s-26.272 30.741-36.398 39.583c-78.88 68.875-183.763 100.29-288.923 103.471 116.865 3.507 237.035-26.731 324.923-103.471 10.126-8.842 36.398-39.583 36.398-39.583a190.191 190.191 0 0 0 6.36-9.689c16.134-26.309 25.218-56.653 22.149-87.636z" style="" fill="#ffc83d" data-original="#f6b99c" class=""></path><path d="M170.125 7.899c9 1 17 6 23 13 11 15 14 32 19 49 1 4 1 8-1 11-1 2-2 5-3 7-2.019 2.916-4.39 5.329-7 7.397-7.436 5.891-16.815 8.982-25.527 12.923 5.451 4.254 12.682 5.791 19.527 2.68 13-7 29-10 38-23 1-2 2-5 3-7 2-3 2-7 1-11-5-17-8-34-19-49-6-7-14-12-23-13-8.521-.533-17.047-.485-25.719-.034.239.015.479.019.719.034zM282.125 300.899s-79.289-30.224-131 37c-10 13-24 48-11 88 0 0 2.359-56.092 52-95 37-29 90-30 90-30z" style="" fill="#ffc83d" data-original="#f6b99c" class=""></path><path d="M189.125 66.899s-12-11-24-2-12 19-3 31 17 17 23 17 17.755-2.316 28-10c8-6-3-16-3-16s-20.461 20.724-34-5c-10-19 13-15 13-15z" style="" fill="#ffc83d" data-original="#f6b99c" class=""></path><path d="M428.124 395.421c-44.853 39.194-99.756 67.624-163.186 84.502-55.504 14.768-117.617 20.265-180.018 15.96-5.791-.4-11.223-3.023-15.103-7.341-11.516-12.815-19.54-29.37-26.259-45.075-7.987-18.669-13.116-38.209-16.576-58.186-7.37-42.561-4.91-85.113 2.549-127.488 1.631-9.266 4.149-18.097 6.561-27.147 1.462-5.488 1.356-13.015-6.303-12.74-7.595.272-9.083 10.8-10.582 16.535-2.844 10.882-4.323 22.035-6.449 33.072C1.125 327.899 1.125 421.899 52.943 492.89c5.631 7.714 11.042 14.431 20.669 16.706 16.827 3.977 36.375 2.771 53.589 2.771 49.25 0 96.704-6.004 141.593-17.949 65.673-17.475 122.6-46.982 169.2-87.703 7.268-6.352-2.549-17.686-9.87-11.294z" fill="#000000" data-original="#000000" class=""></path><path d="M505.431 263.422c-3.314-33.459-20.157-63.925-46.211-83.586-52.6-39.693-135.596-30.951-172.368 26.381-16.395 25.56-21.848 56.277-15.531 84.716a117.46 117.46 0 0 0-45.45-3.893c-24.249 2.684-46.772 12.92-64.198 28.789.976-10.404 1.691-23.37 1.498-38.328-.464-35.956-6.55-90.577-32.674-147.629 18.558-8.279 28.313-17.232 33.347-23.706 3.257 5.271 8.02 9.434 13.656 11.802 12.63 5.306 23.529-1.76 34.906-6.658 10.269-4.421 20.356-9.709 26.886-19.142 7.665-11.072 5.667-21.781 2.373-33.896-3.812-14.026-7.754-28.53-17.492-41.808a7.21 7.21 0 0 0-.354-.446C216.196 7.125 206.3 1.595 195.953.445a7.281 7.281 0 0 0-.36-.031c-14.918-.933-30.445-.304-50.344 2.037a6.552 6.552 0 0 0-.309.043C115.543 7.197 93.789 24.458 78.117 45.3c-16.993 22.599-16.445 53.497-15.569 67.654-3.341 10.184-7.727 20.1-12.359 30.572-4.766 10.775-9.694 21.917-13.4 33.43-2.934 9.116 11.297 13.862 14.278 4.596 7.207-22.389 19.07-42.958 26.204-65.378 1.845-5.799-7.147-36.274 14.144-63.86 14.561-18.866 31.725-31.103 55.742-34.984 18.81-2.207 33.419-2.811 47.307-1.957 6.419.763 12.718 4.375 17.782 10.195 7.966 10.974 11.356 23.443 14.942 36.638 2.634 9.695 3.632 12.678-.556 21.882-5.165 7.107-13.3 10.24-20.972 13.787-6.943 3.21-16.408 10.006-24.121 5.356-3.948-2.38-4.761-5.808-7.09-9.361-3.479-5.309-11.823-12.774-8.417-20.056 3.069-6.561 10.88-4.877 15.9-2.32 4.936 2.515 12.218 5.634 15.512-.875 3.408-6.733-3.812-9.999-8.701-12.49-4.874-2.484-10.933-5.571-19.264-3.55-8.076 1.667-14.511 6.661-17.265 13.398-4.305 9.837-.461 18.69 3.235 25.239l-.903-.264s.017-.073.066-.211c-1.669 4.64-11.214 15.966-35.387 25.616-2.93 1.17-4.786 4.119-4.669 7.238.086 2.274.458 6.524 1.384 8.511 25.732 55.205 31.726 108.284 32.222 143.09.429 30.064-3.05 52.054-4.529 59.963-16.986 26.654-21.068 60.642-10.477 90.424 3.214 9.04 17.378 4.102 14.133-5.025-12.221-34.367-1.037-73.7 26.305-97.174 29.106-24.989 71.087-30.837 106.159-15.495 5.945 2.603 12.33-3.488 10.011-9.551-7.937-20.742-7.831-44.041-.548-64.949 7.297-20.949 21.076-36.085 38.873-48.798 35.549-25.393 88.166-20.387 122.094 5.215 22.721 17.146 37.416 43.786 40.318 73.091 2.712 27.375-4.578 56.068-21.079 82.976a183.611 183.611 0 0 1-6.109 9.306c-5.539 7.906 6.71 16.566 12.285 8.606 2.32-3.312 4.545-6.7 6.611-10.071 18.229-29.718 26.258-61.633 23.222-92.292z" fill="#000000" data-original="#000000" class=""></path></g></svg>