<?xml version="1.0" encoding="iso-8859-1"?>
<!-- Generator: Adobe Illustrator 19.0.0, SVG Export Plug-In . SVG Version: 6.00 Build 0)  -->
<svg version="1.1" id="Capa_1" xmlns="http://www.w3.org/2000/svg" xmlns:xlink="http://www.w3.org/1999/xlink" x="0px" y="0px"
	 viewBox="0 0 512 512" style="enable-background:new 0 0 512 512;" xml:space="preserve">
<g>
	<path style="fill:#DFD7D5;" d="M256.029,90c-8.291,0-15-6.709-15-15V15c0-8.291,6.709-15,15-15s15,6.709,15,15v60
		C271.029,83.291,264.32,90,256.029,90z"/>
	<path style="fill:#DFD7D5;" d="M179.095,93.809l-42.422-27.422c-6.958-4.497-8.95-13.784-4.453-20.742
		c4.512-6.958,13.77-8.979,20.742-4.453l42.422,27.422c6.958,4.497,8.95,13.784,4.453,20.742
		C195.339,96.309,186.053,98.299,179.095,93.809z"/>
</g>
<path style="fill:#FFD400;" d="M391.029,121h-135h-135c-2.862,0-5.502,0.961-7.853,2.433l8.322,99.754L166.029,256l75.469-38.438
	L346.029,256l45-35.156l7.853-97.41C396.533,121.961,393.891,121,391.029,121z"/>
<path style="fill:#FDBF00;" d="M346.029,256l45-35.156l7.854-97.41c-2.349-1.472-4.992-2.433-7.854-2.433h-135v101.906L346.029,256z
	"/>
<path style="fill:#DFD7D5;" d="M312.22,89.355c-4.497-6.958-2.505-16.245,4.453-20.742l42.422-27.422
	c6.958-4.541,16.23-2.505,20.742,4.453c4.497,6.958,2.505,16.245-4.453,20.742l-42.422,27.422
	C326.004,98.299,316.718,96.309,312.22,89.355z"/>
<path style="fill:#FDBF00;" d="M480.344,248.046l-76.6-120c-1.223-1.956-2.966-3.424-4.861-4.612L346.029,256l-90-135l-90,135
	l-52.853-132.567c-1.895,1.188-3.638,2.657-4.861,4.612l-76.4,120c-1.485,2.369-1.902,5.176-1.831,7.954l44.071,45h343.75l64.017-45
	C481.953,253.123,481.686,250.186,480.344,248.046z"/>
<path style="fill:#FF9F00;" d="M417.903,301l64.017-45c0.033-2.877-0.234-5.814-1.576-7.954l-76.6-120
	c-1.223-1.956-2.966-3.424-4.861-4.612L346.029,256l-90-135v180H417.903z"/>
<polygon style="fill:#FFD400;" points="346.029,256 166.029,256 148.216,357.25 256.029,512 356.81,377.875 "/>
<polygon style="fill:#FDBF00;" points="346.029,256 256.029,256 256.029,512 356.81,377.875 "/>
<path style="fill:#FF9F00;" d="M30.083,256c0.106,4.125,1.516,8.181,3.94,10.605l211.4,241c2.93,2.93,6.768,4.395,10.605,4.395
	l-90-256H30.083z"/>
<path style="fill:#FF7816;" d="M346.029,256l-90,256c3.838,0,7.676-1.465,10.605-4.395l211.6-241
	c2.677-2.677,3.64-6.643,3.686-10.605H346.029z"/>
<g>
</g>
<g>
</g>
<g>
</g>
<g>
</g>
<g>
</g>
<g>
</g>
<g>
</g>
<g>
</g>
<g>
</g>
<g>
</g>
<g>
</g>
<g>
</g>
<g>
</g>
<g>
</g>
<g>
</g>
</svg>
