<svg clip-rule="evenodd" fill-rule="evenodd" height="512" image-rendering="optimizeQuality" shape-rendering="geometricPrecision" text-rendering="geometricPrecision" viewBox="0 0 173.397 173.397" width="512" xmlns="http://www.w3.org/2000/svg"><g id="Layer_x0020_1"><g id="_428291936"><g><path id="_428294192" d="m92.3915 74.1632c-.4587 0-.9175-.1855-1.2491-.5514-4.4624-4.8824-5.8806-11.7929-3.7003-18.0364 2.0192-5.7731 6.7942-10.0778 12.6641-11.519.1382-5.3638 3.0797-10.3947 7.7749-13.1059 5.1328-2.9635 11.6166-2.7267 16.52.6011.7726.5254.9736 1.5784.4516 2.3521-.5252.7735-1.5806.9751-2.3531.4501-3.8343-2.6038-8.9073-2.7886-12.9251-.4704-4.0135 2.3177-6.3924 6.8035-6.0534 11.4272.0634.8764-.554 1.6565-1.4219 1.7952-5.2978.8464-9.6903 4.52-11.4576 9.586-1.7711 5.0664-.621 10.6743 2.9983 14.6358.6328.6902.5822 1.7614-.1056 2.3922-.3236.2966-.7338.4434-1.1428.4434z"/><path id="_428294672" d="m141.451 46.506c-.0492 0-.1-.0017-.1494-.0063-.9299-.0818-1.6225-.902-1.5413-1.8336.4494-5.1131-2.8291-9.7877-7.7857-11.1159-4.955-1.3279-10.1312 1.083-12.3011 5.7334-.394.8473-1.4038 1.2133-2.2503.8181-.8456-.3955-1.2136-1.4031-.8184-2.2506 2.8683-6.1424 9.7008-9.3263 16.2484-7.5721 6.5437 1.7535 10.8722 7.9283 10.283 14.681-.077.8809-.8184 1.5461-1.6852 1.546z"/><path id="_428293376" d="m82.2573 123.448c-5.0196 0-9.917-1.8449-13.7446-5.3054-.6946-.6277-.7478-1.6979-.1236-2.3917.6289-.6933 1.7005-.7479 2.3917-.121 4.3108 3.8923 10.2338 5.3387 15.8498 3.8662 6.5021-1.7057 10.2444-4.2098 14.2094-6.8612 7.7197-5.1629 15.0066-10.039 40.3632-8.1094 1.002.0756 1.979.2223 2.9207.3641 2.5755.3854 4.7976.719 6.7522-.4254 3.2254-1.891 5.0162-5.5109 4.5576-9.2234-.4542-3.7122-3.0689-6.7915-6.6567-7.844-.898-.2638-1.4112-1.204-1.15-2.1016.2646-.8974 1.203-1.412 2.1023-1.1481 4.8866 1.4333 8.4453 5.6259 9.0665 10.6806.6205 5.054-1.8172 9.9843-6.2088 12.5584-2.9841 1.7479-6.0254 1.2932-8.9638.8527-.8844-.1334-1.7992-.2695-2.6775-.3366-24.1887-1.8391-31.008 2.7198-38.222 7.5478-4.0204 2.6896-8.1806 5.4717-15.2324 7.3219-1.7353.4539-3.4922.6766-5.234.6761z"/><path id="_428293520" d="m66.8877 123.038c-2.6495 0-5.2962-.6838-7.6525-2.0503-4.6518-2.7024-7.5635-7.7231-7.5883-13.1045-.0066-.9355.7478-1.6972 1.6828-1.7021.0046-.0001.007 0 .0106 0 .9319-.0001 1.6861.7525 1.6931 1.6848.0216 4.1855 2.2825 8.0914 5.9018 10.1928 3.6206 2.1005 8.1348 2.1286 11.7787.0706.8156-.4608 1.8485-.1719 2.3073.642.4594.814.1728 1.8474-.6422 2.3071-2.3131 1.3064-4.9034 1.9599-7.4927 1.9599z"/><path id="_428294096" d="m49.4402 117.177c-3.3941 0-6.7817-.8337-9.8014-2.4684-4.895-2.6479-8.5509-7.2425-10.0324-12.606-.2504-.9016.2786-1.834 1.1815-2.083.9-.2496 1.8346.2801 2.0816 1.1813 1.2391 4.4791 4.293 8.3175 8.3816 10.529 4.0855 2.2119 8.9707 2.668 13.3979 1.253.8902-.2848 1.8415.2068 2.1271 1.0975.287.8901-.208 1.8436-1.0971 2.1286-2.0274.6473-4.1345.9683-6.2402.9683z"/><path id="_428293544" d="m30.8275 112.475c-3.8098 0-7.5429-1.7254-9.9944-4.9053-3.6862-4.7844-3.4538-11.5354.554-16.0535.6206-.7002 1.6931-.7638 2.3915-.1429.6992.6198.762 1.6908.1448 2.3903-2.9317 3.3037-3.1045 8.2406-.4096 11.7386 2.6991 3.4987 7.5141 4.5909 11.458 2.5975.8339-.4227 1.8519-.0875 2.2753.747.4206.8344.0846 1.8532-.7478 2.2754-1.8047.914-3.7498 1.3535-5.6718 1.3529z"/><path id="_428293808" d="m20.0218 99.9972c-.1906 0-.3812-.0311-.5682-.0978-6.0038-2.1342-10.0466-7.6278-10.297-13.9952-.2532-6.3683 3.3444-12.1629 9.1578-14.7649.858-.382 1.8555.0007 2.2397.8541.382.853-.0034 1.8555-.8569 2.2372-4.5425 2.0328-7.3554 6.5631-7.1576 11.5399.199 4.9758 3.3545 9.27 8.0499 10.9379.88.3131 1.3406 1.2816 1.0268 2.1627-.2468.6935-.8996 1.1268-1.5945 1.1261z"/><path id="_428293784" d="m23.5142 78.2405c-.2176 0-.4376-.0414-.6492-.1299-5.0022-2.0798-7.8245-7.4355-6.7169-12.7355 1.0972-5.2314 5.7222-8.976 11.0488-8.976.0716-.0001.141.0007.2116.0021.9363.0168 1.6755.789 1.6615 1.7239-.0172.9241-.7724 1.6622-1.6931 1.6622-.01 0-.0212 0-.0318-.0004-.048-.0012-.0988-.0014-.1482-.0014-3.7287-.0006-6.9672 2.6215-7.7327 6.2835-.7758 3.7096 1.1995 7.4592 4.6988 8.9146.8656.359 1.2737 1.3505.9138 2.2141-.2704.6507-.8998 1.0431-1.5626 1.0428z"/><path id="_428293424" d="m22.6712 60.92c-.7333 0-1.4077-.4797-1.6229-1.2188-2.0139-6.897.8996-14.2632 7.0869-17.9148 6.1878-3.6517 14.0437-2.6423 19.1093 2.4544.6608.6627.656 1.7355-.0072 2.3948-.6624.6586-1.7355.6561-2.3951-.0078-3.9711-3.9975-10.1314-4.7885-14.9854-1.9247-4.8536 2.8633-7.14 8.6406-5.5596 14.0489.2614.8972-.254 1.8379-1.1502 2.1-.1584.0458-.3176.0684-.4758.068z"/><path id="_428293712" d="m37.8965 43.1089c-.0588 0-.1236-.0029-.1872-.0099-.9272-.1028-1.598-.9387-1.496-1.8683.7908-7.2028 6.6074-12.8678 13.8287-13.4705 7.2211-.605 13.8918 4.0184 15.8706 10.9897.2544.8992-.2678 1.8361-1.1676 2.091-.9019.2543-1.8379-.268-2.0919-1.1674-1.5341-5.417-6.7233-9.0049-12.3323-8.5387-5.608.4683-10.128 4.8702-10.742 10.466-.095.8668-.829 1.5084-1.6823 1.5081z"/><path id="_428293400" d="m90.6772 32.7684c-.5636 0-1.1187-.2826-1.4397-.7973-3.2481-5.2096-8.8543-8.3195-14.9925-8.3195-6.1413 0-11.7469 3.1102-14.9958 8.3193-.494.7935-1.5383 1.0365-2.3319.5407-.7923-.4949-1.0335-1.5394-.5398-2.3327 3.8701-6.2082 10.5514-9.9136 17.8675-9.9136 7.317-.0004 13.9943 3.7059 17.8676 9.9134.4949.7934.2503 1.8381-.5434 2.3329-.2778.1734-.5852.2569-.892.2568z"/><path id="_428293976" d="m85.0972 41.5484c-.1032 0-.2094-.0091-.315-.0293-.9199-.1739-1.5243-1.0594-1.3511-1.9784 1.0835-5.7144 5.1996-10.3485 10.7452-12.0947 5.5492-1.7466 11.5775-.305 15.7366 3.76.6675.6535.6809 1.726.0284 2.3945-.6562.6687-1.7286.6804-2.3953.0273-3.2661-3.1914-7.9971-4.3214-12.3538-2.9515-4.3532 1.3705-7.5845 5.0085-8.4312 9.4939-.154.8124-.8676 1.3787-1.665 1.3787z"/><path id="_428292968" d="m114.062 153.132c-2.1795 0-4.3598-.3108-6.4837-.9327-.6628-.1951-1.143-.7757-1.21-1.4661-1.2452-13.2185-10.7488-24.2119-23.6459-27.3561-.9091-.2223-1.4675-1.1378-1.2451-2.046.2234-.9091 1.1393-1.4655 2.0459-1.2443 13.9138 3.3911 24.2666 15.0214 26.087 29.1461 3.0631.7132 6.2405.6823 9.2952-.0942 2.9575-5.9465 3.9971-12.7933 2.9279-19.3668-.1516-.9237.4764-1.7931 1.4007-1.9433.9242-.152 1.792.4763 1.9402 1.3995 1.2287 7.5343-.053 15.3964-3.6055 22.1362-.2106.4049-.582.7062-1.0193.835-2.1234.6215-4.3039.9331-6.4874.9327z"/><path id="_428292632" d="m123.718 131.194c-9.7832 0-19.802-6.0803-24.8076-15.4345-1.0493-1.9645 1.9346-3.5614 2.9845-1.5978 4.879 9.115 15.5604 14.8808 24.8522 13.4114 10.1532-1.6073 18.2837-10.3536 19.3313-20.7983.2197-2.2128 3.5871-1.8778 3.369.3376-.5779 5.7864-3.0975 11.3478-7.0833 15.6596-4.021 4.3494-9.38 7.2429-15.0878 8.1461-1.177.1854-2.3671.2765-3.5595.2765z"/><path id="_428293280" d="m150.968 66.0085c-.1906 0-.3884-.0329-.5788-.1032-.8786-.3214-1.33-1.2936-1.009-2.172 1.7782-4.8659.5608-10.3758-3.1008-14.0393-3.6647-3.6634-9.1753-4.8798-14.0401-3.1001-.8778.3209-1.8519-.1298-2.1729-1.0082-.321-.8791.1304-1.8506 1.0089-2.172 6.0992-2.232 13.0065-.7062 17.5994 3.8857 4.5902 4.592 6.1169 11.4992 3.8838 17.5977-.2492.686-.8994 1.1119-1.5905 1.1114z"/><path id="_428293256" d="m154.57 90.9201c-.6587 0-1.2915-.3912-1.5631-1.0409-.3592-.864.0492-1.8549.91-2.215 4.763-1.9882 7.5705-6.9411 6.8333-12.0466-.7368-5.1063-4.8366-9.0614-9.9624-9.6191-.9308-.1011-1.6014-.9366-1.5026-1.8665.1034-.9301.9418-1.6012 1.8662-1.5004 6.6681.7243 11.9903 5.8655 12.9499 12.5013.1029.7109.1525 1.4196.152 2.1214v.0648c-.0295 5.8238-3.5273 11.1725-9.0313 13.4702-.2108.0888-.4338.1312-.652.1308z"/><path id="_428293208" d="m68.2657 108.88c-.786 0-1.4924-.5495-1.658-1.3493-1.0995-5.3052.5292-10.7603 4.3603-14.5917 3.8346-3.8321 9.288-5.4614 14.5938-4.3612.915.1894 1.5027 1.0865 1.3122 2.0018-.1862.9156-1.0864 1.5033-2.0002 1.3142-4.1866-.8685-8.4876.4184-11.5107 3.4398-3.0195 3.0217-4.3071 7.3248-3.4395 11.5093.1914.9157-.3986 1.8121-1.3123 2.0019-.1156.0233-.2328.0356-.3456.0352z"/><path id="_428292848" d="m123.205 73.9322c-1.5587 0-3.1324-.3042-4.6386-.9311-.8631-.3595-1.2699-1.3506-.9103-2.2139.3565-.8641 1.3475-1.2713 2.2119-.9122 3.2467 1.3514 6.9493.6191 9.4364-1.8675 2.4871-2.4864 3.2207-6.1903 1.8695-9.4361-.3585-.8636.046-1.8546.9102-2.2143.8648-.3598 1.8557.0486 2.2155.9121 1.8813 4.5168.8608 9.6726-2.6001 13.1328-2.3065 2.3078-5.369 3.5305-8.4945 3.5302z"/><path id="_428293160" d="m123.721 90.082c-.8475 0-1.5779-.6329-1.6799-1.494-.109-.9292.5536-1.7704 1.4851-1.8802 3.3475-.396 6.1028-2.7463 7.0198-5.9899.9187-3.2434-.1976-6.6898-2.8431-8.7807-.7292-.5806-.8572-1.6449-.2752-2.3782.5796-.7344 1.6439-.858 2.3777-.2781 3.7228 2.9424 5.2912 7.7941 4 12.3595-1.2899 4.5651-5.1712 7.8744-9.8844 8.4307-.0666.0078-.1338.0116-.2008.0116z"/><path id="_428292824" d="m66.3114 70.9486c-.8428 0-1.5736-.6281-1.6792-1.4856-.7827-6.3675 2.2999-12.5525 7.8561-15.7594 5.556-3.2083 12.4525-2.7833 17.5745 1.078 1.7771 1.3419-.2652 4.0455-2.0387 2.7039-4.035-3.0431-9.4684-3.3753-13.8427-.8494-4.3776 2.5258-6.8047 7.3982-6.1873 12.4128.1128.9274-.5468 1.7732-1.4748 1.8875-.0696.0082-.1373.0127-.2079.0122z"/><path id="_428293136" d="m45.3398 78.0214c-.6952 0-1.3476-.4301-1.5948-1.1218-2.3167-6.463.3176-13.6453 6.2618-17.0781 5.9482-3.4336 13.4859-2.1226 17.9239 3.1146.6032.7135.515 1.7818-.1978 2.3864-.7118.605-1.7813.5168-2.3881-.1968-3.3781-3.9882-9.1155-4.9849-13.6413-2.3713-4.5286 2.6136-6.5333 8.0822-4.7694 13.0025.3154.8795-.1448 1.8499-1.023 2.1653-.1901.0675-.3809.0998-.5713.0992z"/><path id="_428292896" d="m66.213 99.6757c-3.0271 0-5.9832-1.3302-7.9977-3.7901-2.9873-3.6534-3.1219-8.8589-.3244-12.6603.5548-.7534 1.6155-.9147 2.3671-.3602.7564.5536.9136 1.614.3598 2.3674-1.88 2.554-1.7886 6.0539.2188 8.509 2.0111 2.4545 5.4218 3.237 8.297 1.9008.848-.3947 1.8556-.0258 2.2506.8223.3929.8474.0246 1.8551-.8258 2.2492-1.396.6484-2.8783.9623-4.3454.9619z"/><path id="_428293016" d="m100.106 97.031c-.1588 0-.3175-.003-.4727-.0094-.9336-.0382-1.6618-.8266-1.6266-1.7606.0404-.935.8362-1.6616 1.7638-1.6232 3.0134.1207 5.8313-1.4265 7.3413-4.0433 1.5139-2.6175 1.4463-5.8287-.1694-8.382-.501-.7909-.2646-1.8362.5258-2.3364.7909-.5007 1.8377-.2645 2.3351.5253 2.2943 3.6204 2.3847 8.1753.2436 11.8864-2.0624 3.5732-5.8418 5.7433-9.9409 5.7432z"/></g><g fill="#fe5694"><path id="_428292080" d="m122.024 131.134c-8.6616-.612-17.2707-5.854-22.1955-13.7843-2.8057 1.7719-5.9561 3.4785-10.2497 4.823 10.7965 4.8828 18.4862 15.0732 20.031 27.06 3.0632.7132 6.2406.6823 9.2953-.0942 2.7537-5.5369 3.8447-11.8541 3.1189-18.0045z"/><path id="_428291816" d="m102.662 115.492c5.167 8.3387 15.2537 13.4782 24.0853 12.0816 9.5768-1.5161 17.354-9.3836 19.0853-19.0369-.7411-.0772-1.4784-.1878-2.2093-.2973-.8844-.1335-1.799-.2695-2.6774-.3366-24.1887-1.839-31.0081 2.7198-38.222 7.5478-.0206.0137-.0412.0276-.0619.0414z"/><path id="_428292464" d="m85.0972 41.5484-.0012.0005c.0004-.0005.0008-.0005.0012-.0005zm15.7429 71.0869c7.7196-5.163 15.0066-10.039 40.3631-8.1094 1.0021.0756 1.979.2223 2.9207.3641 2.5755.3854 4.7976.7189 6.7522-.4254 3.2254-1.891 5.0162-5.5109 4.5576-9.2234-.2241-1.8313-.9739-3.5085-2.1068-4.8643-.0336-.0361-.0656-.0739-.0961-.1132-1.1534-1.3366-2.6854-2.3478-4.4538-2.8665-.898-.2638-1.4112-1.204-1.15-2.1016.2646-.8974 1.2029-1.412 2.1023-1.1481 2.0018.5872 3.7808 1.6373 5.2262 3.0201 4.1257-2.2358 6.4764-6.8277 5.7946-11.55-.7357-5.0992-4.8253-9.0505-9.941-9.6167-.0071-.0008-.0143-.0015-.0214-.0024-.0606-.0064-.1214-.0163-.182-.0297-.0726-.0161-.1451-.0372-.2166-.0629-.7157-.2606-1.188-.9831-1.104-1.7739.0179-.1609.0578-.314.1163-.4568 1.7473-4.8516.5251-10.3323-3.122-13.9812-3.6646-3.6635-9.1752-4.8798-14.04-3.1001-.8778.3209-1.852-.1298-2.173-1.0082-.3209-.8791.1304-1.8505 1.0091-2.172 2.8206-1.0323 5.8142-1.2608 8.6718-.7539-.4374-4.2889-3.474-7.9578-7.7725-9.1096-2.6386-.7071-5.34-.354-7.6167.833-.0687.0433-.1402.0815-.2136.1145-1.904 1.0488-3.4928 2.6899-4.4708 4.786-.394.8471-1.4038 1.2131-2.2503.818-.8456-.3955-1.2136-1.403-.8184-2.2506.8705-1.8642 2.1063-3.456 3.5883-4.7198-3.4021-1.3541-7.325-1.1275-10.5691.7235-.0315.0197-.0636.0381-.096.0555-3.9854 2.3254-6.3447 6.7944-6.0071 11.4003.0634.8764-.554 1.6565-1.4219 1.7952-5.2978.8464-9.6903 4.52-11.4575 9.586-1.7712 5.0664-.6211 10.6743 2.9982 14.6357.6327.6903.5822 1.7615-.1057 2.3923-.3235.2966-.7337.4434-1.1426.4434-.4588 0-.9176-.1855-1.2492-.5514-4.167-4.5592-5.6795-10.8868-4.0861-16.7884-3.9077-2.4154-8.8415-2.5162-12.8749-.1873-2.9779 1.7182-5.0532 4.5223-5.8815 7.7183-.0118.0606-.0269.1206-.0452.1797-.3527 1.449-.4502 2.9752-.2606 4.5148.1127.9274-.5468 1.7732-1.4748 1.8875-.0696.0082-.1374.0127-.208.0122-.8427 0-1.5735-.6281-1.6791-1.4857-.2061-1.6769-.1442-3.3412.1604-4.9416-3.4262-3.4787-8.8013-4.243-13.089-1.7669-4.5287 2.6137-6.5334 8.0822-4.7695 13.0026.3154.8794-.1448 1.8498-1.0229 2.1652-.1902.0675-.381.0998-.5714.0992-.6952 0-1.3476-.4301-1.5948-1.1219-2.3167-6.4628.3177-13.6452 6.2618-17.078 5.1196-2.9554 11.4169-2.3958 15.9016 1.1569 1.3435-2.9918 3.6079-5.5594 6.5799-7.2748 4.9287-2.846 10.9122-2.833 15.7761-.0983 2.333-4.7742 6.6609-8.2769 11.8418-9.5488.1179-4.5746 2.2746-8.9068 5.8193-11.7645-3.1057-2.1463-7.0531-2.7729-10.7332-1.6157-1.2584.3962-2.4231.9819-3.4635 1.7227-.0408.0324-.0834.0632-.1279.0923-2.4909 1.8221-4.248 4.5435-4.84 7.6789-.1538.8119-.8668 1.3781-1.6637 1.3787-.0004 0-.0008 0-.0012-.0005-.1027-.0001-.2085-.0092-.3138-.0293-.92-.1738-1.5243-1.0594-1.3511-1.9784.6575-3.4672 2.4313-6.5366 4.9634-8.8047-3.3253-4.4622-8.5132-7.0843-14.1494-7.0843-5.5795 0-10.7169 2.5671-14.0465 6.9431 2.6928 1.9478 4.7547 4.7756 5.714 8.1552.2543.8991-.2678 1.836-1.1676 2.0908-.9019.2545-1.8379-.268-2.0919-1.1673-1.5341-5.417-6.7234-9.0049-12.3324-8.5387-5.081.4244-9.2691 4.0778-10.4678 8.9228 2.7305.67 5.2991 2.0779 7.3916 4.1832.6608.6627.6559 1.7354-.0072 2.3949-.6623.6585-1.7355.6561-2.3951-.0078-1.9627-1.9759-4.4604-3.1683-7.0707-3.5234-.0207-.0014-.0415-.0033-.0623-.0056-.0417-.0046-.0829-.0107-.1235-.0182-2.6141-.3151-5.3309.2076-7.729 1.6224-4.2995 2.5364-6.5844 7.3595-5.9515 12.1871 1.0468-.3201 2.1532-.4911 3.2917-.4911.0715-.0001.1409.0007.2116.0021.9363.0167 1.6755.789 1.6615 1.7239-.0172.9241-.7724 1.6623-1.6931 1.6623l-.0319-.0005-.1481-.0014c-3.7286-.0006-6.9672 2.6216-7.7327 6.2834-.7758 3.7097 1.1995 7.4593 4.6988 8.9147.8656.359 1.2737 1.3505.9137 2.214-.2703.6509-.8998 1.0432-1.5624 1.0429-.2177 0-.4377-.0413-.6492-.1299-1.7544-.7294-3.2406-1.8618-4.3833-3.2533-3.8217 2.2482-6.1216 6.3969-5.9421 10.9132.1732 4.3322 2.5876 8.1477 6.3082 10.1631.5231-1.5928 1.3707-3.0999 2.5392-4.4172.6206-.7002 1.6932-.7638 2.3915-.1429.6992.6198.762 1.6909.1448 2.3904-2.9317 3.3036-3.1045 8.2405-.4095 11.7384 2.2409 2.905 5.9405 4.1509 9.389 3.3492-1.4922-2.015-2.6207-4.3018-3.2965-6.7487-.2504-.9016.2786-1.834 1.1815-2.083.9-.2497 1.8346.2801 2.0815 1.1813 1.2392 4.4791 4.2931 8.3175 8.3817 10.529 3.5074 1.899 7.6042 2.5038 11.4948 1.7415-.7058-1.7548-1.0901-3.6482-1.099-5.5885-.0066-.9354.7478-1.6971 1.6828-1.702.0045-.0001.0069 0 .0106 0 .9319-.0001 1.6861.7525 1.6931 1.6848.0216 4.1855 2.2825 8.0914 5.9018 10.1928 2.7249 1.5808 5.9558 1.9879 8.941 1.2152-.4677-.3553-.9228-.7324-1.3635-1.131-.6946-.6276-.7478-1.6977-.1237-2.3916.6291-.6933 1.7006-.7479 2.3918-.121 1.0624.9593 2.2227 1.7699 3.4521 2.425.0686.0303.1353.0652.1996.1047 2.623 1.3534 5.55 2.0052 8.5074 1.888.0691-.0075.1391-.0108.2096-.0095 1.1622-.0604 2.3281-.2397 3.4811-.5419 6.5021-1.7058 10.2444-4.2099 14.2095-6.8613zm9.2072-21.3475c-2.0623 3.5731-5.8419 5.7433-9.9409 5.7432-.1587 0-.3175-.003-.4727-.0094-.9336-.0382-1.6618-.8266-1.6266-1.7606.0404-.935.8362-1.6616 1.7638-1.6232 3.0134.1207 5.8313-1.4265 7.3412-4.0434 1.5141-2.6175 1.4464-5.8286-.1693-8.3819-.501-.7908-.2647-1.8362.5258-2.3364.791-.5007 1.8377-.2645 2.3351.5253 2.2942 3.6204 2.3846 8.1753.2436 11.8864zm11.9939-2.6997c-.109-.9293.5536-1.7705 1.4852-1.8803 3.3474-.396 6.1027-2.7463 7.0196-5.9898.8165-2.8823.0259-5.9249-2.0169-8.0341-1.6578.8229-3.48 1.2485-5.3239 1.2483-1.5588 0-3.1325-.3042-4.6387-.931-.8631-.3596-1.27-1.3507-.9103-2.214.3565-.8641 1.3475-1.2713 2.2118-.9122 2.6359 1.0971 5.572.821 7.9145-.6523.0398-.028.0806-.054.1222-.0783.4975-.3247.9671-.7042 1.3999-1.1369 2.487-2.4864 3.2205-6.1904 1.8694-9.4361-.3586-.8636.046-1.8546.9102-2.2144.8648-.3597 1.8557.0487 2.2155.9123 1.8813 4.5166.8608 9.6725-2.6001 13.1327-.1159.1159-.2336.2291-.3532.3396 2.5915 2.9448 3.5548 7.0248 2.4591 10.8987-1.2899 4.5652-5.1711 7.8745-9.8844 8.4308-.0665.0078-.1338.0115-.2.0108-.8475 0-1.578-.6328-1.6799-1.4938zm-48.6781 6.7458c-.787.7876-1.4563 1.6622-2.0005 2.5991-.0283.0568-.0599.1121-.0945.1656-1.4709 2.6229-1.9726 5.7149-1.3445 8.7447.1914.9157-.3986 1.8121-1.3124 2.0019-.1156.0233-.2327.0356-.3455.0352-.786 0-1.4923-.5495-1.658-1.3493-.5521-2.6643-.4163-5.3663.3411-7.8815-.2454.0175-.4909.0262-.7359.0261-3.027 0-5.9832-1.3301-7.9976-3.79-2.9873-3.6535-3.1219-8.859-.3244-12.6604.5548-.7535 1.6155-.9148 2.3671-.3601.7563.5535.9136 1.6139.3597 2.3674-1.8799 2.554-1.7885 6.0538.2189 8.509 1.9036 2.3233 5.0612 3.1485 7.8319 2.0968.6442-1.0386 1.4129-2.0123 2.2995-2.899 3.8347-3.8321 9.288-5.4614 14.5938-4.3612.915.1894 1.5028 1.0865 1.3122 2.0018-.1862.9156-1.0864 1.5032-2.0002 1.3142-4.1867-.8685-8.4876.4183-11.5107 3.4397z"/></g></g></g></svg>