<svg id="Filled_Expand" height="512" viewBox="0 0 64 64" width="512" xmlns="http://www.w3.org/2000/svg" data-name="Filled Expand"><path d="m7 14h50a3 3 0 0 1 3 3v45a0 0 0 0 1 0 0h-56a0 0 0 0 1 0 0v-45a3 3 0 0 1 3-3z" fill="#e7edfa" transform="matrix(-1 0 0 -1 64 76)"/><path d="m6 61a2.9657 2.9657 0 0 0 .14.86 2.9657 2.9657 0 0 0 .86.14h50a3 3 0 0 0 3-3v-45h-54z" fill="#f2f7ff"/><path d="m60 14h-56v-9a3 3 0 0 1 3-3h50a3 3 0 0 1 3 3z" fill="#468fe8"/><path d="m9 4a3 3 0 0 0 -3 3v7h54v-9a2.9657 2.9657 0 0 0 -.14-.86 2.9657 2.9657 0 0 0 -.86-.14z" fill="#64a0fa"/><circle cx="10" cy="8" fill="#f03a5a" r="2"/><circle cx="18" cy="8" fill="#ffd24a" r="2"/><circle cx="26" cy="8" fill="#78d7e6" r="2"/><path d="m11 20h10v10h-10z" fill="#f03a5a"/><path d="m27 20h10v10h-10z" fill="#78d7e6"/><path d="m43 20h10v10h-10z" fill="#ffd24a"/><path d="m11 41h10v10h-10z" fill="#ffd24a"/><path d="m27 41h10v10h-10z" fill="#64a0fa"/><path d="m43 41h10v10h-10z" fill="#696e82"/><path d="m11 30.75h10a.75.75 0 0 0 .75-.75v-10a.75.75 0 0 0 -.75-.75h-10a.75.75 0 0 0 -.75.75v10a.75.75 0 0 0 .75.75zm.75-10h8.5v8.5h-8.5z"/><path d="m27 30.75h10a.75.75 0 0 0 .75-.75v-10a.75.75 0 0 0 -.75-.75h-10a.75.75 0 0 0 -.75.75v10a.75.75 0 0 0 .75.75zm.75-10h8.5v8.5h-8.5z"/><path d="m43 30.75h10a.75.75 0 0 0 .75-.75v-10a.75.75 0 0 0 -.75-.75h-10a.75.75 0 0 0 -.75.75v10a.75.75 0 0 0 .75.75zm.75-10h8.5v8.5h-8.5z"/><path d="m11 35.75h10a.75.75 0 0 0 0-1.5h-10a.75.75 0 0 0 0 1.5z"/><path d="m27 35.75h10a.75.75 0 0 0 0-1.5h-10a.75.75 0 0 0 0 1.5z"/><path d="m43 35.75h10a.75.75 0 0 0 0-1.5h-10a.75.75 0 0 0 0 1.5z"/><path d="m11 51.75h10a.75.75 0 0 0 .75-.75v-10a.75.75 0 0 0 -.75-.75h-10a.75.75 0 0 0 -.75.75v10a.75.75 0 0 0 .75.75zm.75-10h8.5v8.5h-8.5z"/><path d="m27 51.75h10a.75.75 0 0 0 .75-.75v-10a.75.75 0 0 0 -.75-.75h-10a.75.75 0 0 0 -.75.75v10a.75.75 0 0 0 .75.75zm.75-10h8.5v8.5h-8.5z"/><path d="m43 51.75h10a.75.75 0 0 0 .75-.75v-10a.75.75 0 0 0 -.75-.75h-10a.75.75 0 0 0 -.75.75v10a.75.75 0 0 0 .75.75zm.75-10h8.5v8.5h-8.5z"/><path d="m11 56.75h10a.75.75 0 0 0 0-1.5h-10a.75.75 0 0 0 0 1.5z"/><path d="m27 56.75h10a.75.75 0 0 0 0-1.5h-10a.75.75 0 0 0 0 1.5z"/><path d="m43 56.75h10a.75.75 0 0 0 0-1.5h-10a.75.75 0 0 0 0 1.5z"/><path d="m57 1.25h-50a3.7544 3.7544 0 0 0 -3.75 3.75v54a3.7547 3.7547 0 0 0 3.75 3.75h50a3.7547 3.7547 0 0 0 3.75-3.75v-54a3.7544 3.7544 0 0 0 -3.75-3.75zm-50 1.5h50a2.2528 2.2528 0 0 1 2.25 2.25v8.25h-54.5v-8.25a2.2528 2.2528 0 0 1 2.25-2.25zm52.25 56.25a2.2531 2.2531 0 0 1 -2.25 2.25h-50a2.2531 2.2531 0 0 1 -2.25-2.25v-44.25h54.5z"/><path d="m10 10.75a2.75 2.75 0 1 0 -2.75-2.75 2.7528 2.7528 0 0 0 2.75 2.75zm0-4a1.25 1.25 0 1 1 -1.25 1.25 1.2511 1.2511 0 0 1 1.25-1.25z"/><path d="m18 10.75a2.75 2.75 0 1 0 -2.75-2.75 2.7528 2.7528 0 0 0 2.75 2.75zm0-4a1.25 1.25 0 1 1 -1.25 1.25 1.2511 1.2511 0 0 1 1.25-1.25z"/><path d="m26 10.75a2.75 2.75 0 1 0 -2.75-2.75 2.7528 2.7528 0 0 0 2.75 2.75zm0-4a1.25 1.25 0 1 1 -1.25 1.25 1.2511 1.2511 0 0 1 1.25-1.25z"/></svg>