<svg height="512pt" viewBox="0 0 512 512" width="512pt" xmlns="http://www.w3.org/2000/svg"><path d="m504 119.976562c-.003906-59.777343-46.945312-109.015624-106.652344-111.867187-59.707031-2.855469-111.132812 41.683594-116.835937 101.183594-5.703125 59.503906 36.324219 113 95.488281 121.539062v49.144531h32v-49.144531c55.070312-8.023437 95.929688-55.207031 96-110.855469zm0 0" fill="#eee"/><path d="m360 279.976562h64v224h-64zm0 0" fill="#ff8a65"/><path d="m472 119.976562c0 44.183594-35.816406 80-80 80s-80-35.816406-80-80c0-44.183593 35.816406-80 80-80s80 35.816407 80 80zm0 0" fill="#9fa8da"/><g fill="#ffe082"><path d="m24 391.976562h64v112h-64zm0 0"/><path d="m136 311.976562h64v192h-64zm0 0"/><path d="m248 247.976562h64v256h-64zm0 0"/></g><path d="m416.34375 111.632812-24.34375-24.34375-24.34375 24.34375-11.3125-11.3125 35.65625-35.65625 35.65625 35.65625zm0 0" fill="#fff"/><path d="m384 79.976562h16v88h-16zm0 0" fill="#fff"/><path d="m432 271.976562h-16v-34.402343c60.359375-12.320313 101.585938-68.34375 95.390625-129.636719-6.191406-61.289062-57.785156-107.9375-119.390625-107.9375s-113.199219 46.648438-119.390625 107.9375c-6.195313 61.292969 35.03125 117.316406 95.390625 129.636719v34.402343h-16v224h-32v-256h-80v256h-32v-192h-80v192h-32v-112h-80v112h-16v16h512v-16h-80zm-352 224h-48v-96h48zm112 0h-48v-176h48zm112 0h-48v-240h48zm-16-376c0-55.507812 43.589844-101.230468 99.035156-103.878906 55.441406-2.652344 103.195313 38.707032 108.492188 93.957032 5.292968 55.253906-33.734375 104.929687-88.671875 112.855468l-6.855469.984375v48.082031h-16v-48.082031l-6.855469-.984375c-51.0625-7.582031-88.933593-51.3125-89.144531-102.933594zm128 376h-48v-208h48zm0 0"/><path d="m480 119.976562c0-48.601562-39.398438-88-88-88s-88 39.398438-88 88c0 48.601563 39.398438 88 88 88 48.578125-.058593 87.941406-39.421874 88-88zm-160 0c0-39.765624 32.234375-72 72-72s72 32.234376 72 72c0 39.761719-32.234375 72-72 72-39.746094-.046874-71.957031-32.253906-72-72zm0 0"/><path d="m115.128906 271.976562h56.183594l68.6875-68.6875v20.6875h16v-48h-48v16h20.6875l-64 64h-55.816406l-106.304688 98.125 10.867188 11.746094zm0 0"/><path d="m464 271.976562h48v16h-48zm0 0"/><path d="m464 303.976562h48v16h-48zm0 0"/><path d="m464 335.976562h48v16h-48zm0 0"/><path d="m464 367.976562h48v16h-48zm0 0"/><path d="m464 399.976562h48v16h-48zm0 0"/><path d="m464 431.976562h48v16h-48zm0 0"/><path d="m464 463.976562h48v16h-48zm0 0"/></svg>