<?xml version="1.0" encoding="UTF-8" standalone="no"?>
<!-- Created with Inkscape (http://www.inkscape.org/) -->

<svg
   version="1.1"
   id="svg3279"
   xml:space="preserve"
   width="682.66669"
   height="682.66669"
   viewBox="0 0 682.66669 682.66669"
   xmlns="http://www.w3.org/2000/svg"
   xmlns:svg="http://www.w3.org/2000/svg"><defs
     id="defs3283"><clipPath
       clipPathUnits="userSpaceOnUse"
       id="clipPath3293"><path
         d="M 0,512 H 512 V 0 H 0 Z"
         id="path3291" /></clipPath></defs><g
     id="g3285"
     transform="matrix(1.3333333,0,0,-1.3333333,0,682.66667)"><g
       id="g3287"><g
         id="g3289"
         clip-path="url(#clipPath3293)"><g
           id="g3295"
           transform="translate(7.5002,459.1318)"><path
             d="M 0,0 C 0,25.056 20.312,45.368 45.368,45.368 70.424,45.368 90.737,25.056 90.737,0 90.737,-25.057 70.424,-45.369 45.368,-45.369 20.312,-45.369 0,-25.057 0,0"
             style="fill:#f8e883;fill-opacity:1;fill-rule:nonzero;stroke:none"
             id="path3297" /></g><g
           id="g3299"
           transform="translate(52.8684,504.5)"><path
             d="m 0,0 c -7.249,0 -14.096,-1.708 -20.174,-4.732 14.931,-7.427 25.195,-22.829 25.195,-40.637 0,-17.806 -10.264,-33.209 -25.195,-40.636 6.078,-3.023 12.925,-4.732 20.174,-4.732 25.056,0 45.369,20.312 45.369,45.368 C 45.369,-20.312 25.056,0 0,0"
             style="fill:#ffd549;fill-opacity:1;fill-rule:nonzero;stroke:none"
             id="path3301" /></g><g
           id="g3303"
           transform="translate(7.5002,52.8682)"><path
             d="M 0,0 C 0,25.057 20.312,45.369 45.368,45.369 70.424,45.369 90.737,25.057 90.737,0 90.737,-25.056 70.424,-45.368 45.368,-45.368 20.312,-45.368 0,-25.056 0,0"
             style="fill:#f8e883;fill-opacity:1;fill-rule:nonzero;stroke:none"
             id="path3305" /></g><g
           id="g3307"
           transform="translate(52.8684,98.2368)"><path
             d="m 0,0 c -7.249,0 -14.096,-1.709 -20.174,-4.732 14.931,-7.427 25.195,-22.83 25.195,-40.637 0,-17.807 -10.264,-33.209 -25.195,-40.636 6.078,-3.023 12.925,-4.732 20.174,-4.732 25.056,0 45.369,20.312 45.369,45.368 C 45.369,-20.312 25.056,0 0,0"
             style="fill:#ffd549;fill-opacity:1;fill-rule:nonzero;stroke:none"
             id="path3309" /></g><g
           id="g3311"
           transform="translate(413.7634,52.8682)"><path
             d="M 0,0 C 0,25.057 20.312,45.369 45.368,45.369 70.425,45.369 90.736,25.057 90.736,0 90.736,-25.056 70.425,-45.368 45.368,-45.368 20.312,-45.368 0,-25.056 0,0"
             style="fill:#f8e883;fill-opacity:1;fill-rule:nonzero;stroke:none"
             id="path3313" /></g><g
           id="g3315"
           transform="translate(459.1315,98.2368)"><path
             d="m 0,0 c -7.249,0 -14.096,-1.709 -20.174,-4.732 14.931,-7.427 25.195,-22.83 25.195,-40.637 0,-17.807 -10.264,-33.209 -25.195,-40.636 6.078,-3.023 12.925,-4.732 20.174,-4.732 25.057,0 45.368,20.312 45.368,45.368 C 45.368,-20.312 25.057,0 0,0"
             style="fill:#ffd549;fill-opacity:1;fill-rule:nonzero;stroke:none"
             id="path3317" /></g><g
           id="g3319"
           transform="translate(413.7634,459.1318)"><path
             d="M 0,0 C 0,25.056 20.312,45.368 45.368,45.368 70.425,45.368 90.736,25.056 90.736,0 90.736,-25.057 70.425,-45.369 45.368,-45.369 20.312,-45.369 0,-25.057 0,0"
             style="fill:#f8e883;fill-opacity:1;fill-rule:nonzero;stroke:none"
             id="path3321" /></g><g
           id="g3323"
           transform="translate(459.1315,504.5)"><path
             d="m 0,0 c -7.249,0 -14.096,-1.708 -20.174,-4.732 14.931,-7.427 25.195,-22.829 25.195,-40.637 0,-17.806 -10.264,-33.209 -25.195,-40.636 6.078,-3.023 12.925,-4.732 20.174,-4.732 25.057,0 45.368,20.312 45.368,45.368 C 45.368,-20.312 25.057,0 0,0"
             style="fill:#ffd549;fill-opacity:1;fill-rule:nonzero;stroke:none"
             id="path3325" /></g><g
           id="g3327"
           transform="translate(360.2272,390.0005)"><path
             d="m 0,0 h -208.455 c -15.073,0 -27.292,-12.219 -27.292,-27.292 v -47.397 c 0,-15.073 12.219,-27.292 27.292,-27.292 15.073,0 27.293,12.219 27.293,27.292 v 20.104 h 50.644 v -158.831 h -26.043 c -15.073,0 -27.293,-12.219 -27.293,-27.292 0,-15.074 12.22,-27.293 27.293,-27.293 h 109.148 c 15.073,0 27.292,12.219 27.292,27.293 0,15.073 -12.219,27.292 -27.292,27.292 h -28.52 v 158.831 h 48.641 v -20.104 c 0,-15.073 12.219,-27.292 27.292,-27.292 15.073,0 27.293,12.219 27.293,27.292 v 47.397 C 27.293,-12.219 15.073,0 0,0"
             style="fill:#ea7b45;fill-opacity:1;fill-rule:nonzero;stroke:none"
             id="path3329" /></g><g
           id="g3331"
           transform="translate(312.8141,176.5845)"><path
             d="m 0,0 h -26.898 c 15.073,0 27.293,-12.219 27.293,-27.292 0,-15.074 -12.22,-27.292 -27.293,-27.292 H 0 c 15.073,0 27.292,12.218 27.292,27.292 C 27.292,-12.219 15.073,0 0,0"
             style="fill:#e76833;fill-opacity:1;fill-rule:nonzero;stroke:none"
             id="path3333" /></g><g
           id="g3335"
           transform="translate(360.2272,390)"><path
             d="M 0,0 H -26.897 C -11.824,0 0.395,-12.219 0.395,-27.292 v -47.396 c 0,-10.179 -5.583,-19.04 -13.843,-23.732 3.971,-2.256 8.553,-3.561 13.448,-3.561 15.073,0 27.293,12.219 27.293,27.293 v 47.396 C 27.293,-12.219 15.073,0 0,0"
             style="fill:#e76833;fill-opacity:1;fill-rule:nonzero;stroke:none"
             id="path3337" /></g><g
           id="g3339"
           transform="translate(52.8684,102.4194)"><path
             d="M 0,0 V 308.545"
             style="fill:none;stroke:#000000;stroke-width:15;stroke-linecap:round;stroke-linejoin:round;stroke-miterlimit:10;stroke-dasharray:none;stroke-opacity:1"
             id="path3341" /></g><g
           id="g3343"
           transform="translate(409.4538,52.8682)"><path
             d="M 0,0 H -306.149"
             style="fill:none;stroke:#000000;stroke-width:15;stroke-linecap:round;stroke-linejoin:round;stroke-miterlimit:10;stroke-dasharray:none;stroke-opacity:1"
             id="path3345" /></g><g
           id="g3347"
           transform="translate(459.1315,410.0063)"><path
             d="M 0,0 V -307.587"
             style="fill:none;stroke:#000000;stroke-width:15;stroke-linecap:round;stroke-linejoin:round;stroke-miterlimit:10;stroke-dasharray:none;stroke-opacity:1"
             id="path3349" /></g><g
           id="g3351"
           transform="translate(102.3464,459.1318)"><path
             d="M 0,0 H 308.065"
             style="fill:none;stroke:#000000;stroke-width:15;stroke-linecap:round;stroke-linejoin:round;stroke-miterlimit:10;stroke-dasharray:none;stroke-opacity:1"
             id="path3353" /></g><g
           id="g3355"
           transform="translate(7.5002,459.1318)"><path
             d="M 0,0 C 0,25.056 20.312,45.368 45.368,45.368 70.424,45.368 90.737,25.056 90.737,0 90.737,-25.057 70.424,-45.369 45.368,-45.369 20.312,-45.369 0,-25.057 0,0 Z"
             style="fill:none;stroke:#000000;stroke-width:15;stroke-linecap:round;stroke-linejoin:round;stroke-miterlimit:10;stroke-dasharray:none;stroke-opacity:1"
             id="path3357" /></g><g
           id="g3359"
           transform="translate(7.5002,52.8682)"><path
             d="M 0,0 C 0,25.057 20.312,45.369 45.368,45.369 70.424,45.369 90.737,25.057 90.737,0 90.737,-25.056 70.424,-45.368 45.368,-45.368 20.312,-45.368 0,-25.056 0,0 Z"
             style="fill:none;stroke:#000000;stroke-width:15;stroke-linecap:round;stroke-linejoin:round;stroke-miterlimit:10;stroke-dasharray:none;stroke-opacity:1"
             id="path3361" /></g><g
           id="g3363"
           transform="translate(413.7634,52.8682)"><path
             d="M 0,0 C 0,25.057 20.312,45.369 45.368,45.369 70.425,45.369 90.736,25.057 90.736,0 90.736,-25.056 70.425,-45.368 45.368,-45.368 20.312,-45.368 0,-25.056 0,0 Z"
             style="fill:none;stroke:#000000;stroke-width:15;stroke-linecap:round;stroke-linejoin:round;stroke-miterlimit:10;stroke-dasharray:none;stroke-opacity:1"
             id="path3365" /></g><g
           id="g3367"
           transform="translate(413.7634,459.1318)"><path
             d="M 0,0 C 0,25.056 20.312,45.368 45.368,45.368 70.425,45.368 90.736,25.056 90.736,0 90.736,-25.057 70.425,-45.369 45.368,-45.369 20.312,-45.369 0,-25.057 0,0 Z"
             style="fill:none;stroke:#000000;stroke-width:15;stroke-linecap:round;stroke-linejoin:round;stroke-miterlimit:10;stroke-dasharray:none;stroke-opacity:1"
             id="path3369" /></g><g
           id="g3371"
           transform="translate(308.9059,121.9995)"><path
             d="M 0,0 H 3.908 C 18.981,0 31.2,12.219 31.2,27.292 31.2,42.366 18.981,54.585 3.908,54.585 h -28.519 v 158.831 h 48.64 v -20.104 c 0,-15.073 12.219,-27.292 27.292,-27.292 15.074,0 27.293,12.219 27.293,27.292 v 47.396 c 0,15.074 -12.219,27.293 -27.293,27.293 h -153.259"
             style="fill:none;stroke:#000000;stroke-width:15;stroke-linecap:round;stroke-linejoin:round;stroke-miterlimit:10;stroke-dasharray:none;stroke-opacity:1"
             id="path3373" /></g><g
           id="g3375"
           transform="translate(176.9675,390.0005)"><path
             d="m 0,0 h -25.195 c -15.074,0 -27.292,-12.219 -27.292,-27.292 v -47.397 c 0,-15.073 12.218,-27.292 27.292,-27.292 15.073,0 27.293,12.219 27.293,27.292 v 20.104 H 52.742 V -213.416 H 26.699 c -15.073,0 -27.293,-12.219 -27.293,-27.292 0,-15.074 12.22,-27.293 27.293,-27.293 h 75.239"
             style="fill:none;stroke:#000000;stroke-width:15;stroke-linecap:round;stroke-linejoin:round;stroke-miterlimit:10;stroke-dasharray:none;stroke-opacity:1"
             id="path3377" /></g></g></g></g></svg>
