<svg xmlns="http://www.w3.org/2000/svg" width="18.092" height="21.889" viewBox="0 0 18.092 21.889">
  <g id="Group_348" data-name="Group 348" transform="translate(-321.87 -285.555)">
    <path id="Icon_metro-mobile" data-name="Icon metro-mobile" d="M20.108,1.928H7.795A1.372,1.372,0,0,0,6.427,3.3V22.449a1.372,1.372,0,0,0,1.368,1.368H20.108a1.372,1.372,0,0,0,1.368-1.368V3.3A1.372,1.372,0,0,0,20.108,1.928Zm-6.156,20.9a1.064,1.064,0,1,1,1.064-1.064A1.064,1.064,0,0,1,13.951,22.829Zm6.156-3.116H7.795V4.664H20.108Z" transform="translate(315.443 283.627)" fill="#056fed"/>
    <g id="Icon_feather-settings" data-name="Icon feather-settings" transform="translate(327.828 289.933)">
      <path id="Path_476" data-name="Path 476" d="M16.264,14.882A1.382,1.382,0,1,1,14.882,13.5,1.382,1.382,0,0,1,16.264,14.882Z" transform="translate(-8.315 -8.315)" fill="#fff" stroke="#056fed" stroke-linecap="round" stroke-linejoin="round" stroke-width="1"/>
      <path id="Path_477" data-name="Path 477" d="M9.976,7.949a.76.76,0,0,0,.152.838l.028.028a.922.922,0,1,1-1.3,1.3l-.028-.028a.766.766,0,0,0-1.3.544v.078a.921.921,0,1,1-1.843,0v-.041a.8.8,0,0,0-1.336-.544l-.028.028a.922.922,0,1,1-1.3-1.3l.028-.028a.766.766,0,0,0-.544-1.3H2.421a.921.921,0,1,1,0-1.843h.041a.8.8,0,0,0,.544-1.336l-.028-.028a.922.922,0,1,1,1.3-1.3l.028.028a.76.76,0,0,0,.838.152h.037a.76.76,0,0,0,.461-.7V2.421a.921.921,0,0,1,1.843,0v.041a.766.766,0,0,0,1.3.544l.028-.028a.922.922,0,1,1,1.3,1.3l-.028.028a.76.76,0,0,0-.152.838v.037a.76.76,0,0,0,.7.461h.078a.921.921,0,1,1,0,1.843h-.041a.76.76,0,0,0-.7.461Z" transform="translate(0 0)" fill="#fff" stroke="#056fed" stroke-linecap="round" stroke-linejoin="round" stroke-width="1"/>
    </g>
    <g id="Ellipse_54" data-name="Ellipse 54" transform="translate(333 295)" fill="#fff" stroke="#056fed" stroke-width="1">
      <circle cx="1.5" cy="1.5" r="1.5" stroke="none"/>
      <circle cx="1.5" cy="1.5" r="1" fill="none"/>
    </g>
  </g>
</svg>
