<svg xmlns="http://www.w3.org/2000/svg" width="16" height="20.012" viewBox="0 0 16 20.012">
  <g id="Icon_ionic-ios-notifications" data-name="Icon ionic-ios-notifications" transform="translate(-6.761 -3.93)">
    <path id="Path_478" data-name="Path 478" d="M17.015,30.987a2.358,2.358,0,0,0,2.406-2.651H14.6A2.359,2.359,0,0,0,17.015,30.987Z" transform="translate(-2.264 -7.045)" fill="#056fed"/>
    <path id="Path_479" data-name="Path 479" d="M22.558,18.75c-.77-1.015-2.286-1.611-2.286-6.157,0-4.667-2.061-6.542-3.981-6.992-.18-.045-.31-.105-.31-.3V5.161a1.22,1.22,0,1,0-2.441,0v.145c0,.185-.13.25-.31.3-1.926.455-3.981,2.326-3.981,6.992,0,4.546-1.515,5.137-2.286,6.157a.993.993,0,0,0,.8,1.591h14.01A.993.993,0,0,0,22.558,18.75Z" fill="#056fed"/>
  </g>
</svg>
