<svg id="Group_315" data-name="Group 315" xmlns="http://www.w3.org/2000/svg" xmlns:xlink="http://www.w3.org/1999/xlink" width="20.277" height="20.064" viewBox="0 0 20.277 20.064">
  <defs>
    <clipPath id="clip-path">
      <rect id="Rectangle_2438" data-name="Rectangle 2438" width="20.277" height="20.064" fill="#056fed"/>
    </clipPath>
  </defs>
  <g id="Group_314" data-name="Group 314" clip-path="url(#clip-path)">
    <path id="Path_480" data-name="Path 480" d="M11.11,18.36h-.224q-3.915,0-7.831,0A2.987,2.987,0,0,1,.03,15.773,2.945,2.945,0,0,1,0,15.311q0-4.668,0-9.335A2.993,2.993,0,0,1,.923,3.755Q2.378,2.316,3.837.882A2.936,2.936,0,0,1,5.966,0c2.337,0,4.675-.011,7.012,0a2.965,2.965,0,0,1,2.96,2.958c.013,1.792,0,3.584.007,5.375,0,.156-.043.2-.2.195a2.1,2.1,0,0,0-1.1.288c-1.146.622-2.294,1.239-3.438,1.862A2.2,2.2,0,0,0,10.03,12.6a10.843,10.843,0,0,0,.729,5c.1.243.223.479.352.753M6.91,7.243c-.862,0-1.724-.007-2.587,0a.855.855,0,0,0-.865.873.864.864,0,0,0,.861.86q2.6.01,5.2,0a.819.819,0,0,0,.8-.565A.856.856,0,0,0,9.5,7.246c-.862-.011-1.724,0-2.586,0M5.617,12.976c.427,0,.855,0,1.282,0a.867.867,0,1,0,0-1.734q-1.271-.006-2.543,0a.868.868,0,1,0,0,1.735c.42,0,.84,0,1.26,0" transform="translate(0 0.001)" fill="#056fed"/>
    <path id="Path_481" data-name="Path 481" d="M205.516,177.515c.01-.174.03-.49.048-.806a.445.445,0,0,1,.259-.383l3.476-1.884a.482.482,0,0,1,.486,0q1.739.94,3.478,1.881a.485.485,0,0,1,.273.378,8.664,8.664,0,0,1-.427,4.459,4.915,4.915,0,0,1-3.255,2.953.531.531,0,0,1-.341-.021,5.388,5.388,0,0,1-3.656-3.877,9.486,9.486,0,0,1-.341-2.7" transform="translate(-193.367 -164.067)" fill="#056fed"/>
  </g>
</svg>
