<svg id="Group_319" data-name="Group 319" xmlns="http://www.w3.org/2000/svg" xmlns:xlink="http://www.w3.org/1999/xlink" width="16" height="18.155" viewBox="0 0 16 18.155">
  <defs>
    <clipPath id="clip-path">
      <rect id="Rectangle_2440" data-name="Rectangle 2440" width="16" height="18.155" fill="#056fed"/>
    </clipPath>
  </defs>
  <g id="Group_318" data-name="Group 318" clip-path="url(#clip-path)">
    <path id="Path_484" data-name="Path 484" d="M7.583,18.155c-.4-.063-.8-.075-1.193-.17A7.706,7.706,0,0,1,.225,11.878,7.639,7.639,0,0,1,3.272,3.71a7.54,7.54,0,0,1,4.22-1.545c.275-.018.551,0,.832-.017A.29.29,0,0,0,8.208,2C7.853,1.659,7.5,1.318,7.14.983,7.067.915,7.04.874,7.126.789c.24-.237.471-.484.7-.731.066-.071.1-.08.18-.007Q9.389,1.378,10.782,2.7c.084.08.07.122,0,.2Q9.459,4.272,8.146,5.657c-.08.084-.123.071-.2,0-.231-.229-.465-.456-.708-.673-.1-.089-.078-.139,0-.222.327-.334.648-.675.97-1.014a.33.33,0,0,0,.112-.152,5.608,5.608,0,0,0-1.234.044A6.5,6.5,0,0,0,3.743,5.152,6.559,6.559,0,0,0,2.4,13.567a6.454,6.454,0,0,0,2.635,2.441,6.362,6.362,0,0,0,3.7.671A6.431,6.431,0,0,0,13.6,13.6a6.265,6.265,0,0,0,.955-4,6.466,6.466,0,0,0-2.4-4.549c-.1-.08-.1-.129-.022-.223.239-.294.471-.594.7-.9.063-.083.1-.1.191-.026a7.762,7.762,0,0,1,2.9,5.142,7.762,7.762,0,0,1-2.845,7.282,7.613,7.613,0,0,1-4.1,1.757c-.17.02-.339.043-.509.065Z" transform="translate(0 0)" fill="#056fed"/>
    <path id="Path_485" data-name="Path 485" d="M44.8,54.547c.2,0,.394.007.591,0,.124-.006.158.042.152.158-.008.154.009.31,0,.464-.016.176.035.259.223.294a2.447,2.447,0,0,1,1.28.645,2.835,2.835,0,0,1,.5.7c.044.081.029.122-.055.161-.358.162-.714.329-1.07.5-.074.035-.119.035-.17-.045a1.335,1.335,0,0,0-.717-.527A2.415,2.415,0,0,0,43.8,56.9a.624.624,0,0,0-.453.6c0,.253.155.417.493.529a8.578,8.578,0,0,0,1.389.24,5.8,5.8,0,0,1,1.5.395,2.08,2.08,0,0,1,.319,3.459,3,3,0,0,1-1.343.569c-.136.02-.175.07-.169.2.009.225,0,.45,0,.675,0,.1-.032.137-.133.136q-.622-.005-1.245,0c-.1,0-.136-.042-.134-.14,0-.2-.006-.408,0-.612.006-.138-.036-.192-.181-.214a3.066,3.066,0,0,1-1.861-.942,3.1,3.1,0,0,1-.479-.74c-.048-.1-.038-.148.068-.192.39-.16.777-.325,1.164-.492.069-.03.107-.034.148.046a1.918,1.918,0,0,0,1.841.959,2.083,2.083,0,0,0,.986-.189A1.183,1.183,0,0,0,46,61a.619.619,0,0,0-.076-1.006,2.62,2.62,0,0,0-1.081-.326,13.279,13.279,0,0,1-1.537-.259,1.911,1.911,0,0,1-1.2-2.934,2.331,2.331,0,0,1,1.518-.983c.41-.1.413-.09.413-.512s0-.429.43-.429H44.8" transform="translate(-36.607 -48.132)" fill="#056fed"/>
  </g>
</svg>
