<svg id="Group_321" data-name="Group 321" xmlns="http://www.w3.org/2000/svg" xmlns:xlink="http://www.w3.org/1999/xlink" width="19.037" height="23.824" viewBox="0 0 19.037 23.824">
  <defs>
    <clipPath id="clip-path">
      <rect id="Rectangle_2441" data-name="Rectangle 2441" width="19.037" height="23.824" fill="#056fed"/>
    </clipPath>
  </defs>
  <g id="Group_320" data-name="Group 320" clip-path="url(#clip-path)">
    <path id="Path_486" data-name="Path 486" d="M0,10.233Q0,5.689,0,1.145C0,.192.181.011,1.129.011,4.012.01,6.9.021,9.778,0c.471,0,.647.091.631.607-.04,1.294-.014,2.59-.013,3.885,0,.944.175,1.116,1.143,1.118,1.233,0,2.466.031,3.7-.013.588-.021.786.12.776.748-.039,2.444-.006,4.888-.025,7.332a.888.888,0,0,0,.519.929,4.839,4.839,0,0,1,2.432,5.248,4.95,4.95,0,0,1-4.333,3.932,4.885,4.885,0,0,1-4.914-2.765.744.744,0,0,0-.8-.495c-2.549.017-5.1.009-7.646.008C.158,20.536,0,20.382,0,19.321q0-4.544,0-9.088M10.61,18.915a3.505,3.505,0,1,0,3.48-3.515,3.507,3.507,0,0,0-3.48,3.515M7.981,13.193c1.272,0,2.543-.009,3.815,0,.5.005.909-.141.912-.695s-.394-.708-.9-.707q-3.815.013-7.629,0c-.5,0-.906.15-.913.7s.4.705.9.7c1.271-.012,2.543,0,3.815,0M8.021,8c-1.272,0-2.543,0-3.815,0-.635,0-1,.273-.949.725.059.557.455.682.944.681,2.522,0,5.045,0,7.567,0,.627,0,.989-.28.946-.737-.053-.568-.452-.674-.941-.67-1.251.01-2.5,0-3.752,0m-1.9,9.027c.689,0,1.379.006,2.068,0,.45,0,.8-.192.812-.68.014-.523-.34-.732-.82-.734q-2.036-.009-4.073,0c-.475,0-.844.194-.844.715s.38.7.852.7c.668,0,1.337,0,2.005,0M5.658,5.566c.564,0,1.127,0,1.691,0,.467,0,.779-.222.773-.706a.668.668,0,0,0-.737-.688c-1.127-.014-2.255-.017-3.382,0a.674.674,0,0,0-.742.746c.022.45.331.646.768.648.543,0,1.086,0,1.628,0" transform="translate(0 0)" fill="#056fed"/>
    <path id="Path_487" data-name="Path 487" d="M94.192,1.749l3.917,3.889a3.577,3.577,0,0,1-1.1.051c-.791.013-1.582,0-2.373.005-.25,0-.449-.01-.446-.35.011-1.182,0-2.364,0-3.6" transform="translate(-82.375 -1.53)" fill="#056fed"/>
    <path id="Path_488" data-name="Path 488" d="M98.676,138.721a.779.779,0,0,1-.287.6c-.606.6-1.2,1.215-1.816,1.812a.774.774,0,0,1-1.287,0q-.428-.412-.839-.842a.676.676,0,0,1-.023-1.049.626.626,0,0,1,.993.041c.4.505.675.334,1.011-.053a13.708,13.708,0,0,1,1.015-1.019.7.7,0,0,1,.814-.127.641.641,0,0,1,.418.636" transform="translate(-82.373 -120.701)" fill="#056fed"/>
  </g>
</svg>
