<svg height="512pt" viewBox="0 -13 512 512" width="512pt" xmlns="http://www.w3.org/2000/svg"><path d="m417.183594 7.5h-370.816406c-21.464844 0-38.867188 17.402344-38.867188 38.867188v344.839843c0 21.46875 17.402344 38.867188 38.867188 38.867188h370.8125c21.46875 0 38.867187-17.398438 38.867187-38.867188v-344.839843c.003906-21.464844-17.398437-38.867188-38.863281-38.867188zm0 0" fill="#ecebed"/><path d="m406.097656 251.722656c-70.800781 0-128.398437 57.601563-128.398437 128.402344 0 17.707031 3.601562 34.589844 10.113281 49.949219h129.367188c21.46875 0 38.867187-17.398438 38.867187-38.867188v-129.367187c-15.359375-6.511719-32.242187-10.117188-49.949219-10.117188zm0 0" fill="#dfdfe0"/><path d="m406.097656 57.449219v193.476562l-195.472656 79.917969-153.175781-62.605469v-210.789062zm0 0" fill="#97d8fb"/><path d="m406.097656 250.925781v129.199219h-348.648437v-111.886719l82.597656-46.460937c10.539063-5.929688 23.570313-5.160156 33.339844 1.96875l19.914062 14.535156c10.417969 7.601562 24.460938 7.929688 35.222657.824219l78.792968-52.050781c12.242188-8.085938 28.480469-6.441407 38.851563 3.933593zm0 0" fill="#b6d97a"/><path d="m188.316406 140.03125c0 19.863281-16.101562 35.964844-35.960937 35.964844-19.863281 0-35.964844-16.101563-35.964844-35.964844 0-19.859375 16.101563-35.960938 35.964844-35.960938 19.859375 0 35.960937 16.101563 35.960937 35.960938zm0 0" fill="#fdc079"/><path d="m172.355469 165.996094c-19.863281 0-35.964844-16.101563-35.964844-35.964844 0-10.003906 4.089844-19.054688 10.683594-25.570312-17.359375 2.550781-30.683594 17.503906-30.683594 35.570312 0 19.863281 16.101563 35.964844 35.964844 35.964844 9.855469 0 18.78125-3.96875 25.277343-10.386719-1.722656.25-3.484374.386719-5.277343.386719zm0 0" fill="#fdb35e"/><path d="m406.097656 251.722656c-70.800781 0-128.398437 57.601563-128.398437 128.402344h128.398437zm0 0" fill="#9fcc52"/><path d="m504.5 380.125c0 54.34375-44.054688 98.402344-98.402344 98.402344-54.34375 0-98.398437-44.058594-98.398437-98.402344s44.054687-98.402344 98.398437-98.402344c54.347656 0 98.402344 44.058594 98.402344 98.402344zm0 0" fill="#59b1e0"/><path d="m406.097656 437.574219c4.144532 0 7.5-3.355469 7.5-7.5v-42.449219h42.453125c4.140625 0 7.5-3.359375 7.5-7.5s-3.359375-7.5-7.5-7.5h-42.453125v-42.449219c0-4.144531-3.355468-7.5-7.5-7.5-4.140625 0-7.5 3.355469-7.5 7.5v42.449219h-42.449218c-4.140626 0-7.5 3.359375-7.5 7.5s3.359374 7.5 7.5 7.5h42.449218v42.449219c0 4.144531 3.359375 7.5 7.5 7.5zm0 0"/><path d="m152.355469 183.496094c23.964843 0 43.460937-19.496094 43.460937-43.464844 0-23.964844-19.496094-43.460938-43.460937-43.460938-23.96875 0-43.464844 19.496094-43.464844 43.460938 0 23.96875 19.496094 43.464844 43.464844 43.464844zm0-71.925782c15.695312 0 28.460937 12.769532 28.460937 28.464844 0 15.695313-12.765625 28.460938-28.460937 28.460938-15.695313 0-28.464844-12.765625-28.464844-28.460938 0-15.695312 12.769531-28.464844 28.464844-28.464844zm0 0"/><path d="m151.785156 281.160156c-4.140625 0-7.5 3.355469-7.5 7.5v11.855469c0 4.144531 3.359375 7.5 7.5 7.5 4.144532 0 7.5-3.355469 7.5-7.5v-11.855469c0-4.144531-3.355468-7.5-7.5-7.5zm0 0"/><path d="m282.828125 281.160156c-4.144531 0-7.5 3.355469-7.5 7.5v11.855469c0 4.144531 3.355469 7.5 7.5 7.5 4.140625 0 7.5-3.355469 7.5-7.5v-11.855469c0-4.144531-3.359375-7.5-7.5-7.5zm0 0"/><path d="m238.414062 294.046875c-3.117187-2.726563-7.855468-2.410156-10.582031.707031-2.550781 2.917969-6.386719 4.59375-10.523437 4.59375-4.140625 0-7.976563-1.675781-10.527344-4.59375-2.726562-3.117187-7.460938-3.4375-10.582031-.710937-3.117188 2.726562-3.4375 7.464843-.710938 10.585937 5.398438 6.175782 13.351563 9.71875 21.820313 9.71875 8.464844 0 16.417968-3.542968 21.816406-9.71875 2.726562-3.121094 2.40625-7.859375-.710938-10.582031zm0 0"/><path d="m491.691406 442.484375c13.285156-18.203125 20.308594-39.769531 20.308594-62.359375 0-37.230469-19.316406-70.035156-48.449219-88.921875v-244.835937c0-25.566407-20.800781-46.367188-46.367187-46.367188h-274.320313c-4.140625 0-7.5 3.359375-7.5 7.5s3.359375 7.5 7.5 7.5h274.316407c17.296874 0 31.367187 14.070312 31.367187 31.367188v236.722656c-4.929687-2.15625-10.003906-3.820313-15.175781-5.296875-6.472656-1.710938-13.089844-2.828125-19.773438-3.300781v-217.042969c0-4.140625-3.359375-7.5-7.5-7.5h-348.648437c-4.140625 0-7.5 3.359375-7.5 7.5v322.675781c0 4.140625 3.359375 7.5 7.5 7.5h243.019531c.84375 12.023438 3.765625 23.90625 8.59375 34.949219h-262.695312c-17.296876 0-31.367188-14.070313-31.367188-31.367188v-344.839843c0-17.296876 14.070312-31.367188 31.367188-31.367188h66.496093c4.144531 0 7.5-3.359375 7.5-7.5s-3.355469-7.5-7.5-7.5h-66.496093c-25.566407 0-46.367188 20.800781-46.367188 46.367188v344.839843c0 25.566407 20.800781 46.367188 46.367188 46.367188h270.808593c18.886719 29.136719 51.691407 48.453125 88.921875 48.453125 22.925782 0 44.746094-7.210938 63.101563-20.851563 3.324219-2.46875 4.015625-7.167969 1.546875-10.492187-2.472656-3.324219-7.167969-4.015625-10.492188-1.546875-15.75 11.703125-34.476562 17.890625-54.15625 17.890625-49.246094 0-90.902344-41.679688-90.902344-90.902344 0-45.347656 35.082032-84.804688 80.242188-90.257812 14.429688-1.742188 30.355469-.214844 43.953125 5.667968.007813.003906.015625.011719.023437.011719 33.691407 13.320313 57.585938 46.210937 57.585938 84.578125 0 19.390625-6.023438 37.898438-17.425781 53.519531-2.441407 3.34375-1.707031 8.035157 1.640625 10.476563 3.34375 2.441406 8.035156 1.710937 10.476562-1.636719zm-93.09375-377.535156v167.867187s-47.105468-47.113281-47.125-47.132812c-12.734375-12.738282-33.265625-14.8125-48.289062-4.886719 0 0-78.757813 52.023437-78.796875 52.050781-7.785157 5.144532-18.152344 5.089844-25.890625-.105468-.257813-.171876-.519532-.335938-.773438-.519532 0 0-19.914062-14.53125-19.914062-14.535156-12.011719-8.765625-28.484375-9.738281-41.441406-2.449219l-71.417969 40.175781v-190.464843zm-333.648437 207.675781 78.773437-44.3125c7.90625-4.441406 17.917969-3.851562 25.242188 1.492188 0 0 19.910156 14.535156 19.914062 14.535156 12.792969 9.335937 30.566406 9.75 43.777344 1.023437l78.792969-52.050781c9.164062-6.054688 21.664062-4.773438 29.414062 2.976562l57.734375 57.742188v20.457031c-.070312.003907-.136718.015625-.207031.019531-51.453125 3.640626-94.203125 46.558594-97.910156 97.910157-.003907.070312-.015625.140625-.019531.207031h-235.511719zm0 0"/></svg>