<svg height="512" viewBox="0 0 60 60" width="512" xmlns="http://www.w3.org/2000/svg"><g id="Page-1" fill="none" fill-rule="evenodd"><g id="016---Dictionary" fill-rule="nonzero"><g id="Icons" transform="translate(1 1)"><path id="Shape" d="m21 28c-.0007668 5.060168 2.5497804 9.779662 6.7832107 12.5515509s9.5790687 3.2225164 14.2167893 1.1984491v6.25h-36v-48h34c1.1032019.0032948 1.9967052.89679813 2 2v12.25c-4.6377206-2.0240673-9.983359-1.5734398-14.2167893 1.1984491s-6.7839775 7.4913829-6.7832107 12.5515509z" fill="#ffdc00"/><path id="Shape" d="m40 0h-3c1.1032019.0032948 1.9967052.89679813 2 2v11.308c1.0301252.2084787 2.0356022.5241985 3 .942v-12.25c-.0032948-1.10320187-.8967981-1.9967052-2-2z" fill="#fec108"/><path id="Shape" d="m39 48h3v-6.25c-.9643978.4178015-1.9698748.7335213-3 .942z" fill="#fec108"/><path id="Shape" d="m6 0v48h-1c-1.32730464-.0039999-2.60139957.5214997-3.53994994 1.4600501-.93855037.9385503-1.46405 2.2126453-1.46007273 3.5399499l.00002267-48c0-2.76142375 2.23857625-5 5-5z" fill="#ff9801"/><path id="Shape" d="m42 48v8c-.0032948 1.1032019-.8967981 1.9967052-2 2h-35c-2.76142375 0-5-2.2385763-5-5s2.23857625-5 5-5z" fill="#f5f5f5"/><path id="Shape" d="m39 48v8c-.0032948 1.1032019-.8967981 1.9967052-2 2h3c1.1032019-.0032948 1.9967052-.8967981 2-2v-8z" fill="#cfd8dc"/><path id="Shape" d="m18.293 17.7-2.586-2.586c-.3904999-.3903819-1.0235001-.3903819-1.414 0l-2.586 2.586c-.2850911.2850259-.7134493.3709938-1.0864394.2180394-.3729902-.1529543-.617663-.5149162-.6205606-.9180394v-17h10v17c-.0028976.4031232-.2475704.7650851-.6205606.9180394-.3729901.1529544-.8013483.0669865-1.0864394-.2180394z" fill="#f44335"/><path id="Shape" d="m51 28c.0039582 4.0541062-1.6423478 7.9352002-4.56 10.75-.9543874.9412078-2.0346743 1.7455336-3.21 2.39-.4.22-.81.43-1.23.61-6.079242 2.6531986-13.1792755.9986164-17.4593388-4.0687008s-4.7238053-12.3440755-1.0911838-17.893914c3.6326215-5.5498384 10.478998-8.0548828 16.8355834-6.1600299 6.3565855 1.8948529 10.7139342 7.739648 10.7149392 14.3726447z" fill="#9e9e9e"/><path id="Shape" d="m42 14.25c-2.3673059-1.0298067-4.9596043-1.4337342-7.528-1.173 5.811506.5663068 10.764431 4.4576154 12.6900007 9.9700094 1.9255696 5.5123939.4728675 11.6412932-3.7220007 15.7029906-.9543874.9412078-2.0346743 1.7455336-3.21 2.39-.4.22-.81.43-1.23.61-1.4390473.6243887-2.9667959 1.0201593-4.528 1.173 2.5683957.2607342 5.1606941-.1431933 7.528-1.173.42-.18.83-.39 1.23-.61 1.1753257-.6444664 2.2556126-1.4487922 3.21-2.39 3.5909596-3.4773937 5.2112187-8.5165714 4.3198464-13.4351803-.8913724-4.9186089-4.1769571-9.0687276-8.7598464-11.0648197z" fill="#707070"/><circle id="Oval" cx="36" cy="28" fill="#02a9f4" r="11"/><path id="Shape" d="m36 17c-.5020494.003799-1.0032389.0422235-1.5.115 5.4425444.7431364 9.4997393 5.3919552 9.4997393 10.885s-4.0571949 10.1418636-9.4997393 10.885c4.0693745.5609855 8.1120432-1.1934885 10.4817215-4.5489524 2.3696784-3.3554639 2.6710252-7.7521148.781324-11.3995169-1.8897012-3.6474022-5.6551856-5.9370477-9.7630455-5.9365307z" fill="#0377bc"/><path id="Shape" d="m48.86 42.02-3.22 2.38-2.41-3.26c1.1753257-.6444664 2.2556126-1.4487922 3.21-2.39z" fill="#7f8e94"/><path id="Shape" d="m56.81 56.14c-1.3315689.9807983-3.2057282.6990034-4.19-.63l-7.19-9.71c-.1580723-.2134045-.2247649-.480922-.1853699-.7435555s.1816418-.49881.3953699-.6564445l3.22-2.38c.2134045-.1580723.480922-.2247649.7435555-.1853699s.49881.1816418.6564445.3953699l7.18 9.71c.4742168.6402135.6742947 1.4427659.5561097 2.2306664-.1181851.7879006-.5449254 1.4964302-1.1861097 1.9693336z" fill="#9e9e9e"/><path id="Shape" d="m57.44 51.94-7.18-9.71c-.1576345-.2137281-.393811-.3559749-.6564445-.3953699s-.530151.0272976-.7435555.1853699l-1.135.839 6.715 9.081c.4742168.6402135.6742947 1.4427659.5561097 2.2306664-.1181851.7879006-.5449254 1.4964302-1.1861097 1.9693336-.0944131.0638574-.1925913.1219628-.294.174 1.2295511.7166593 2.7934214.4708158 3.7437809-.5885299s1.0256415-2.6406306.1802191-3.7854701z" fill="#707070"/></g><g id="Layer_11" fill="#000"><path id="Shape" d="m25 29c0 6.627417 5.372583 12 12 12s12-5.372583 12-12-5.372583-12-12-12c-6.624447.0071648-11.9928352 5.375553-12 12zm22 0c0 5.5228475-4.4771525 10-10 10s-10-4.4771525-10-10 4.4771525-10 10-10c5.5203344.0060624 9.9939376 4.4796656 10 10z"/><path id="Shape" d="m52.061 42.633c-.4256385-.5688294-1.1210901-.869164-1.827-.789l-1.491-2.014c3.4398184-3.706105 4.9173594-8.824385 3.9819079-13.7935394-.9354514-4.9691545-4.1729469-9.1998211-8.7249079-11.4014606v-11.635c0-1.65685425-1.3431458-3-3-3h-35c-3.31233757.00330738-5.99669262 2.68766243-6 6v48c.00330738 3.3123376 2.68766243 5.9966926 6 6h35c1.6568542 0 3-1.3431458 3-3v-13.49l1.408 1.905c-.284003.6512813-.1998034 1.4045059.221 1.977l7.185 9.713c1.3150252 1.7740676 3.8179127 2.1489415 5.595.838 1.7753307-1.3140445 2.1495857-3.8183298.836-5.594zm-6.38-.212c.5614911-.3624909 1.0998661-.7595926 1.612-1.189l1.167 1.577-1.611 1.191zm5.319-13.421c0 7.7319865-6.2680135 14-14 14s-14-6.2680135-14-14 6.2680135-14 14-14c7.7285595.0082673 13.9917327 6.2714405 14 14zm-9-26v10.811c-6.601161-2.1857591-13.8583271.142343-17.9560498 5.7603087s-4.0977227 13.2394169 0 18.8573826 11.3548888 7.9460678 17.9560498 5.7603087v3.811h-34v-46h2v16c.0001727.8087918.487455 1.5378681 1.2346909 1.847356.7472359.3094878 1.6073206.1384598 2.1793091-.433356l2.586-2.588 2.586 2.586c.571731.5715595 1.4313315.7427151 2.1783863.4337399s1.2346332-1.037312 1.2356137-1.8457399v-16h19c.5522847 0 1 .44771525 1 1zm-22-1 .007 16h-.007l-2.586-2.586c-.7809997-.7807639-2.0470003-.7807639-2.828 0l-2.586 2.586v-16zm-14 0v46c-1.47801186.0003999-2.90331472.5491415-4 1.54v-43.54c0-2.209139 1.790861-4 4-4zm36 55c0 .5522847-.4477153 1-1 1h-35c-2.209139 0-4-1.790861-4-4s1.790861-4 4-4h36zm16.008-1.977c-.1197962.8000042-.7097071 1.4490715-1.4946585 1.6445432-.7849514.1954718-1.6103608-.1011469-2.0913415-.7515432l-7.185-9.716 3.217-2.377 7.184 9.713c.316979.4263591.4502117.9618107.37 1.487z"/><path id="Shape" d="m36.09 21.586-5 11c-.157534.3266117-.1259137.7129119.0826367 1.009558s.5613482.4571497.9220027.4194606c.3606546-.0376892.6726465-.2676646.8153606-.6010186l1.097-2.414h5.986l1.1 2.414c.1427141.333354.454706.5633294.8153606.6010186.3606545.0376891.7134523-.1228145.9220027-.4194606s.2401707-.6829463.0826367-1.009558l-5-11c-.1624531-.356559-.5181769-.5853918-.91-.5853918s-.7475469.2288328-.91.5853918zm2.994 7.414h-4.168l2.084-4.583z"/><path id="Shape" d="m5 54c0 .5522847.44771525 1 1 1h2c.55228475 0 1-.4477153 1-1s-.44771525-1-1-1h-2c-.55228475 0-1 .4477153-1 1z"/><path id="Shape" d="m13 55h26c.5522847 0 1-.4477153 1-1s-.4477153-1-1-1h-26c-.5522847 0-1 .4477153-1 1s.4477153 1 1 1z"/></g></g></g></svg>