<?xml version="1.0" encoding="iso-8859-1"?>
<!-- Generator: Adobe Illustrator 19.0.0, SVG Export Plug-In . SVG Version: 6.00 Build 0)  -->
<svg version="1.1" id="Layer_1" xmlns="http://www.w3.org/2000/svg" xmlns:xlink="http://www.w3.org/1999/xlink" x="0px" y="0px"
	 viewBox="0 0 473.931 473.931" style="enable-background:new 0 0 473.931 473.931;" xml:space="preserve">
<circle style="fill:#4ABC96;" cx="236.966" cy="236.966" r="236.966"/>
<rect x="128.464" y="94.36" transform="matrix(-0.9875 0.1577 -0.1577 -0.9875 509.6456 448.4125)" style="fill:#FFFFFF;" width="217.137" height="300.13"/>
<circle style="fill:#E84849;" cx="314.083" cy="335.935" r="63.064"/>
<rect x="282.578" y="327.067" style="fill:#FFFFFF;" width="67.056" height="19.289"/>
<g>
	
		<rect x="131.606" y="125.727" transform="matrix(-0.9875 0.1578 -0.1578 -0.9875 458.2418 226.2749)" style="fill:#E84849;" width="177.065" height="11.203"/>
	
		<rect x="136.667" y="153.387" transform="matrix(-0.9875 0.1577 -0.1577 -0.9875 472.6498 280.4754)" style="fill:#E84849;" width="177.062" height="11.203"/>
	
		<rect x="141.317" y="182.748" transform="matrix(-0.9875 0.1578 -0.1578 -0.9875 486.5406 338.0745)" style="fill:#E84849;" width="177.065" height="11.207"/>
	
		<rect x="146.394" y="217.505" transform="matrix(-0.9875 0.1578 -0.1578 -0.9875 423.1724 412.6161)" style="fill:#E84849;" width="97.625" height="11.203"/>
</g>
<g>
</g>
<g>
</g>
<g>
</g>
<g>
</g>
<g>
</g>
<g>
</g>
<g>
</g>
<g>
</g>
<g>
</g>
<g>
</g>
<g>
</g>
<g>
</g>
<g>
</g>
<g>
</g>
<g>
</g>
</svg>
