<?xml version="1.0" encoding="iso-8859-1"?>
<!-- Generator: Adobe Illustrator 19.0.0, SVG Export Plug-In . SVG Version: 6.00 Build 0)  -->
<svg version="1.1" id="Layer_1" xmlns="http://www.w3.org/2000/svg" xmlns:xlink="http://www.w3.org/1999/xlink" x="0px" y="0px"
	 viewBox="0 0 370 370" style="enable-background:new 0 0 370 370;" xml:space="preserve">
<g id="XMLID_720_">
	<polygon id="XMLID_74_" style="fill:#78B9EB;" points="15,320 15,0 215,0 275,60 275,320 	"/>
	<polygon id="XMLID_721_" style="fill:#5A8BB0;" points="275,173.75 15,320 275,320 	"/>
	<rect id="XMLID_722_" x="75" y="120" style="fill:#DEDDE0;" width="140" height="20"/>
	<rect id="XMLID_723_" x="75" y="160" style="fill:#DEDDE0;" width="140" height="20"/>
	<rect id="XMLID_724_" x="75" y="80" style="fill:#FFFFFF;" width="70" height="20"/>
	<rect id="XMLID_725_" x="75" y="120" style="fill:#FFFFFF;" width="70" height="20"/>
	<rect id="XMLID_726_" x="75" y="160" style="fill:#FFFFFF;" width="70" height="20"/>
	<g id="XMLID_727_">
		<g id="XMLID_728_">
			<circle id="XMLID_66_" style="fill:#EEEEEF;" cx="275" cy="290" r="80"/>
			<path id="XMLID_65_" style="fill:#DEDDE0;" d="M275,210c44.183,0,80,35.817,80,80s-35.817,80-80,80"/>
		</g>
	</g>
	<circle id="XMLID_62_" style="fill:#FF5023;" cx="275" cy="290" r="50"/>
	<path id="XMLID_61_" style="fill:#A2001D;" d="M275,240c27.613,0,50,22.386,50,50s-22.387,50-50,50"/>
	<polygon id="XMLID_729_" style="fill:#1E2E3B;" points="215,0 275,60 215,60 	"/>
	<circle id="XMLID_59_" style="fill:#EEEEEF;" cx="275" cy="290" r="30"/>
	<polygon id="XMLID_730_" style="fill:#FF5023;" points="283.125,267.732 239.645,311.213 253.786,325.355 283.125,296.016 	"/>
	<polygon id="XMLID_731_" style="fill:#A2001D;" points="275,304.141 310.355,268.786 296.214,254.644 275,275.857 	"/>
</g>
<g>
</g>
<g>
</g>
<g>
</g>
<g>
</g>
<g>
</g>
<g>
</g>
<g>
</g>
<g>
</g>
<g>
</g>
<g>
</g>
<g>
</g>
<g>
</g>
<g>
</g>
<g>
</g>
<g>
</g>
</svg>
